STARTFONT 2.1
COMMENT
COMMENT Converted from OpenType font "ipam.ttf" by "otf2bdf 3.0".
COMMENT
FONT -FreeType-IPAMincho-Medium-R-Normal--28-280-72-72-P-248-ISO10646-1
SIZE 28 72 72
FONTBOUNDINGBOX 28 28 0 -3
STARTPROPERTIES 19
FOUNDRY "FreeType"
FAMILY_NAME "IPAMincho"
WEIGHT_NAME "Medium"
SLANT "R"
SETWIDTH_NAME "Normal"
ADD_STYLE_NAME ""
PIXEL_SIZE 28
POINT_SIZE 280
RESOLUTION_X 72
RESOLUTION_Y 72
SPACING "P"
AVERAGE_WIDTH 248
CHARSET_REGISTRY "ISO10646"
CHARSET_ENCODING "1"
FONT_ASCENT 24
FONT_DESCENT 3
COPYRIGHT "Copyright(c) Information-technology Promotion Agency, Japan (IPA), 2003-2011. You must accept "http://ipafont.ipa.go.jp/ipa_font_license_v1.html" to use this product."
_OTF_FONTFILE "ipam.ttf"
_OTF_PSNAME "IPAMincho"
ENDPROPERTIES
CHARS 11158
STARTCHAR 0020
ENCODING 32
SWIDTH 500 0
DWIDTH 14 0
BBX 0 0 0 0
BITMAP
ENDCHAR
STARTCHAR 0021
ENCODING 33
SWIDTH 500 0
DWIDTH 14 0
BBX 4 23 5 -1
BITMAP
60
60
60
60
60
60
60
60
60
60
60
60
60
60
60
40
40
00
00
00
60
F0
60
ENDCHAR
STARTCHAR 0022
ENCODING 34
SWIDTH 500 0
DWIDTH 14 0
BBX 10 8 2 15
BITMAP
6180
73C0
F3C0
30C0
2080
6100
4300
8400
ENDCHAR
STARTCHAR 0023
ENCODING 35
SWIDTH 500 0
DWIDTH 14 0
BBX 12 23 1 -1
BITMAP
0840
0880
0880
0880
0880
0880
7FF0
7FF0
0880
0880
1080
1100
1100
1100
1100
FFE0
FFE0
1100
1100
1100
2100
2200
2200
ENDCHAR
STARTCHAR 0024
ENCODING 36
SWIDTH 500 0
DWIDTH 14 0
BBX 11 24 1 -1
BITMAP
0400
0400
0F00
34C0
6440
6460
44E0
64E0
6400
3400
1C00
0700
05C0
04C0
0460
E460
E420
C420
4460
6440
1D80
0600
0400
0400
ENDCHAR
STARTCHAR 0025
ENCODING 37
SWIDTH 500 0
DWIDTH 14 0
BBX 12 25 1 -2
BITMAP
0010
3820
4C20
C440
C440
C440
C480
C480
4500
4D00
3A00
0200
0600
0400
05C0
0B20
0A30
1230
1230
2230
2230
2230
4320
41C0
8000
ENDCHAR
STARTCHAR 0026
ENCODING 38
SWIDTH 500 0
DWIDTH 14 0
BBX 12 21 1 0
BITMAP
0E00
1300
3100
3100
3300
3200
1600
1800
18F0
2860
4C20
4C40
C440
C640
C240
C340
C190
C190
61D0
62F0
1C60
ENDCHAR
STARTCHAR 0027
ENCODING 39
SWIDTH 500 0
DWIDTH 14 0
BBX 4 8 2 15
BITMAP
60
70
F0
30
20
60
40
80
ENDCHAR
STARTCHAR 0028
ENCODING 40
SWIDTH 500 0
DWIDTH 14 0
BBX 8 25 4 -2
BITMAP
03
04
08
10
30
20
60
40
40
C0
C0
C0
C0
C0
C0
C0
40
40
60
20
30
10
08
04
03
ENDCHAR
STARTCHAR 0029
ENCODING 41
SWIDTH 500 0
DWIDTH 14 0
BBX 8 25 2 -2
BITMAP
C0
20
10
08
0C
04
06
02
02
03
03
03
03
03
03
03
02
02
06
04
0C
08
10
20
C0
ENDCHAR
STARTCHAR 002A
ENCODING 42
SWIDTH 500 0
DWIDTH 14 0
BBX 11 12 2 5
BITMAP
0C00
0C00
CCC0
EDC0
7F80
1E00
1E00
7F80
EDC0
CCE0
0C00
0C00
ENDCHAR
STARTCHAR 002B
ENCODING 43
SWIDTH 500 0
DWIDTH 14 0
BBX 12 15 1 3
BITMAP
0600
0600
0600
0600
0600
0600
0600
FFF0
0600
0600
0600
0600
0600
0600
0600
ENDCHAR
STARTCHAR 002C
ENCODING 44
SWIDTH 500 0
DWIDTH 14 0
BBX 4 8 2 -3
BITMAP
70
70
70
30
30
20
40
80
ENDCHAR
STARTCHAR 002D
ENCODING 45
SWIDTH 500 0
DWIDTH 14 0
BBX 12 1 1 10
BITMAP
FFF0
ENDCHAR
STARTCHAR 002E
ENCODING 46
SWIDTH 500 0
DWIDTH 14 0
BBX 5 4 2 0
BITMAP
70
70
F8
70
ENDCHAR
STARTCHAR 002F
ENCODING 47
SWIDTH 500 0
DWIDTH 14 0
BBX 12 25 1 -2
BITMAP
0030
0020
0060
0040
0040
0080
0080
0180
0100
0100
0200
0200
0600
0400
0C00
0800
0800
1800
1000
3000
2000
2000
4000
4000
C000
ENDCHAR
STARTCHAR 0030
ENCODING 48
SWIDTH 500 0
DWIDTH 14 0
BBX 10 21 2 0
BITMAP
1E00
3300
6180
4080
C0C0
C0C0
C0C0
C0C0
C0C0
C0C0
C0C0
C0C0
C0C0
C0C0
C0C0
C0C0
C0C0
4080
6180
3300
1E00
ENDCHAR
STARTCHAR 0031
ENCODING 49
SWIDTH 500 0
DWIDTH 14 0
BBX 6 20 4 2
BITMAP
10
F0
30
30
30
30
30
30
30
30
30
30
30
30
30
30
30
30
30
FC
ENDCHAR
STARTCHAR 0032
ENCODING 50
SWIDTH 500 0
DWIDTH 14 0
BBX 10 19 2 2
BITMAP
3E00
6180
C0C0
C0C0
E0C0
C0C0
0180
0180
0300
0600
0400
0800
1000
3000
2040
4040
8040
FFC0
FFC0
ENDCHAR
STARTCHAR 0033
ENCODING 51
SWIDTH 500 0
DWIDTH 14 0
BBX 10 21 2 0
BITMAP
3E00
6300
C180
E0C0
E0C0
00C0
0080
0180
0300
1C00
0300
0180
00C0
00C0
00C0
C0C0
C0C0
C0C0
C180
6380
3E00
ENDCHAR
STARTCHAR 0034
ENCODING 52
SWIDTH 500 0
DWIDTH 14 0
BBX 12 19 1 2
BITMAP
0180
0180
0380
0380
0580
0D80
0980
1980
1180
2180
2180
4180
C180
FFF0
0180
0180
0180
0180
07F0
ENDCHAR
STARTCHAR 0035
ENCODING 53
SWIDTH 500 0
DWIDTH 14 0
BBX 10 21 2 0
BITMAP
7F80
7F80
4000
4000
4000
4000
4000
C000
DE00
E380
C180
00C0
00C0
00C0
00C0
C0C0
C0C0
C0C0
C180
6300
3E00
ENDCHAR
STARTCHAR 0036
ENCODING 54
SWIDTH 500 0
DWIDTH 14 0
BBX 10 21 2 0
BITMAP
0F00
1080
31C0
61C0
6000
4000
C000
C000
DF00
F180
C0C0
C0C0
C0C0
C0C0
C0C0
C0C0
C0C0
60C0
6180
3180
1E00
ENDCHAR
STARTCHAR 0037
ENCODING 55
SWIDTH 500 0
DWIDTH 14 0
BBX 10 21 2 0
BITMAP
FFC0
FFC0
C040
8080
8080
8100
0100
0300
0200
0200
0600
0600
0400
0C00
0C00
0C00
0C00
0C00
1C00
1C00
0800
ENDCHAR
STARTCHAR 0038
ENCODING 56
SWIDTH 500 0
DWIDTH 14 0
BBX 10 21 2 0
BITMAP
1E00
3180
6080
C0C0
C0C0
C0C0
6080
6100
3A00
0E00
3700
6180
C0C0
80C0
80C0
8040
80C0
C0C0
C0C0
6180
1E00
ENDCHAR
STARTCHAR 0039
ENCODING 57
SWIDTH 500 0
DWIDTH 14 0
BBX 10 21 2 0
BITMAP
1E00
6300
4180
C080
C0C0
C0C0
80C0
C0C0
C0C0
C0C0
61C0
3EC0
00C0
00C0
00C0
C080
E180
C180
C300
6600
3C00
ENDCHAR
STARTCHAR 003A
ENCODING 58
SWIDTH 500 0
DWIDTH 14 0
BBX 4 13 5 2
BITMAP
60
F0
F0
60
00
00
00
00
00
60
F0
F0
60
ENDCHAR
STARTCHAR 003B
ENCODING 59
SWIDTH 500 0
DWIDTH 14 0
BBX 4 17 5 -2
BITMAP
60
F0
F0
60
00
00
00
00
00
00
60
F0
F0
20
20
40
80
ENDCHAR
STARTCHAR 003C
ENCODING 60
SWIDTH 500 0
DWIDTH 14 0
BBX 10 17 2 2
BITMAP
0040
0180
0300
0600
0C00
1800
3000
6000
C000
6000
3000
0800
0400
0300
0180
00C0
0040
ENDCHAR
STARTCHAR 003D
ENCODING 61
SWIDTH 500 0
DWIDTH 14 0
BBX 12 6 1 8
BITMAP
FFF0
0000
0000
0000
0000
FFF0
ENDCHAR
STARTCHAR 003E
ENCODING 62
SWIDTH 500 0
DWIDTH 14 0
BBX 10 17 2 2
BITMAP
8000
6000
3000
1800
0C00
0600
0300
0180
00C0
0180
0300
0400
0800
3000
6000
C000
8000
ENDCHAR
STARTCHAR 003F
ENCODING 63
SWIDTH 500 0
DWIDTH 14 0
BBX 12 24 1 -1
BITMAP
0F80
30C0
6060
4060
C030
F030
7060
6060
00C0
00C0
0180
0300
0200
0200
0200
0400
0400
0400
0000
0000
0000
0600
0F00
0600
ENDCHAR
STARTCHAR 0040
ENCODING 64
SWIDTH 500 0
DWIDTH 14 0
BBX 12 22 1 0
BITMAP
0F80
18C0
3020
2020
6010
4750
CDD0
C890
9890
9890
9890
9090
9090
9990
D990
C9A0
4EE0
6000
6010
3020
1860
0780
ENDCHAR
STARTCHAR 0041
ENCODING 65
SWIDTH 500 0
DWIDTH 14 0
BBX 14 20 0 2
BITMAP
0200
0300
0300
0300
0500
0580
0580
0480
0880
08C0
08C0
08C0
1FE0
1060
1060
1060
2030
2030
2030
F8FC
ENDCHAR
STARTCHAR 0042
ENCODING 66
SWIDTH 500 0
DWIDTH 14 0
BBX 12 19 1 2
BITMAP
FF00
3180
20C0
2060
2060
2060
2040
20C0
2180
3F00
20C0
2060
2060
2030
2030
2020
2060
30C0
FF80
ENDCHAR
STARTCHAR 0043
ENCODING 67
SWIDTH 500 0
DWIDTH 14 0
BBX 10 21 2 0
BITMAP
0F40
31C0
20C0
40C0
4040
C040
C000
C000
C000
C000
C000
C000
C000
C040
C040
C040
4040
6080
6080
3100
1E00
ENDCHAR
STARTCHAR 0044
ENCODING 68
SWIDTH 500 0
DWIDTH 14 0
BBX 12 19 1 2
BITMAP
FE00
3180
20C0
2060
2060
2060
2020
2030
2030
2030
2030
2030
2020
2060
2060
2040
20C0
3180
FE00
ENDCHAR
STARTCHAR 0045
ENCODING 69
SWIDTH 500 0
DWIDTH 14 0
BBX 11 19 1 2
BITMAP
FFE0
3060
2020
2020
2020
2000
2080
2080
2080
3F80
2080
2080
2080
2000
2020
2020
2020
3060
FFE0
ENDCHAR
STARTCHAR 0046
ENCODING 70
SWIDTH 500 0
DWIDTH 14 0
BBX 12 19 1 2
BITMAP
FFF0
3070
3030
3010
3010
3000
3080
3080
3080
3F80
3080
3080
3080
3000
3000
3000
3000
3000
FC00
ENDCHAR
STARTCHAR 0047
ENCODING 71
SWIDTH 500 0
DWIDTH 14 0
BBX 11 21 2 0
BITMAP
1E40
31C0
60C0
6040
C040
C000
C000
C000
C000
C000
C3E0
C0C0
C0C0
C0C0
C0C0
C0C0
C0C0
60C0
6140
3140
1E00
ENDCHAR
STARTCHAR 0048
ENCODING 72
SWIDTH 500 0
DWIDTH 14 0
BBX 12 19 1 2
BITMAP
F9F0
6060
6060
6060
6060
6060
6060
6060
6060
7FE0
6060
6060
6060
6060
6060
6060
6060
6060
F9F0
ENDCHAR
STARTCHAR 0049
ENCODING 73
SWIDTH 500 0
DWIDTH 14 0
BBX 6 19 4 2
BITMAP
FC
30
30
30
30
30
30
30
30
30
30
30
30
30
30
30
30
30
FC
ENDCHAR
STARTCHAR 004A
ENCODING 74
SWIDTH 500 0
DWIDTH 14 0
BBX 11 21 2 0
BITMAP
07E0
0180
0180
0180
0180
0180
0180
0180
0180
0180
0180
0180
0180
0180
0180
C100
E100
C300
C200
6600
3C00
ENDCHAR
STARTCHAR 004B
ENCODING 75
SWIDTH 500 0
DWIDTH 14 0
BBX 12 19 1 2
BITMAP
F9E0
6080
6080
6100
6100
6200
6400
6400
6E00
6E00
7300
7300
6100
6180
6080
60C0
6040
6060
F9F0
ENDCHAR
STARTCHAR 004C
ENCODING 76
SWIDTH 500 0
DWIDTH 14 0
BBX 11 19 1 2
BITMAP
FC00
3000
3000
3000
3000
3000
3000
3000
3000
3000
3000
3000
3000
3020
3020
3020
3020
3060
FFE0
ENDCHAR
STARTCHAR 004D
ENCODING 77
SWIDTH 500 0
DWIDTH 14 0
BBX 14 19 0 2
BITMAP
F03C
3030
3850
3850
3850
2850
2850
2C90
2C90
2C90
2490
2510
2710
2710
2710
2310
2210
2230
F07C
ENDCHAR
STARTCHAR 004E
ENCODING 78
SWIDTH 500 0
DWIDTH 14 0
BBX 12 20 1 1
BITMAP
E0F0
7060
5020
5820
5820
4C20
4C20
4420
4620
4220
4320
4320
41A0
41A0
40A0
40E0
4060
6060
F060
0020
ENDCHAR
STARTCHAR 004F
ENCODING 79
SWIDTH 500 0
DWIDTH 14 0
BBX 12 21 1 0
BITMAP
0F00
1880
3040
2040
6060
6060
6060
4020
C020
C030
C030
C030
C030
4060
6060
6060
6060
2040
30C0
1980
0F00
ENDCHAR
STARTCHAR 0050
ENCODING 80
SWIDTH 500 0
DWIDTH 14 0
BBX 12 19 1 2
BITMAP
FF80
30C0
2060
2030
2030
2030
2030
2030
2060
20C0
3F80
2000
2000
2000
2000
2000
2000
3000
FC00
ENDCHAR
STARTCHAR 0051
ENCODING 81
SWIDTH 500 0
DWIDTH 14 0
BBX 12 22 1 -1
BITMAP
0F00
1980
30C0
6040
6060
6060
4060
4020
C020
C030
C030
C030
C020
4E60
6B60
7960
7160
3140
3980
1990
0E90
00E0
ENDCHAR
STARTCHAR 0052
ENCODING 82
SWIDTH 500 0
DWIDTH 14 0
BBX 12 19 1 2
BITMAP
FF00
21C0
20C0
2060
2060
2060
2060
20C0
2180
3F00
2600
2300
2300
2180
2180
20C0
20C0
2060
F870
ENDCHAR
STARTCHAR 0053
ENCODING 83
SWIDTH 500 0
DWIDTH 14 0
BBX 10 21 2 0
BITMAP
3E80
4380
C180
C080
C080
C000
6000
7000
3800
1C00
0700
0380
0180
80C0
80C0
80C0
80C0
C0C0
E080
B180
0E00
ENDCHAR
STARTCHAR 0054
ENCODING 84
SWIDTH 500 0
DWIDTH 14 0
BBX 12 19 1 2
BITMAP
FFF0
C630
C630
8610
8610
0600
0600
0600
0600
0600
0600
0600
0600
0600
0600
0600
0600
0600
1F80
ENDCHAR
STARTCHAR 0055
ENCODING 85
SWIDTH 500 0
DWIDTH 14 0
BBX 14 21 0 0
BITMAP
FC7C
3010
3010
3010
3010
3010
3010
3010
3010
3010
3010
3010
3010
3010
3010
3010
3010
1020
1820
0C40
0780
ENDCHAR
STARTCHAR 0056
ENCODING 86
SWIDTH 500 0
DWIDTH 14 0
BBX 13 20 1 1
BITMAP
F8F8
6020
6020
2020
3040
3040
3040
1040
1880
1880
1880
0880
0D00
0D00
0D00
0600
0600
0600
0600
0400
ENDCHAR
STARTCHAR 0057
ENCODING 87
SWIDTH 500 0
DWIDTH 14 0
BBX 14 20 0 1
BITMAP
F7BC
6308
6110
2310
2310
2390
3390
3390
3490
3490
14A0
14E0
14E0
14E0
1C60
1860
1860
0840
0840
0840
ENDCHAR
STARTCHAR 0058
ENCODING 88
SWIDTH 500 0
DWIDTH 14 0
BBX 13 19 1 2
BITMAP
F9F0
7040
3040
1080
1880
0900
0D00
0E00
0600
0600
0700
0B00
0980
1180
10C0
20C0
2040
4060
F1F8
ENDCHAR
STARTCHAR 0059
ENCODING 89
SWIDTH 500 0
DWIDTH 14 0
BBX 14 19 0 2
BITMAP
FC7C
3010
3020
1820
1820
0840
0C40
0C80
0680
0680
0300
0300
0300
0300
0300
0300
0300
0300
0FC0
ENDCHAR
STARTCHAR 005A
ENCODING 90
SWIDTH 500 0
DWIDTH 14 0
BBX 10 19 2 2
BITMAP
FFC0
C0C0
8180
8180
8300
0300
0600
0600
0C00
0C00
1800
1800
3000
3040
6040
6040
C040
C0C0
FFC0
ENDCHAR
STARTCHAR 005B
ENCODING 91
SWIDTH 500 0
DWIDTH 14 0
BBX 7 25 5 -2
BITMAP
FE
80
80
80
80
80
80
80
80
80
80
80
80
80
80
80
80
80
80
80
80
80
80
80
FE
ENDCHAR
STARTCHAR 005C
ENCODING 92
SWIDTH 500 0
DWIDTH 14 0
BBX 14 19 0 2
BITMAP
F87C
3010
3010
1820
1820
0840
0C40
7FF8
0480
0680
0300
0300
7FF8
0300
0300
0300
0300
0300
0FC0
ENDCHAR
STARTCHAR 005D
ENCODING 93
SWIDTH 500 0
DWIDTH 14 0
BBX 7 25 2 -2
BITMAP
FE
02
02
02
02
02
02
02
02
02
02
02
02
02
02
02
02
02
02
02
02
02
02
02
FE
ENDCHAR
STARTCHAR 005E
ENCODING 94
SWIDTH 500 0
DWIDTH 14 0
BBX 10 3 2 18
BITMAP
1E00
3300
C0C0
ENDCHAR
STARTCHAR 005F
ENCODING 95
SWIDTH 500 0
DWIDTH 14 0
BBX 0 0 0 -3
BITMAP
ENDCHAR
STARTCHAR 0060
ENCODING 96
SWIDTH 500 0
DWIDTH 14 0
BBX 9 3 2 18
BITMAP
F800
0E00
0380
ENDCHAR
STARTCHAR 0061
ENCODING 97
SWIDTH 500 0
DWIDTH 14 0
BBX 11 15 2 0
BITMAP
3E00
6300
E100
6180
0180
0780
1980
6180
C180
C180
C180
C1A0
C3A0
C4A0
38C0
ENDCHAR
STARTCHAR 0062
ENCODING 98
SWIDTH 500 0
DWIDTH 14 0
BBX 11 22 1 0
BITMAP
3000
F000
3000
3000
3000
3000
3000
3700
38C0
30C0
3060
3060
3060
3020
3020
3060
3060
3060
3060
30C0
28C0
0700
ENDCHAR
STARTCHAR 0063
ENCODING 99
SWIDTH 500 0
DWIDTH 14 0
BBX 10 15 2 0
BITMAP
1F00
3080
61C0
61C0
C000
C000
C000
C000
C000
C000
4040
6040
6080
3180
0E00
ENDCHAR
STARTCHAR 0064
ENCODING 100
SWIDTH 500 0
DWIDTH 14 0
BBX 11 22 2 0
BITMAP
0080
0380
0080
0080
0080
0080
0080
1E80
7180
6080
C080
C080
C080
C080
C080
C080
C080
C080
C180
6180
32E0
1C00
ENDCHAR
STARTCHAR 0065
ENCODING 101
SWIDTH 500 0
DWIDTH 14 0
BBX 10 15 2 0
BITMAP
1E00
3100
6180
4080
C0C0
C0C0
FFC0
C000
C000
C000
C040
4080
6080
3100
1E00
ENDCHAR
STARTCHAR 0066
ENCODING 102
SWIDTH 500 0
DWIDTH 14 0
BBX 10 19 2 2
BITMAP
0780
0CC0
18C0
1800
1800
1800
FF00
1800
1800
1800
1800
1800
1800
1800
1800
1800
1800
1800
7E00
ENDCHAR
STARTCHAR 0067
ENCODING 103
SWIDTH 500 0
DWIDTH 14 0
BBX 13 18 1 -3
BITMAP
1F70
31B8
60C0
60C0
60C0
60C0
3180
1F00
6000
6000
3E00
27C0
4060
C030
C030
C030
6060
1F80
ENDCHAR
STARTCHAR 0068
ENCODING 104
SWIDTH 500 0
DWIDTH 14 0
BBX 12 20 1 2
BITMAP
2000
E000
2000
2000
2000
2000
2000
2780
38C0
2040
2040
2040
2040
2040
2040
2040
2040
2040
2060
F9F0
ENDCHAR
STARTCHAR 0069
ENCODING 105
SWIDTH 500 0
DWIDTH 14 0
BBX 6 19 4 2
BITMAP
30
30
30
00
00
00
F0
30
30
30
30
30
30
30
30
30
30
30
7C
ENDCHAR
STARTCHAR 006A
ENCODING 106
SWIDTH 500 0
DWIDTH 14 0
BBX 8 24 2 -3
BITMAP
07
07
07
00
00
00
06
0E
02
02
02
02
02
02
02
02
02
02
02
C2
E2
C2
46
3C
ENDCHAR
STARTCHAR 006B
ENCODING 107
SWIDTH 500 0
DWIDTH 14 0
BBX 12 20 1 2
BITMAP
2000
E000
2000
2000
2000
2000
2000
23E0
2180
2100
2200
2400
2E00
3200
2300
2180
2080
20C0
2060
F9F0
ENDCHAR
STARTCHAR 006C
ENCODING 108
SWIDTH 500 0
DWIDTH 14 0
BBX 6 20 4 2
BITMAP
30
F0
30
30
30
30
30
30
30
30
30
30
30
30
30
30
30
30
30
FC
ENDCHAR
STARTCHAR 006D
ENCODING 109
SWIDTH 500 0
DWIDTH 14 0
BBX 14 14 0 2
BITMAP
2000
EEF0
3390
2310
2310
2310
2310
2310
2310
2310
2310
2310
2318
F7BC
ENDCHAR
STARTCHAR 006E
ENCODING 110
SWIDTH 500 0
DWIDTH 14 0
BBX 12 14 1 2
BITMAP
2000
E780
38C0
3040
2040
2040
2040
2040
2040
2040
2040
2040
2060
F9F0
ENDCHAR
STARTCHAR 006F
ENCODING 111
SWIDTH 500 0
DWIDTH 14 0
BBX 10 15 2 0
BITMAP
1E00
7300
6180
C080
C0C0
C0C0
C0C0
C0C0
C0C0
C0C0
C0C0
40C0
6180
2300
1E00
ENDCHAR
STARTCHAR 0070
ENCODING 112
SWIDTH 500 0
DWIDTH 14 0
BBX 11 19 1 -3
BITMAP
1000
F780
38C0
3040
3060
3060
3020
3020
3020
3060
3060
3040
38C0
3780
3000
3000
3000
3000
FC00
ENDCHAR
STARTCHAR 0071
ENCODING 113
SWIDTH 500 0
DWIDTH 14 0
BBX 11 19 2 -3
BITMAP
0080
1E80
7180
6080
C080
C080
C080
C080
C080
C080
C080
6180
6380
1C80
0080
0080
0080
0180
03E0
ENDCHAR
STARTCHAR 0072
ENCODING 114
SWIDTH 500 0
DWIDTH 14 0
BBX 9 14 3 2
BITMAP
2000
E780
6980
3000
2000
2000
2000
2000
2000
2000
2000
2000
6000
F800
ENDCHAR
STARTCHAR 0073
ENCODING 115
SWIDTH 500 0
DWIDTH 14 0
BBX 9 15 3 0
BITMAP
3D00
C700
8100
8100
C000
6000
3800
0C00
0300
8100
8180
8180
C380
E700
1E00
ENDCHAR
STARTCHAR 0074
ENCODING 116
SWIDTH 500 0
DWIDTH 14 0
BBX 10 19 2 0
BITMAP
0800
0800
1800
3800
FF80
1800
1800
1800
1800
1800
1800
1800
1800
1800
1800
1840
1880
0900
0E00
ENDCHAR
STARTCHAR 0075
ENCODING 117
SWIDTH 500 0
DWIDTH 14 0
BBX 12 16 1 0
BITMAP
2040
E1C0
2040
2040
2040
2040
2040
2040
2040
2040
2040
2040
2040
30C0
1170
0E00
ENDCHAR
STARTCHAR 0076
ENCODING 118
SWIDTH 500 0
DWIDTH 14 0
BBX 12 14 1 1
BITMAP
F8F0
6060
2040
3040
3040
1080
1880
1880
0900
0D00
0D00
0600
0600
0400
ENDCHAR
STARTCHAR 0077
ENCODING 119
SWIDTH 500 0
DWIDTH 14 0
BBX 14 14 0 1
BITMAP
F7BC
6108
2110
2110
3390
3390
3290
14A0
14A0
1CE0
1CE0
0840
0840
0840
ENDCHAR
STARTCHAR 0078
ENCODING 120
SWIDTH 500 0
DWIDTH 14 0
BBX 12 13 1 2
BITMAP
F9E0
30C0
1080
1900
0D00
0600
0600
0B00
0980
1180
20C0
6060
F9F0
ENDCHAR
STARTCHAR 0079
ENCODING 121
SWIDTH 500 0
DWIDTH 14 0
BBX 13 18 1 -3
BITMAP
F8F8
6020
3060
3040
1040
1880
1880
0C80
0D00
0500
0700
0200
0200
0200
0400
6400
C800
7000
ENDCHAR
STARTCHAR 007A
ENCODING 122
SWIDTH 500 0
DWIDTH 14 0
BBX 10 13 2 2
BITMAP
7FC0
4180
4100
8300
0600
0400
0C00
1800
3040
3040
6040
C0C0
FFC0
ENDCHAR
STARTCHAR 007B
ENCODING 123
SWIDTH 500 0
DWIDTH 14 0
BBX 7 26 4 -2
BITMAP
02
06
08
18
10
10
10
10
10
10
10
30
20
C0
20
10
10
10
10
10
10
10
18
18
0C
06
ENDCHAR
STARTCHAR 007C
ENCODING 124
SWIDTH 500 0
DWIDTH 14 0
BBX 2 28 6 -3
BITMAP
C0
C0
C0
C0
C0
C0
C0
C0
C0
C0
C0
C0
C0
C0
C0
C0
C0
C0
C0
C0
C0
C0
C0
C0
C0
C0
C0
C0
ENDCHAR
STARTCHAR 007D
ENCODING 125
SWIDTH 500 0
DWIDTH 14 0
BBX 7 26 3 -2
BITMAP
80
C0
20
30
10
10
10
10
10
10
10
18
08
06
08
10
10
10
10
10
10
10
30
30
60
C0
ENDCHAR
STARTCHAR 007E
ENCODING 126
SWIDTH 500 0
DWIDTH 14 0
BBX 10 3 2 18
BITMAP
3840
4C80
8700
ENDCHAR
STARTCHAR 00A0
ENCODING 160
SWIDTH 500 0
DWIDTH 14 0
BBX 0 0 0 0
BITMAP
ENDCHAR
STARTCHAR 00A1
ENCODING 161
SWIDTH 500 0
DWIDTH 14 0
BBX 4 23 5 -1
BITMAP
60
F0
60
00
00
00
40
40
60
60
60
60
60
60
60
60
60
60
60
60
60
60
60
ENDCHAR
STARTCHAR 00A2
ENCODING 162
SWIDTH 1000 0
DWIDTH 28 0
BBX 12 20 8 1
BITMAP
00C0
0080
0080
0FC0
3960
6170
6270
C260
C200
C600
C400
C400
CC10
6810
7820
3860
1F80
1000
1000
2000
ENDCHAR
STARTCHAR 00A3
ENCODING 163
SWIDTH 1000 0
DWIDTH 28 0
BBX 17 20 6 1
BITMAP
01F000
070C00
060C00
0C0E00
0C0C00
0C0000
0C0000
0C0000
060000
7FF000
060000
030000
030000
030000
790000
C70000
838180
83E100
467F00
3C1E00
ENDCHAR
STARTCHAR 00A4
ENCODING 164
SWIDTH 500 0
DWIDTH 14 0
BBX 10 10 2 6
BITMAP
8040
5E80
3100
4080
4080
4080
4080
2100
5E80
8040
ENDCHAR
STARTCHAR 00A5
ENCODING 165
SWIDTH 1000 0
DWIDTH 28 0
BBX 20 19 4 2
BITMAP
FF07F0
380180
180100
0C0300
060200
060400
030C00
3FFFC0
019000
00D000
00E000
006000
3FFFC0
006000
006000
006000
006000
006000
01F800
ENDCHAR
STARTCHAR 00A6
ENCODING 166
SWIDTH 500 0
DWIDTH 14 0
BBX 2 25 6 -2
BITMAP
C0
C0
C0
C0
C0
C0
C0
C0
C0
C0
C0
00
00
00
C0
C0
C0
C0
C0
C0
C0
C0
C0
C0
C0
ENDCHAR
STARTCHAR 00A7
ENCODING 167
SWIDTH 1000 0
DWIDTH 28 0
BBX 12 25 8 -2
BITMAP
0F80
30E0
6060
4070
4060
6000
7000
3800
1F00
63C0
40E0
C060
C030
6030
3830
1E20
07C0
01C0
0060
E030
E030
E030
6020
70C0
1F80
ENDCHAR
STARTCHAR 00A8
ENCODING 168
SWIDTH 1000 0
DWIDTH 28 0
BBX 12 3 8 18
BITMAP
6060
F0F0
6060
ENDCHAR
STARTCHAR 00A9
ENCODING 169
SWIDTH 500 0
DWIDTH 14 0
BBX 12 12 1 5
BITMAP
0F00
30C0
4FA0
9090
B090
B010
B010
B090
9890
4F20
20C0
1F80
ENDCHAR
STARTCHAR 00AA
ENCODING 170
SWIDTH 500 0
DWIDTH 14 0
BBX 9 11 1 10
BITMAP
7C00
4400
4600
3E00
4600
C600
C700
7B80
0000
0000
FF00
ENDCHAR
STARTCHAR 00AB
ENCODING 171
SWIDTH 500 0
DWIDTH 14 0
BBX 9 12 4 2
BITMAP
0D80
1200
3600
2400
4800
9000
9000
4800
2400
3600
1200
0D80
ENDCHAR
STARTCHAR 00AC
ENCODING 172
SWIDTH 1000 0
DWIDTH 28 0
BBX 23 11 2 5
BITMAP
FFFFFE
000002
000002
000002
000002
000002
000002
000002
000002
000002
000002
ENDCHAR
STARTCHAR 00AD
ENCODING 173
SWIDTH 500 0
DWIDTH 14 0
BBX 12 1 1 10
BITMAP
FFF0
ENDCHAR
STARTCHAR 00AE
ENCODING 174
SWIDTH 500 0
DWIDTH 14 0
BBX 12 13 1 4
BITMAP
0F00
30C0
7F20
9090
90D0
9090
9F10
9210
9110
9190
78E0
2040
1F80
ENDCHAR
STARTCHAR 00AF
ENCODING 175
SWIDTH 500 0
DWIDTH 14 0
BBX 10 1 2 19
BITMAP
FFC0
ENDCHAR
STARTCHAR 00B0
ENCODING 176
SWIDTH 1000 0
DWIDTH 28 0
BBX 6 5 1 18
BITMAP
78
44
84
C4
78
ENDCHAR
STARTCHAR 00B1
ENCODING 177
SWIDTH 1000 0
DWIDTH 28 0
BBX 20 19 4 2
BITMAP
006000
006000
006000
006000
006000
006000
006000
FFFFF0
006000
006000
006000
006000
006000
006000
006000
000000
000000
000000
FFFFF0
ENDCHAR
STARTCHAR 00B2
ENCODING 178
SWIDTH 500 0
DWIDTH 14 0
BBX 6 10 2 14
BITMAP
78
CC
CC
0C
08
10
20
44
84
FC
ENDCHAR
STARTCHAR 00B3
ENCODING 179
SWIDTH 500 0
DWIDTH 14 0
BBX 6 11 2 13
BITMAP
78
88
CC
0C
08
30
08
04
84
C4
78
ENDCHAR
STARTCHAR 00B4
ENCODING 180
SWIDTH 1000 0
DWIDTH 28 0
BBX 8 3 11 18
BITMAP
1F
70
C0
ENDCHAR
STARTCHAR 00B6
ENCODING 182
SWIDTH 1000 0
DWIDTH 28 0
BBX 11 25 7 -2
BITMAP
1FE0
7C20
7C20
FC20
FC20
FC20
FC20
7C20
3C20
0C20
0420
0420
0420
0420
0420
0420
0420
0420
0420
0420
0420
0420
0420
0420
0420
ENDCHAR
STARTCHAR 00B7
ENCODING 183
SWIDTH 500 0
DWIDTH 14 0
BBX 4 4 5 9
BITMAP
60
F0
F0
70
ENDCHAR
STARTCHAR 00B8
ENCODING 184
SWIDTH 500 0
DWIDTH 14 0
BBX 6 6 4 -1
BITMAP
60
40
7C
84
0C
FC
ENDCHAR
STARTCHAR 00B9
ENCODING 185
SWIDTH 500 0
DWIDTH 14 0
BBX 4 10 3 14
BITMAP
E0
60
20
20
20
20
20
20
60
F0
ENDCHAR
STARTCHAR 00BA
ENCODING 186
SWIDTH 500 0
DWIDTH 14 0
BBX 8 11 1 10
BITMAP
3C
42
43
C3
C3
43
42
24
18
00
FF
ENDCHAR
STARTCHAR 00BB
ENCODING 187
SWIDTH 500 0
DWIDTH 14 0
BBX 9 12 1 2
BITMAP
D800
2400
3600
1200
0900
0480
0480
0900
1200
3600
2400
D800
ENDCHAR
STARTCHAR 00BC
ENCODING 188
SWIDTH 500 0
DWIDTH 14 0
BBX 12 26 1 -2
BITMAP
2020
E030
6020
2060
2040
2040
2080
2080
2100
2100
2300
6200
F200
0440
0440
08C0
0940
1940
1240
1240
2440
2440
6FF0
4040
4060
80F0
ENDCHAR
STARTCHAR 00BD
ENCODING 189
SWIDTH 500 0
DWIDTH 14 0
BBX 12 26 1 -2
BITMAP
2020
E030
6020
2060
2040
2040
2080
2080
2100
2100
2300
6200
F200
04C0
0520
0B30
0930
0830
1020
1020
2040
20C0
6090
4110
4110
83F0
ENDCHAR
STARTCHAR 00BE
ENCODING 190
SWIDTH 500 0
DWIDTH 14 0
BBX 12 26 1 -2
BITMAP
7000
4810
C820
CC20
0840
0840
30C0
0880
0480
C500
CD00
8E00
7A00
0640
0440
04C0
0940
0940
1240
1240
1440
2440
2FF0
4040
4060
C0F0
ENDCHAR
STARTCHAR 00BF
ENCODING 191
SWIDTH 500 0
DWIDTH 14 0
BBX 12 23 1 -1
BITMAP
0600
0F00
0600
0000
0000
0400
0400
0400
0400
0400
0400
0C00
1800
3000
3000
6000
60E0
C0E0
C030
6020
6060
30C0
1F00
ENDCHAR
STARTCHAR 00C0
ENCODING 192
SWIDTH 500 0
DWIDTH 14 0
BBX 14 22 0 2
BITMAP
1E00
0100
0280
0300
0300
0300
0500
0580
0580
0480
0880
08C0
08C0
08C0
1FC0
1060
1060
1060
2030
2030
2030
F8FC
ENDCHAR
STARTCHAR 00C1
ENCODING 193
SWIDTH 500 0
DWIDTH 14 0
BBX 14 22 0 2
BITMAP
01E0
0200
0600
0300
0300
0300
0500
0580
0580
0480
0880
08C0
08C0
08C0
1FC0
1060
1060
1060
2030
2030
2030
F8FC
ENDCHAR
STARTCHAR 00C2
ENCODING 194
SWIDTH 500 0
DWIDTH 14 0
BBX 14 22 0 2
BITMAP
0300
0CC0
0200
0300
0300
0300
0500
0580
0580
0480
0880
08C0
08C0
08C0
1FC0
1060
1060
1060
2030
2030
2030
F8FC
ENDCHAR
STARTCHAR 00C3
ENCODING 195
SWIDTH 500 0
DWIDTH 14 0
BBX 14 23 0 2
BITMAP
0E00
0B60
11C0
0200
0300
0300
0300
0500
0580
0580
0480
0880
08C0
08C0
08C0
1FE0
1060
1060
1060
2030
2030
2030
F8FC
ENDCHAR
STARTCHAR 00C4
ENCODING 196
SWIDTH 500 0
DWIDTH 14 0
BBX 14 22 0 2
BITMAP
1860
1CE0
0200
0300
0300
0300
0500
0580
0580
0480
0880
08C0
08C0
08C0
1FE0
1060
1060
1060
2030
2030
2030
F8FC
ENDCHAR
STARTCHAR 00C5
ENCODING 197
SWIDTH 500 0
DWIDTH 14 0
BBX 14 23 0 2
BITMAP
0300
0480
0480
0480
0300
0300
0300
0500
0580
0580
0480
0880
08C0
08C0
08C0
1FC0
1060
1060
1060
2020
2030
2030
F8FC
ENDCHAR
STARTCHAR 00C6
ENCODING 198
SWIDTH 500 0
DWIDTH 14 0
BBX 13 19 0 2
BITMAP
03F8
0398
0388
0388
0588
0580
0590
0990
09B0
09F0
09B0
1F90
1180
1180
2180
2188
2188
6198
F7F8
ENDCHAR
STARTCHAR 00C7
ENCODING 199
SWIDTH 500 0
DWIDTH 14 0
BBX 10 24 2 -3
BITMAP
0F40
31C0
20C0
40C0
4040
C040
C000
C000
C000
C000
C000
C000
C000
C040
C040
C040
4040
6080
2080
1100
0E00
1F00
0300
1E00
ENDCHAR
STARTCHAR 00C8
ENCODING 200
SWIDTH 500 0
DWIDTH 14 0
BBX 11 22 1 2
BITMAP
3C00
0200
0100
FFE0
3060
2020
2020
2020
2000
2080
2080
2080
3F80
2080
2080
2080
2000
2020
2020
2020
3060
FFE0
ENDCHAR
STARTCHAR 00C9
ENCODING 201
SWIDTH 500 0
DWIDTH 14 0
BBX 11 22 1 2
BITMAP
03C0
0400
0800
FFE0
3060
2020
2020
2020
2000
2080
2080
2080
3F80
2080
2080
2080
2000
2020
2020
2020
3060
FFE0
ENDCHAR
STARTCHAR 00CA
ENCODING 202
SWIDTH 500 0
DWIDTH 14 0
BBX 11 22 1 2
BITMAP
0600
1980
0000
FFE0
3060
2020
2020
2020
2000
2080
2080
2080
3F80
2080
2080
2080
2000
2020
2020
2020
3060
FFE0
ENDCHAR
STARTCHAR 00CB
ENCODING 203
SWIDTH 500 0
DWIDTH 14 0
BBX 11 22 1 2
BITMAP
30C0
39C0
0000
FFE0
3060
2020
2020
2020
2000
2080
2080
2080
3F80
2080
2080
2080
2000
2020
2020
2020
3060
FFE0
ENDCHAR
STARTCHAR 00CC
ENCODING 204
SWIDTH 500 0
DWIDTH 14 0
BBX 7 22 3 2
BITMAP
F0
08
04
7E
18
18
18
18
18
18
18
18
18
18
18
18
18
18
18
18
18
7E
ENDCHAR
STARTCHAR 00CD
ENCODING 205
SWIDTH 500 0
DWIDTH 14 0
BBX 7 22 4 2
BITMAP
1E
20
40
FC
30
30
30
30
30
30
30
30
30
30
30
30
30
30
30
30
30
FC
ENDCHAR
STARTCHAR 00CE
ENCODING 206
SWIDTH 500 0
DWIDTH 14 0
BBX 6 22 4 2
BITMAP
30
CC
00
FC
30
30
30
30
30
30
30
30
30
30
30
30
30
30
30
30
30
FC
ENDCHAR
STARTCHAR 00CF
ENCODING 207
SWIDTH 500 0
DWIDTH 14 0
BBX 8 22 3 2
BITMAP
C3
E7
00
7E
18
18
18
18
18
18
18
18
18
18
18
18
18
18
18
18
18
7E
ENDCHAR
STARTCHAR 00D0
ENCODING 208
SWIDTH 500 0
DWIDTH 14 0
BBX 12 19 1 2
BITMAP
FE00
3180
20C0
2060
2060
2060
2020
2030
2030
FC30
2030
2030
2020
2060
2060
2040
20C0
3180
FE00
ENDCHAR
STARTCHAR 00D1
ENCODING 209
SWIDTH 500 0
DWIDTH 14 0
BBX 12 23 1 1
BITMAP
1C40
2380
0000
E0F0
7060
5020
5820
5820
4C20
4C20
4420
4620
4220
4320
4320
41A0
41A0
40A0
40E0
4060
6060
F060
0020
ENDCHAR
STARTCHAR 00D2
ENCODING 210
SWIDTH 500 0
DWIDTH 14 0
BBX 12 24 1 0
BITMAP
3C00
0200
0100
0F00
1880
3040
2040
6060
6060
6060
4020
C020
C030
C030
C030
C030
4060
6060
6060
6060
2040
30C0
1980
0F00
ENDCHAR
STARTCHAR 00D3
ENCODING 211
SWIDTH 500 0
DWIDTH 14 0
BBX 12 24 1 0
BITMAP
03C0
0400
0800
0F00
1880
3040
2040
6060
6060
6060
4020
C020
C030
C030
C030
C030
4060
6060
6060
6060
2040
30C0
1980
0F00
ENDCHAR
STARTCHAR 00D4
ENCODING 212
SWIDTH 500 0
DWIDTH 14 0
BBX 12 24 1 0
BITMAP
0600
1980
0000
0F00
1880
3040
2040
6060
6060
6060
4020
C020
C030
C030
C030
C030
4060
6060
6060
6060
2040
30C0
1980
0F00
ENDCHAR
STARTCHAR 00D5
ENCODING 213
SWIDTH 500 0
DWIDTH 14 0
BBX 12 24 1 0
BITMAP
1C40
2380
0000
0F00
1880
3040
2040
6060
6060
6060
4020
C020
C030
C030
C030
C030
4060
6060
6060
6060
2040
30C0
1980
0F00
ENDCHAR
STARTCHAR 00D6
ENCODING 214
SWIDTH 500 0
DWIDTH 14 0
BBX 12 24 1 0
BITMAP
30C0
39C0
0000
0F00
1880
3040
2040
6060
6060
6060
4020
C020
C030
C030
C030
C030
4060
6060
6060
6060
2040
30C0
1980
0F00
ENDCHAR
STARTCHAR 00D7
ENCODING 215
SWIDTH 1000 0
DWIDTH 28 0
BBX 16 17 6 2
BITMAP
8001
C003
6006
300C
1818
0C30
0660
03C0
0180
03C0
0660
0C30
1818
300C
6006
C003
8001
ENDCHAR
STARTCHAR 00D8
ENCODING 216
SWIDTH 500 0
DWIDTH 14 0
BBX 12 22 1 0
BITMAP
0030
0F20
18C0
30C0
20E0
60E0
6160
6160
4120
C220
C230
C430
C430
4820
6860
7060
7060
6060
2040
50C0
5980
8F00
ENDCHAR
STARTCHAR 00D9
ENCODING 217
SWIDTH 500 0
DWIDTH 14 0
BBX 14 24 0 0
BITMAP
1E00
0100
0080
FC7C
3010
3010
3010
3010
3010
3010
3010
3010
3010
3010
3010
3010
3010
3010
3010
3010
1020
1820
0C40
0780
ENDCHAR
STARTCHAR 00DA
ENCODING 218
SWIDTH 500 0
DWIDTH 14 0
BBX 14 24 0 0
BITMAP
01E0
0200
0400
FC7C
3010
3010
3010
3010
3010
3010
3010
3010
3010
3010
3010
3010
3010
3010
3010
3010
1020
1820
0C40
0780
ENDCHAR
STARTCHAR 00DB
ENCODING 219
SWIDTH 500 0
DWIDTH 14 0
BBX 14 24 0 0
BITMAP
0300
0CC0
0000
FC7C
3010
3010
3010
3010
3010
3010
3010
3010
3010
3010
3010
3010
3010
3010
3010
3010
1020
1820
0C40
0780
ENDCHAR
STARTCHAR 00DC
ENCODING 220
SWIDTH 500 0
DWIDTH 14 0
BBX 14 24 0 0
BITMAP
1C60
1C60
0000
FC7C
3010
3010
3010
3010
3010
3010
3010
3010
3010
3010
3010
3010
3010
3010
3010
3010
1020
1820
0C40
0780
ENDCHAR
STARTCHAR 00DD
ENCODING 221
SWIDTH 500 0
DWIDTH 14 0
BBX 14 22 0 2
BITMAP
01E0
0200
0400
FC7C
3010
3020
1820
1820
0840
0C40
0C80
0680
0680
0300
0300
0300
0300
0300
0300
0300
0300
0FC0
ENDCHAR
STARTCHAR 00DE
ENCODING 222
SWIDTH 500 0
DWIDTH 14 0
BBX 12 19 1 2
BITMAP
FC00
3000
2000
2000
3F80
20C0
2060
2030
2030
2030
2030
2030
2060
20C0
3F80
2000
2000
3000
FC00
ENDCHAR
STARTCHAR 00DF
ENCODING 223
SWIDTH 500 0
DWIDTH 14 0
BBX 11 21 1 0
BITMAP
0F00
1180
30C0
20C0
20C0
20C0
20C0
2180
2E00
2180
20C0
2060
2060
2060
2060
2060
2C60
2C60
EC40
0CC0
0780
ENDCHAR
STARTCHAR 00E0
ENCODING 224
SWIDTH 500 0
DWIDTH 14 0
BBX 11 19 2 0
BITMAP
7800
0400
0200
0000
3E00
6300
E100
6180
0180
0780
1980
6180
C180
C180
C180
C1A0
C3A0
C4A0
38C0
ENDCHAR
STARTCHAR 00E1
ENCODING 225
SWIDTH 500 0
DWIDTH 14 0
BBX 11 19 2 0
BITMAP
0780
0800
1000
0000
3E00
6300
E100
6180
0180
0780
1980
6180
C180
C180
C180
C1A0
C3A0
C4A0
38C0
ENDCHAR
STARTCHAR 00E2
ENCODING 226
SWIDTH 500 0
DWIDTH 14 0
BBX 11 19 2 0
BITMAP
0C00
3300
0000
0000
3E00
6300
E100
6180
0180
0780
1980
6180
C180
C180
C180
C1A0
C3A0
C4A0
38C0
ENDCHAR
STARTCHAR 00E3
ENCODING 227
SWIDTH 500 0
DWIDTH 14 0
BBX 11 19 2 0
BITMAP
3880
4700
0000
0000
3E00
6300
E100
6180
0180
0780
1980
6180
C180
C180
C180
C1A0
C3A0
C4A0
38C0
ENDCHAR
STARTCHAR 00E4
ENCODING 228
SWIDTH 500 0
DWIDTH 14 0
BBX 11 19 2 0
BITMAP
6180
7380
0000
0000
3E00
6300
E100
6180
0180
0780
1980
6180
C180
C180
C180
C1A0
C3A0
C4A0
38C0
ENDCHAR
STARTCHAR 00E5
ENCODING 229
SWIDTH 500 0
DWIDTH 14 0
BBX 11 20 2 0
BITMAP
1E00
1200
1400
0800
0000
3E00
6300
E100
6180
0180
0780
1980
6180
C180
C180
C180
C1A0
C3A0
C4A0
38C0
ENDCHAR
STARTCHAR 00E6
ENCODING 230
SWIDTH 500 0
DWIDTH 14 0
BBX 10 15 2 0
BITMAP
7380
CE80
CCC0
CC40
0C40
0C40
1FC0
6C00
CC00
8C00
8C40
8C40
8C40
D680
7380
ENDCHAR
STARTCHAR 00E7
ENCODING 231
SWIDTH 500 0
DWIDTH 14 0
BBX 10 18 2 -3
BITMAP
1F00
3080
61C0
61C0
C000
C000
C000
C000
C000
C000
4040
6040
2080
1180
0E00
1F00
0300
1E00
ENDCHAR
STARTCHAR 00E8
ENCODING 232
SWIDTH 500 0
DWIDTH 14 0
BBX 10 19 2 0
BITMAP
7800
0400
0200
0000
1E00
3100
6180
4080
C0C0
C0C0
FFC0
C000
C000
C000
C040
4080
6080
3100
1E00
ENDCHAR
STARTCHAR 00E9
ENCODING 233
SWIDTH 500 0
DWIDTH 14 0
BBX 10 19 2 0
BITMAP
0780
0800
1000
0000
1E00
3100
6180
4080
C0C0
C0C0
FFC0
C000
C000
C000
C040
4080
6080
3100
1E00
ENDCHAR
STARTCHAR 00EA
ENCODING 234
SWIDTH 500 0
DWIDTH 14 0
BBX 10 19 2 0
BITMAP
0C00
3300
0000
0000
1E00
3100
6180
4080
C0C0
C0C0
FFC0
C000
C000
C000
C040
4080
6080
3100
1E00
ENDCHAR
STARTCHAR 00EB
ENCODING 235
SWIDTH 500 0
DWIDTH 14 0
BBX 10 19 2 0
BITMAP
6180
7380
0000
0000
1E00
3100
6180
4080
C0C0
C0C0
FFC0
C000
C000
C000
C040
4080
6080
3100
1E00
ENDCHAR
STARTCHAR 00EC
ENCODING 236
SWIDTH 500 0
DWIDTH 14 0
BBX 7 17 3 2
BITMAP
F0
08
04
08
78
18
18
18
18
18
18
18
18
18
18
18
3E
ENDCHAR
STARTCHAR 00ED
ENCODING 237
SWIDTH 500 0
DWIDTH 14 0
BBX 7 17 4 2
BITMAP
1E
60
00
10
F0
30
30
30
30
30
30
30
30
30
30
30
7C
ENDCHAR
STARTCHAR 00EE
ENCODING 238
SWIDTH 500 0
DWIDTH 14 0
BBX 6 17 4 2
BITMAP
30
CC
00
10
F0
30
30
30
30
30
30
30
30
30
30
30
7C
ENDCHAR
STARTCHAR 00EF
ENCODING 239
SWIDTH 500 0
DWIDTH 14 0
BBX 8 17 3 2
BITMAP
C3
E7
00
08
78
18
18
18
18
18
18
18
18
18
18
18
3E
ENDCHAR
STARTCHAR 00F0
ENCODING 240
SWIDTH 500 0
DWIDTH 14 0
BBX 10 22 2 0
BITMAP
4300
3400
0800
3400
4200
0300
0100
1F80
2380
6180
C0C0
C0C0
C0C0
C0C0
80C0
80C0
C0C0
C0C0
C180
6180
2300
1E00
ENDCHAR
STARTCHAR 00F1
ENCODING 241
SWIDTH 500 0
DWIDTH 14 0
BBX 12 17 1 2
BITMAP
1C40
2380
0000
2000
E780
38C0
3040
2040
2040
2040
2040
2040
2040
2040
2040
2060
F9F0
ENDCHAR
STARTCHAR 00F2
ENCODING 242
SWIDTH 500 0
DWIDTH 14 0
BBX 10 19 2 0
BITMAP
7800
0400
0200
0000
1E00
7300
6180
C080
C0C0
C0C0
C0C0
C0C0
C0C0
C0C0
C0C0
40C0
6180
2300
1E00
ENDCHAR
STARTCHAR 00F3
ENCODING 243
SWIDTH 500 0
DWIDTH 14 0
BBX 10 19 2 0
BITMAP
0780
0800
1000
0000
1E00
7300
6180
C080
C0C0
C0C0
C0C0
C0C0
C0C0
C0C0
C0C0
40C0
6180
2300
1E00
ENDCHAR
STARTCHAR 00F4
ENCODING 244
SWIDTH 500 0
DWIDTH 14 0
BBX 10 19 2 0
BITMAP
0C00
3300
0000
0000
1E00
7300
6180
C080
C0C0
C0C0
C0C0
C0C0
C0C0
C0C0
C0C0
40C0
6180
2300
1E00
ENDCHAR
STARTCHAR 00F5
ENCODING 245
SWIDTH 500 0
DWIDTH 14 0
BBX 10 19 2 0
BITMAP
3880
4700
0000
0000
1E00
7300
6180
C080
C0C0
C0C0
C0C0
C0C0
C0C0
C0C0
C0C0
40C0
6180
2300
1E00
ENDCHAR
STARTCHAR 00F6
ENCODING 246
SWIDTH 500 0
DWIDTH 14 0
BBX 10 19 2 0
BITMAP
6180
7380
0000
0000
1E00
7300
6180
C080
C0C0
C0C0
C0C0
C0C0
C0C0
C0C0
C0C0
40C0
6180
2300
1E00
ENDCHAR
STARTCHAR 00F7
ENCODING 247
SWIDTH 1000 0
DWIDTH 28 0
BBX 20 14 4 3
BITMAP
006000
00F000
006000
000000
000000
000000
FFFFF0
000000
000000
000000
000000
006000
00F000
006000
ENDCHAR
STARTCHAR 00F8
ENCODING 248
SWIDTH 500 0
DWIDTH 14 0
BBX 10 17 2 0
BITMAP
0080
00C0
1F80
7180
6180
C2C0
C2C0
C4C0
C4C0
C8C0
C8C0
D0C0
D0C0
6080
6180
7300
9E00
ENDCHAR
STARTCHAR 00F9
ENCODING 249
SWIDTH 500 0
DWIDTH 14 0
BBX 12 19 1 0
BITMAP
3C00
0200
0100
2040
E1C0
2040
2040
2040
2040
2040
2040
2040
2040
2040
2040
2040
30C0
1170
0E00
ENDCHAR
STARTCHAR 00FA
ENCODING 250
SWIDTH 500 0
DWIDTH 14 0
BBX 12 19 1 0
BITMAP
03C0
0400
0800
2040
E1C0
2040
2040
2040
2040
2040
2040
2040
2040
2040
2040
2040
30C0
1170
0E00
ENDCHAR
STARTCHAR 00FB
ENCODING 251
SWIDTH 500 0
DWIDTH 14 0
BBX 12 19 1 0
BITMAP
0600
1980
0000
2040
E1C0
2040
2040
2040
2040
2040
2040
2040
2040
2040
2040
2040
30C0
1170
0E00
ENDCHAR
STARTCHAR 00FC
ENCODING 252
SWIDTH 500 0
DWIDTH 14 0
BBX 12 18 1 0
BITMAP
30C0
39C0
0000
60C0
E1C0
2040
2040
2040
2040
2040
2040
2040
2040
2040
2040
30C0
1170
0E00
ENDCHAR
STARTCHAR 00FD
ENCODING 253
SWIDTH 500 0
DWIDTH 14 0
BBX 13 22 1 -3
BITMAP
03C0
0400
0800
0000
F8F8
6020
3060
3040
1040
1880
1880
0C80
0D00
0500
0700
0200
0200
0200
0400
6400
C800
7000
ENDCHAR
STARTCHAR 00FE
ENCODING 254
SWIDTH 500 0
DWIDTH 14 0
BBX 11 25 1 -3
BITMAP
1000
F000
3000
3000
3000
3000
3000
3780
38C0
3040
3060
3060
3020
3020
3020
3060
3060
3060
3040
38C0
3780
3000
3000
3000
FC00
ENDCHAR
STARTCHAR 00FF
ENCODING 255
SWIDTH 500 0
DWIDTH 14 0
BBX 13 22 1 -3
BITMAP
18C0
18C0
0000
0000
F8F8
6020
3060
3040
1040
1880
1880
0C80
0D00
0500
0700
0200
0200
0200
0400
6400
C800
7000
ENDCHAR
STARTCHAR 0100
ENCODING 256
SWIDTH 500 0
DWIDTH 14 0
BBX 14 22 0 2
BITMAP
1FE0
0000
0200
0300
0300
0300
0500
0580
0580
0480
0880
08C0
08C0
08C0
1FE0
1060
1060
1060
2030
2030
2030
F8FC
ENDCHAR
STARTCHAR 0101
ENCODING 257
SWIDTH 500 0
DWIDTH 14 0
BBX 11 19 2 0
BITMAP
7F80
0000
0000
0000
3E00
6300
E100
6180
0180
0780
1980
6180
C180
C180
C180
C1A0
C3A0
C4A0
38C0
ENDCHAR
STARTCHAR 0102
ENCODING 258
SWIDTH 500 0
DWIDTH 14 0
BBX 14 22 0 2
BITMAP
0840
0780
0000
0200
0300
0300
0300
0580
0580
0580
0880
08C0
08C0
08C0
1FC0
1060
1060
1060
2020
2030
2030
F8FC
ENDCHAR
STARTCHAR 0103
ENCODING 259
SWIDTH 500 0
DWIDTH 14 0
BBX 11 19 2 0
BITMAP
2100
1E00
0000
0000
3E00
6300
E100
6180
0180
0780
1980
6180
C180
C180
C180
C1A0
C3A0
C4A0
38C0
ENDCHAR
STARTCHAR 0104
ENCODING 260
SWIDTH 500 0
DWIDTH 14 0
BBX 14 25 0 -3
BITMAP
0200
0300
0300
0300
0500
0580
0580
0480
0880
08C0
08C0
08C0
1FE0
1060
1060
1060
2030
2030
2030
F8FC
0020
0040
00C0
00C8
0070
ENDCHAR
STARTCHAR 0105
ENCODING 261
SWIDTH 500 0
DWIDTH 14 0
BBX 11 18 2 -3
BITMAP
3E00
6300
E100
6180
0180
0780
1980
6180
C180
C180
C180
C1A0
C3A0
C4A0
3940
0300
0220
03C0
ENDCHAR
STARTCHAR 0106
ENCODING 262
SWIDTH 500 0
DWIDTH 14 0
BBX 10 24 2 0
BITMAP
0780
0800
1000
0F40
31C0
20C0
40C0
4040
C040
C000
C000
C000
C000
C000
C000
C000
C040
C040
C040
4040
6080
6080
3100
1E00
ENDCHAR
STARTCHAR 0107
ENCODING 263
SWIDTH 500 0
DWIDTH 14 0
BBX 10 19 2 0
BITMAP
0780
0800
1000
0000
1F00
3080
61C0
61C0
C000
C000
C000
C000
C000
C000
4040
6040
6080
3180
0E00
ENDCHAR
STARTCHAR 0108
ENCODING 264
SWIDTH 500 0
DWIDTH 14 0
BBX 10 24 2 0
BITMAP
0E00
1100
2080
0F40
31C0
20C0
40C0
4040
C040
C000
C000
C000
C000
C000
C000
C000
C040
C040
C040
4040
6080
6080
3100
1E00
ENDCHAR
STARTCHAR 0109
ENCODING 265
SWIDTH 500 0
DWIDTH 14 0
BBX 10 19 2 0
BITMAP
0E00
1100
2080
0000
1F00
3080
61C0
61C0
C000
C000
C000
C000
C000
C000
4040
6040
6080
3180
0E00
ENDCHAR
STARTCHAR 010C
ENCODING 268
SWIDTH 500 0
DWIDTH 14 0
BBX 10 24 2 0
BITMAP
3180
0E00
0000
1E40
31C0
60C0
60C0
4040
C040
C000
C000
C000
C000
C000
C000
C000
C040
C040
C040
4040
6080
2080
3100
1E00
ENDCHAR
STARTCHAR 010D
ENCODING 269
SWIDTH 500 0
DWIDTH 14 0
BBX 10 19 2 0
BITMAP
3180
0E00
0000
0000
1F00
3080
61C0
61C0
C000
C000
C000
C000
C000
C000
4040
6040
6080
3180
0E00
ENDCHAR
STARTCHAR 010E
ENCODING 270
SWIDTH 500 0
DWIDTH 14 0
BBX 12 22 1 2
BITMAP
3100
0E00
0000
FE00
3180
20C0
2060
2060
2060
2020
2030
2030
2030
2030
2030
2020
2060
2060
2040
20C0
3180
FE00
ENDCHAR
STARTCHAR 010F
ENCODING 271
SWIDTH 500 0
DWIDTH 14 0
BBX 13 23 1 0
BITMAP
0030
01B8
03B8
0190
01A0
01C0
0180
0180
1F80
3180
6180
4180
C180
C180
C180
C180
C180
C180
C180
4180
6180
33C0
1C00
ENDCHAR
STARTCHAR 0111
ENCODING 273
SWIDTH 500 0
DWIDTH 14 0
BBX 11 22 2 0
BITMAP
0080
0380
0080
0080
07E0
0080
0080
1E80
7180
6080
C080
C080
C080
C080
C080
C080
C080
C080
C180
6180
32E0
1C00
ENDCHAR
STARTCHAR 0112
ENCODING 274
SWIDTH 500 0
DWIDTH 14 0
BBX 11 22 1 2
BITMAP
3FC0
0000
0000
FFE0
3060
2020
2020
2020
2000
2080
2080
2080
3F80
2080
2080
2080
2000
2020
2020
2020
3060
FFE0
ENDCHAR
STARTCHAR 0113
ENCODING 275
SWIDTH 500 0
DWIDTH 14 0
BBX 10 19 2 0
BITMAP
7F80
0000
0000
0000
1E00
3100
6180
4080
C0C0
C0C0
FFC0
C000
C000
C000
C040
4080
6080
3100
1E00
ENDCHAR
STARTCHAR 0118
ENCODING 280
SWIDTH 500 0
DWIDTH 14 0
BBX 11 24 1 -3
BITMAP
FFE0
3060
2020
2020
2020
2000
2080
2080
2080
3F80
2080
2080
2080
2000
2000
2020
2020
2020
3060
CF80
0C00
0800
0880
0F00
ENDCHAR
STARTCHAR 0119
ENCODING 281
SWIDTH 500 0
DWIDTH 14 0
BBX 10 18 2 -3
BITMAP
1E00
3100
6180
4080
C0C0
C0C0
FFC0
C000
C000
C000
4040
6080
3180
1F00
0800
1800
1100
1E00
ENDCHAR
STARTCHAR 011A
ENCODING 282
SWIDTH 500 0
DWIDTH 14 0
BBX 11 22 1 2
BITMAP
1980
0600
0000
FFE0
3060
2020
2020
2020
2000
2080
2080
2080
3F80
2080
2080
2080
2000
2020
2020
2020
3060
FFE0
ENDCHAR
STARTCHAR 011B
ENCODING 283
SWIDTH 500 0
DWIDTH 14 0
BBX 10 19 2 0
BITMAP
3300
0C00
0000
0000
1E00
3100
6180
4080
C0C0
C0C0
FFC0
C000
C000
C000
C040
4080
6080
3100
1E00
ENDCHAR
STARTCHAR 011C
ENCODING 284
SWIDTH 500 0
DWIDTH 14 0
BBX 11 24 2 0
BITMAP
0E00
1100
2080
1F40
31C0
60C0
6040
C040
C000
C000
C000
C000
C000
C3E0
C0C0
C0C0
C0C0
C0C0
C0C0
C0C0
60C0
6140
3140
1E00
ENDCHAR
STARTCHAR 011D
ENCODING 285
SWIDTH 500 0
DWIDTH 14 0
BBX 13 22 1 -3
BITMAP
0E00
1100
2080
0000
1F70
31B8
60C0
60C0
60C0
60C0
3180
1F00
6000
6000
3E00
27C0
4060
C030
C030
C030
6060
1F80
ENDCHAR
STARTCHAR 0124
ENCODING 292
SWIDTH 500 0
DWIDTH 14 0
BBX 12 22 1 2
BITMAP
0600
1980
0000
F9F0
6060
6060
6060
6060
6060
6060
6060
6060
7FE0
6060
6060
6060
6060
6060
6060
6060
6060
F9F0
ENDCHAR
STARTCHAR 0125
ENCODING 293
SWIDTH 500 0
DWIDTH 14 0
BBX 12 22 1 2
BITMAP
0700
0880
3040
E000
2000
2000
2000
2000
2000
2780
38C0
2040
2040
2040
2040
2040
2040
2040
2040
2040
2060
F9F0
ENDCHAR
STARTCHAR 0127
ENCODING 295
SWIDTH 500 0
DWIDTH 14 0
BBX 12 20 1 2
BITMAP
2000
E000
2000
2000
FC00
2000
2000
2780
38C0
2040
2040
2040
2040
2040
2040
2040
2040
2040
2060
F9F0
ENDCHAR
STARTCHAR 012A
ENCODING 298
SWIDTH 500 0
DWIDTH 14 0
BBX 8 22 3 2
BITMAP
FF
00
00
7E
18
18
18
18
18
18
18
18
18
18
18
18
18
18
18
18
18
7E
ENDCHAR
STARTCHAR 012B
ENCODING 299
SWIDTH 500 0
DWIDTH 14 0
BBX 8 17 3 2
BITMAP
FF
00
00
08
78
18
18
18
18
18
18
18
18
18
18
18
3E
ENDCHAR
STARTCHAR 0134
ENCODING 308
SWIDTH 500 0
DWIDTH 14 0
BBX 11 24 2 0
BITMAP
0380
0440
0820
07E0
0180
0180
0180
0180
0180
0180
0180
0180
0180
0180
0180
0180
0180
0180
C100
E100
C300
C200
6600
3C00
ENDCHAR
STARTCHAR 0135
ENCODING 309
SWIDTH 500 0
DWIDTH 14 0
BBX 10 22 2 -3
BITMAP
0700
0880
1040
0200
0E00
0200
0200
0200
0200
0200
0200
0200
0200
0200
0200
0200
0200
C200
E200
C600
4600
3C00
ENDCHAR
STARTCHAR 0139
ENCODING 313
SWIDTH 500 0
DWIDTH 14 0
BBX 11 22 1 2
BITMAP
0780
0800
1000
FC00
3000
3000
3000
3000
3000
3000
3000
3000
3000
3000
3000
3000
3020
3020
3020
3020
3060
FFE0
ENDCHAR
STARTCHAR 013A
ENCODING 314
SWIDTH 500 0
DWIDTH 14 0
BBX 6 22 4 2
BITMAP
3C
40
90
F0
30
30
30
30
30
30
30
30
30
30
30
30
30
30
30
30
30
FC
ENDCHAR
STARTCHAR 013D
ENCODING 317
SWIDTH 500 0
DWIDTH 14 0
BBX 11 21 1 2
BITMAP
00C0
00E0
FCE0
3040
30C0
3100
3000
3000
3000
3000
3000
3000
3000
3000
3000
3020
3020
3020
3020
3060
FFE0
ENDCHAR
STARTCHAR 013E
ENCODING 318
SWIDTH 500 0
DWIDTH 14 0
BBX 8 22 4 2
BITMAP
07
07
67
E1
22
22
24
20
20
20
20
20
20
20
20
20
20
20
20
20
20
F8
ENDCHAR
STARTCHAR 0141
ENCODING 321
SWIDTH 500 0
DWIDTH 14 0
BBX 11 19 1 2
BITMAP
FC00
3000
3000
3000
3000
3400
3600
3800
3000
3000
7000
B000
3000
3020
3020
3020
3020
3060
FFE0
ENDCHAR
STARTCHAR 0142
ENCODING 322
SWIDTH 500 0
DWIDTH 14 0
BBX 8 20 3 2
BITMAP
18
78
18
18
18
18
19
1A
1C
18
38
78
D8
98
18
18
18
18
18
7E
ENDCHAR
STARTCHAR 0143
ENCODING 323
SWIDTH 500 0
DWIDTH 14 0
BBX 12 23 1 1
BITMAP
03C0
0400
0800
E0F0
7060
5020
5820
5820
4C20
4C20
4420
4620
4220
4320
4320
41A0
41A0
40A0
40E0
4060
6060
F060
0020
ENDCHAR
STARTCHAR 0144
ENCODING 324
SWIDTH 500 0
DWIDTH 14 0
BBX 12 17 1 2
BITMAP
03C0
0400
0800
2000
E780
38C0
3040
2040
2040
2040
2040
2040
2040
2040
2040
2060
F9F0
ENDCHAR
STARTCHAR 0147
ENCODING 327
SWIDTH 500 0
DWIDTH 14 0
BBX 12 23 1 1
BITMAP
1980
0600
0000
E0F0
7060
5020
5820
5820
4C20
4C20
4420
4620
4220
4320
4320
41A0
41A0
40A0
40E0
4060
6060
F060
0020
ENDCHAR
STARTCHAR 0148
ENCODING 328
SWIDTH 500 0
DWIDTH 14 0
BBX 12 17 1 2
BITMAP
1980
0600
0000
2000
E780
38C0
3040
2040
2040
2040
2040
2040
2040
2040
2040
2060
F9F0
ENDCHAR
STARTCHAR 014B
ENCODING 331
SWIDTH 500 0
DWIDTH 14 0
BBX 10 19 1 -3
BITMAP
2000
E780
38C0
3040
2040
2040
2040
2040
2040
2040
2040
2040
2040
F840
0040
0040
0E40
0CC0
0780
ENDCHAR
STARTCHAR 014C
ENCODING 332
SWIDTH 500 0
DWIDTH 14 0
BBX 12 24 1 0
BITMAP
3FC0
0000
0000
0F00
1880
3040
2040
6060
6060
6060
4020
C020
C030
C030
C030
C030
4060
6060
6060
6060
2040
30C0
1980
0F00
ENDCHAR
STARTCHAR 014D
ENCODING 333
SWIDTH 500 0
DWIDTH 14 0
BBX 10 19 2 0
BITMAP
7F80
0000
0000
0000
1E00
7300
6180
C080
C0C0
C0C0
C0C0
C0C0
C0C0
C0C0
C0C0
40C0
6180
2300
1E00
ENDCHAR
STARTCHAR 0150
ENCODING 336
SWIDTH 500 0
DWIDTH 14 0
BBX 12 24 1 0
BITMAP
0F70
1180
2200
0F00
1980
30C0
2040
6060
6060
6060
4060
C020
C030
C030
C030
C020
4060
6060
6060
6060
2040
30C0
1980
0F00
ENDCHAR
STARTCHAR 0151
ENCODING 337
SWIDTH 500 0
DWIDTH 14 0
BBX 11 19 2 0
BITMAP
1EE0
2300
4400
0000
1E00
7300
6180
C080
C0C0
C0C0
C0C0
C0C0
C0C0
C0C0
C0C0
40C0
6180
2300
1E00
ENDCHAR
STARTCHAR 0152
ENCODING 338
SWIDTH 500 0
DWIDTH 14 0
BBX 11 21 2 0
BITMAP
1FE0
2660
4420
4420
C420
8400
8480
8480
8480
8780
8480
8480
8480
8400
8400
8420
C420
C660
47E0
6400
3800
ENDCHAR
STARTCHAR 0153
ENCODING 339
SWIDTH 500 0
DWIDTH 14 0
BBX 11 15 2 0
BITMAP
7380
5E80
8C40
8C40
8C40
8C40
8FC0
8C20
8C00
8C00
8C40
8C40
8C40
DA80
7380
ENDCHAR
STARTCHAR 0154
ENCODING 340
SWIDTH 500 0
DWIDTH 14 0
BBX 12 22 1 2
BITMAP
03C0
0C00
0000
FF00
21C0
20C0
2060
2060
2060
2060
20C0
2180
3F00
2600
2300
2300
2180
2180
20C0
20C0
2060
F870
ENDCHAR
STARTCHAR 0155
ENCODING 341
SWIDTH 500 0
DWIDTH 14 0
BBX 9 17 3 2
BITMAP
0F00
1000
2000
2000
E780
6980
3000
2000
2000
2000
2000
2000
2000
2000
2000
6000
F800
ENDCHAR
STARTCHAR 0158
ENCODING 344
SWIDTH 500 0
DWIDTH 14 0
BBX 12 22 1 2
BITMAP
3180
0E00
0000
FF00
21C0
20C0
2060
2060
2060
2060
20C0
2180
3F00
2600
2300
2300
2180
2180
20C0
20C0
2060
F870
ENDCHAR
STARTCHAR 0159
ENCODING 345
SWIDTH 500 0
DWIDTH 14 0
BBX 9 17 3 2
BITMAP
6600
1800
0000
2000
E780
6980
3000
2000
2000
2000
2000
2000
2000
2000
2000
6000
F800
ENDCHAR
STARTCHAR 015A
ENCODING 346
SWIDTH 500 0
DWIDTH 14 0
BBX 10 24 2 0
BITMAP
0F00
1000
2000
3E80
4380
C180
C080
C080
C000
6000
7000
3800
1C00
0700
0380
0180
80C0
80C0
80C0
80C0
C0C0
E080
B180
0E00
ENDCHAR
STARTCHAR 015B
ENCODING 347
SWIDTH 500 0
DWIDTH 14 0
BBX 9 19 3 0
BITMAP
0F00
1000
2000
0000
3D00
C700
8100
8100
C000
6000
3800
0C00
0300
8100
8180
8180
C380
E700
1E00
ENDCHAR
STARTCHAR 015C
ENCODING 348
SWIDTH 500 0
DWIDTH 14 0
BBX 10 24 2 0
BITMAP
0C00
3300
0000
1E80
6180
4080
C080
C080
C000
C000
6000
3000
1C00
0E00
0300
0180
80C0
80C0
80C0
80C0
C0C0
C080
B180
0E00
ENDCHAR
STARTCHAR 015D
ENCODING 349
SWIDTH 500 0
DWIDTH 14 0
BBX 9 19 3 0
BITMAP
1800
6600
0000
0000
3D00
C700
8100
8100
C000
6000
3800
0C00
0300
8100
8180
8180
C380
E700
1E00
ENDCHAR
STARTCHAR 015E
ENCODING 350
SWIDTH 500 0
DWIDTH 14 0
BBX 10 24 2 -3
BITMAP
3E80
6380
C080
C080
C080
C000
6000
3000
1C00
0E00
0300
0180
80C0
80C0
80C0
C0C0
C0C0
A180
1F00
0C00
1E00
0C00
0400
1800
ENDCHAR
STARTCHAR 015F
ENCODING 351
SWIDTH 500 0
DWIDTH 14 0
BBX 9 18 3 -3
BITMAP
7D00
C300
8100
8100
C000
3000
0E00
0300
8180
8180
8180
C300
3E00
1C00
1C00
1C00
0800
1000
ENDCHAR
STARTCHAR 0160
ENCODING 352
SWIDTH 500 0
DWIDTH 14 0
BBX 10 24 2 0
BITMAP
3300
0C00
0000
1E80
6380
4180
C080
C080
C000
4000
6000
3000
1C00
0600
0300
0180
80C0
80C0
80C0
80C0
C0C0
C180
B180
0E00
ENDCHAR
STARTCHAR 0161
ENCODING 353
SWIDTH 500 0
DWIDTH 14 0
BBX 9 19 3 0
BITMAP
6600
1800
0000
0000
3D00
C700
8100
8100
C000
6000
3800
0C00
0300
8100
8180
8180
C380
E700
1E00
ENDCHAR
STARTCHAR 0162
ENCODING 354
SWIDTH 500 0
DWIDTH 14 0
BBX 12 24 1 -3
BITMAP
FFF0
C630
C630
8610
8610
0600
0600
0600
0600
0600
0600
0600
0600
0600
0600
0600
0600
1F80
0000
0600
0F00
0600
0200
0C00
ENDCHAR
STARTCHAR 0163
ENCODING 355
SWIDTH 500 0
DWIDTH 14 0
BBX 10 22 2 -3
BITMAP
0800
0800
1800
3800
FF80
1800
1800
1800
1800
1800
1800
1800
1800
1880
18C0
0880
0F00
0C00
1E00
0C00
0400
1800
ENDCHAR
STARTCHAR 0164
ENCODING 356
SWIDTH 500 0
DWIDTH 14 0
BBX 12 22 1 2
BITMAP
1980
0600
0000
FFF0
C630
C630
8610
8610
0600
0600
0600
0600
0600
0600
0600
0600
0600
0600
0600
0600
0600
1F80
ENDCHAR
STARTCHAR 0165
ENCODING 357
SWIDTH 500 0
DWIDTH 14 0
BBX 10 23 2 0
BITMAP
0180
01C0
01C0
0080
0900
0A00
1800
3800
FF80
1800
1800
1800
1800
1800
1800
1800
1800
1800
1800
1840
1880
0900
0E00
ENDCHAR
STARTCHAR 016A
ENCODING 362
SWIDTH 500 0
DWIDTH 14 0
BBX 14 24 0 0
BITMAP
1FE0
0000
0000
FC7C
3010
3010
3010
3010
3010
3010
3010
3010
3010
3010
3010
3010
3010
3010
3010
3010
1020
1820
0C40
0780
ENDCHAR
STARTCHAR 016B
ENCODING 363
SWIDTH 500 0
DWIDTH 14 0
BBX 12 19 1 0
BITMAP
3FC0
0000
0000
2040
E1C0
2040
2040
2040
2040
2040
2040
2040
2040
2040
2040
2040
30C0
1170
0E00
ENDCHAR
STARTCHAR 016C
ENCODING 364
SWIDTH 500 0
DWIDTH 14 0
BBX 14 24 0 0
BITMAP
0840
0780
0000
FC7C
3010
3010
3010
3010
3010
3010
3010
3010
3010
3010
3010
3010
3010
3010
3010
3010
1020
1820
0C40
0780
ENDCHAR
STARTCHAR 016D
ENCODING 365
SWIDTH 500 0
DWIDTH 14 0
BBX 12 19 1 0
BITMAP
1080
1980
0F00
0000
2040
E1C0
2040
2040
2040
2040
2040
2040
2040
2040
2040
2040
30C0
1170
0E00
ENDCHAR
STARTCHAR 016E
ENCODING 366
SWIDTH 500 0
DWIDTH 14 0
BBX 14 25 0 0
BITMAP
0380
0480
0480
0480
FF7C
3010
3010
3010
3010
3010
3010
3010
3010
3010
3010
3010
3010
3010
3010
3010
3010
1020
1820
0C40
0780
ENDCHAR
STARTCHAR 016F
ENCODING 367
SWIDTH 500 0
DWIDTH 14 0
BBX 12 20 1 0
BITMAP
0600
0900
0900
0600
0000
60C0
E1C0
2040
2040
2040
2040
2040
2040
2040
2040
2040
2040
30C0
1170
0E00
ENDCHAR
STARTCHAR 0170
ENCODING 368
SWIDTH 500 0
DWIDTH 14 0
BBX 14 24 0 0
BITMAP
07B8
08C0
1100
FC7C
3010
3010
3010
3010
3010
3010
3010
3010
3010
3010
3010
3010
3010
3010
3010
3010
1020
1820
0C40
0780
ENDCHAR
STARTCHAR 0171
ENCODING 369
SWIDTH 500 0
DWIDTH 14 0
BBX 12 19 1 0
BITMAP
0F70
1180
2200
0000
E1C0
6040
2040
2040
2040
2040
2040
2040
2040
2040
2040
2040
30C0
1170
0E00
ENDCHAR
STARTCHAR 0179
ENCODING 377
SWIDTH 500 0
DWIDTH 14 0
BBX 10 22 2 2
BITMAP
0780
0800
1000
FFC0
C0C0
8180
8180
8300
0300
0600
0600
0C00
0C00
1800
1800
3000
3040
6040
6040
C040
C0C0
FFC0
ENDCHAR
STARTCHAR 017A
ENCODING 378
SWIDTH 500 0
DWIDTH 14 0
BBX 10 17 2 2
BITMAP
0780
0800
1000
0000
7FC0
4180
4100
8300
0600
0400
0C00
1800
3040
3040
6040
C0C0
FFC0
ENDCHAR
STARTCHAR 017B
ENCODING 379
SWIDTH 500 0
DWIDTH 14 0
BBX 10 23 2 2
BITMAP
0C00
0C00
0C00
0000
FFC0
C0C0
8180
8180
8300
0300
0600
0600
0C00
0C00
1800
1800
3000
3040
6040
6040
C040
C0C0
FFC0
ENDCHAR
STARTCHAR 017C
ENCODING 380
SWIDTH 500 0
DWIDTH 14 0
BBX 10 18 2 2
BITMAP
0C00
0E00
0C00
0000
0000
7FC0
4180
4100
8300
0600
0400
0C00
1800
3040
3040
6040
C0C0
FFC0
ENDCHAR
STARTCHAR 017D
ENCODING 381
SWIDTH 500 0
DWIDTH 14 0
BBX 10 22 2 2
BITMAP
3300
0C00
0000
FFC0
C0C0
8180
8180
8300
0300
0600
0600
0C00
0C00
1800
1800
3000
3040
6040
6040
C040
C0C0
FFC0
ENDCHAR
STARTCHAR 017E
ENCODING 382
SWIDTH 500 0
DWIDTH 14 0
BBX 10 17 2 2
BITMAP
3300
0C00
0000
0000
7FC0
4180
4100
8300
0600
0400
0C00
1800
3040
3040
6040
C0C0
FFC0
ENDCHAR
STARTCHAR 0193
ENCODING 403
SWIDTH 500 0
DWIDTH 14 0
BBX 12 24 2 0
BITMAP
00E0
0130
0130
1F30
2300
6100
4100
C100
C000
C000
8000
8000
8000
8780
8300
8100
C100
C100
C100
C300
4300
6300
2500
1C00
ENDCHAR
STARTCHAR 01C2
ENCODING 450
SWIDTH 500 0
DWIDTH 14 0
BBX 10 25 2 -3
BITMAP
0C00
0C00
0C00
0C00
0C00
0C00
0C00
FFC0
0C00
0C00
0C00
0C00
0C00
0C00
0C00
0C00
FFC0
0C00
0C00
0C00
0C00
0C00
0C00
0C00
0C00
ENDCHAR
STARTCHAR 01CD
ENCODING 461
SWIDTH 1000 0
DWIDTH 28 0
BBX 22 23 3 2
BITMAP
018600
007800
003000
002000
003000
003000
005800
005800
00CC00
008C00
018C00
010600
010600
020300
020300
07FF80
040180
0C01C0
0800C0
1800C0
100060
300070
FE03FC
ENDCHAR
STARTCHAR 01CE
ENCODING 462
SWIDTH 1000 0
DWIDTH 28 0
BBX 14 19 8 1
BITMAP
30C0
1F80
0600
0000
0000
3F80
61C0
60C0
6040
0040
07C0
1840
6040
E040
C040
C040
C0E4
6178
3E30
ENDCHAR
STARTCHAR 01D0
ENCODING 464
SWIDTH 1000 0
DWIDTH 28 0
BBX 8 18 10 2
BITMAP
C3
3C
18
00
08
78
18
18
18
18
18
18
18
18
18
18
18
7E
ENDCHAR
STARTCHAR 01D1
ENCODING 465
SWIDTH 1000 0
DWIDTH 28 0
BBX 18 23 5 1
BITMAP
073800
01E000
000000
03F000
0E1C00
180600
300300
600180
600180
C000C0
C000C0
C000C0
C000C0
C000C0
C000C0
C000C0
C000C0
600180
600180
300300
380700
0C1C00
03F000
ENDCHAR
STARTCHAR 01D2
ENCODING 466
SWIDTH 1000 0
DWIDTH 28 0
BBX 14 19 7 1
BITMAP
1860
0FC0
0300
0000
0000
0FC0
1860
3010
6018
6018
C00C
C00C
C00C
C01C
6018
6018
3030
1860
0FC0
ENDCHAR
STARTCHAR 01D4
ENCODING 468
SWIDTH 1000 0
DWIDTH 28 0
BBX 16 18 6 1
BITMAP
0E70
03C0
0000
0000
F03C
301C
300C
100C
100C
100C
100C
100C
100C
100C
180C
181C
0C2C
07CF
ENDCHAR
STARTCHAR 01D6
ENCODING 470
SWIDTH 1000 0
DWIDTH 28 0
BBX 16 20 6 1
BITMAP
0FF0
1818
1818
1818
0000
0000
F03C
301C
300C
100C
100C
100C
100C
100C
100C
100C
180C
181C
0C2C
07CF
ENDCHAR
STARTCHAR 01D8
ENCODING 472
SWIDTH 1000 0
DWIDTH 28 0
BBX 16 20 6 1
BITMAP
00F8
1998
1A18
1818
0000
0000
F03C
301C
300C
100C
100C
100C
100C
100C
100C
100C
180C
181C
0C2C
07CF
ENDCHAR
STARTCHAR 01DA
ENCODING 474
SWIDTH 1000 0
DWIDTH 28 0
BBX 16 20 6 1
BITMAP
0E70
1BD8
1818
1818
0000
0000
F03C
301C
300C
100C
100C
100C
100C
100C
100C
100C
180C
181C
0C2C
07CF
ENDCHAR
STARTCHAR 01DC
ENCODING 476
SWIDTH 1000 0
DWIDTH 28 0
BBX 16 20 6 1
BITMAP
1F00
1998
1858
1818
0000
0000
F03C
301C
300C
100C
100C
100C
100C
100C
100C
100C
180C
181C
0C2C
07CF
ENDCHAR
STARTCHAR 01F8
ENCODING 504
SWIDTH 500 0
DWIDTH 14 0
BBX 12 23 1 1
BITMAP
3C00
0200
0100
E0F0
7060
5020
5820
5820
4C20
4C20
4420
4620
4220
4320
4320
41A0
41A0
40A0
40E0
4060
6060
F060
0020
ENDCHAR
STARTCHAR 01F9
ENCODING 505
SWIDTH 500 0
DWIDTH 14 0
BBX 12 17 1 2
BITMAP
3800
0600
0100
2000
E780
38C0
3040
2040
2040
2040
2040
2040
2040
2040
2040
2060
F9F0
ENDCHAR
STARTCHAR 01FD
ENCODING 509
SWIDTH 500 0
DWIDTH 14 0
BBX 10 19 2 0
BITMAP
0780
0800
1000
0000
7380
CE80
CCC0
CC40
0C40
0C40
1FC0
6C00
CC00
8C00
8C40
8C40
8C40
D680
7380
ENDCHAR
STARTCHAR 0250
ENCODING 592
SWIDTH 500 0
DWIDTH 14 0
BBX 11 15 1 0
BITMAP
67C0
B860
3060
3060
3060
3060
30C0
3700
3800
3000
30C0
30E0
1040
1880
0F00
ENDCHAR
STARTCHAR 0251
ENCODING 593
SWIDTH 500 0
DWIDTH 14 0
BBX 11 16 2 0
BITMAP
0080
1E80
6380
6180
C180
C180
C180
C180
C180
C180
C180
C180
C180
43A0
63A0
1CC0
ENDCHAR
STARTCHAR 0252
ENCODING 594
SWIDTH 500 0
DWIDTH 14 0
BBX 11 15 1 0
BITMAP
6700
B8C0
30C0
3060
3060
3060
3060
3060
3060
3060
3060
3040
30C0
2880
0700
ENDCHAR
STARTCHAR 0253
ENCODING 595
SWIDTH 500 0
DWIDTH 14 0
BBX 9 21 3 0
BITMAP
3C00
6300
C100
C380
8300
8000
9C00
A200
C300
8100
8180
8180
8180
8180
8180
8180
8180
8180
C300
A200
1C00
ENDCHAR
STARTCHAR 0254
ENCODING 596
SWIDTH 500 0
DWIDTH 14 0
BBX 10 15 2 0
BITMAP
3E00
4300
8180
8180
0080
00C0
00C0
00C0
00C0
0080
E080
E180
C100
6200
3C00
ENDCHAR
STARTCHAR 0255
ENCODING 597
SWIDTH 500 0
DWIDTH 14 0
BBX 10 15 2 0
BITMAP
1F00
3080
61C0
61C0
C000
C000
C000
C000
C1C0
C640
6C40
7840
30C0
7980
4F00
ENDCHAR
STARTCHAR 0256
ENCODING 598
SWIDTH 500 0
DWIDTH 14 0
BBX 13 25 1 -3
BITMAP
0180
0380
0180
0180
0180
0180
0180
1F80
3180
6180
6180
4180
C180
C180
C180
C180
C180
4180
4180
6180
3380
1D98
0098
0098
0070
ENDCHAR
STARTCHAR 0257
ENCODING 599
SWIDTH 500 0
DWIDTH 14 0
BBX 13 21 1 0
BITMAP
0070
0098
0198
0180
0180
0180
1F80
3180
6180
6180
4180
C180
C180
C180
C180
C180
4180
4180
6180
33C0
1C00
ENDCHAR
STARTCHAR 0258
ENCODING 600
SWIDTH 500 0
DWIDTH 14 0
BBX 10 15 2 0
BITMAP
1E00
3300
6180
4080
C0C0
C0C0
FFC0
00C0
00C0
00C0
8080
8080
4180
2300
1E00
ENDCHAR
STARTCHAR 0259
ENCODING 601
SWIDTH 500 0
DWIDTH 14 0
BBX 10 15 2 0
BITMAP
1E00
6380
4180
8080
00C0
00C0
00C0
FFC0
C0C0
C0C0
40C0
4080
6180
3300
1E00
ENDCHAR
STARTCHAR 025A
ENCODING 602
SWIDTH 500 0
DWIDTH 14 0
BBX 13 14 1 1
BITMAP
3C00
6600
4200
8340
01D0
0348
0D50
1130
6100
C100
6100
6300
3200
1C00
ENDCHAR
STARTCHAR 025C
ENCODING 604
SWIDTH 500 0
DWIDTH 14 0
BBX 10 15 2 0
BITMAP
3E00
E100
C180
8180
0180
0300
1E00
0180
0080
80C0
80C0
80C0
C180
6380
3E00
ENDCHAR
STARTCHAR 025E
ENCODING 606
SWIDTH 500 0
DWIDTH 14 0
BBX 10 15 2 0
BITMAP
1F00
3F80
6040
C040
8040
8040
8F80
80C0
8040
8040
8040
C040
60C0
3F80
1F00
ENDCHAR
STARTCHAR 025F
ENCODING 607
SWIDTH 500 0
DWIDTH 14 0
BBX 11 18 1 -3
BITMAP
0F80
0300
0300
0300
0300
0300
0300
0300
0300
0300
3FE0
0300
0300
0300
E200
E200
4600
3C00
ENDCHAR
STARTCHAR 0260
ENCODING 608
SWIDTH 500 0
DWIDTH 14 0
BBX 13 24 1 -3
BITMAP
0070
0098
0198
0180
0180
0180
1F80
3180
6180
4180
C180
C180
C180
C180
4180
4180
2380
1D80
6180
6180
6180
6100
2300
1E00
ENDCHAR
STARTCHAR 0261
ENCODING 609
SWIDTH 500 0
DWIDTH 14 0
BBX 9 19 2 -3
BITMAP
0080
1E80
6180
6080
C080
C080
C080
C080
C080
C080
6180
6280
1C80
6080
E080
6180
4180
6300
1E00
ENDCHAR
STARTCHAR 0264
ENCODING 612
SWIDTH 500 0
DWIDTH 14 0
BBX 12 15 1 0
BITMAP
6060
F0F0
B890
1980
0D00
0E00
0600
0600
0600
0700
0B00
0900
0900
0900
0600
ENDCHAR
STARTCHAR 0265
ENCODING 613
SWIDTH 500 0
DWIDTH 14 0
BBX 12 18 1 -3
BITMAP
F9F0
6040
2040
2040
2040
2040
2040
2040
2040
2040
2040
20C0
20C0
3140
1E40
0040
0070
0040
ENDCHAR
STARTCHAR 0266
ENCODING 614
SWIDTH 500 0
DWIDTH 14 0
BBX 12 19 1 2
BITMAP
0F80
1840
30C0
20C0
2000
2000
2780
38C0
2040
2040
2040
2040
2040
2040
2040
2040
2040
2060
F9F0
ENDCHAR
STARTCHAR 0267
ENCODING 615
SWIDTH 500 0
DWIDTH 14 0
BBX 10 24 1 -3
BITMAP
0F80
1840
30C0
20C0
2000
2000
2780
38C0
2040
2040
2040
2040
2040
2040
2040
2040
2040
2040
F840
0040
0040
0E40
0CC0
0780
ENDCHAR
STARTCHAR 0268
ENCODING 616
SWIDTH 500 0
DWIDTH 14 0
BBX 7 19 4 2
BITMAP
30
30
30
00
00
10
F0
30
30
30
30
FE
30
30
30
30
30
30
7C
ENDCHAR
STARTCHAR 026C
ENCODING 620
SWIDTH 500 0
DWIDTH 14 0
BBX 9 20 2 2
BITMAP
0C00
3C00
0C00
0C00
0C00
0C00
0C00
7C00
8C00
8C00
4C00
3C00
0F80
0C00
0C00
0C00
0C00
0C00
0C00
3F00
ENDCHAR
STARTCHAR 026D
ENCODING 621
SWIDTH 500 0
DWIDTH 14 0
BBX 8 24 4 -3
BITMAP
E0
60
20
20
20
20
20
20
20
20
20
20
20
20
20
20
20
20
20
20
23
33
33
1E
ENDCHAR
STARTCHAR 026E
ENCODING 622
SWIDTH 500 0
DWIDTH 14 0
BBX 12 25 1 -3
BITMAP
2000
E000
2000
2000
2000
2000
2000
3FE0
3040
3080
2100
2300
2600
2780
28C0
2060
2020
2030
3030
F830
0030
0060
1860
18C0
0F80
ENDCHAR
STARTCHAR 026F
ENCODING 623
SWIDTH 500 0
DWIDTH 14 0
BBX 14 15 0 0
BITMAP
F7BC
6310
2310
2310
2310
2310
2310
2310
2310
2310
2310
2310
2338
355C
19C0
ENDCHAR
STARTCHAR 0270
ENCODING 624
SWIDTH 500 0
DWIDTH 14 0
BBX 14 18 0 -3
BITMAP
F7BC
6310
2310
2310
2310
2310
2310
2310
2310
2310
2310
2310
2330
3550
19D0
0010
001C
0010
ENDCHAR
STARTCHAR 0271
ENCODING 625
SWIDTH 500 0
DWIDTH 14 0
BBX 12 19 0 -3
BITMAP
2000
EEF0
3390
2310
2310
2310
2310
2310
2310
2310
2310
2310
2310
F790
0010
0010
0190
00B0
0060
ENDCHAR
STARTCHAR 0272
ENCODING 626
SWIDTH 500 0
DWIDTH 14 0
BBX 13 19 0 -3
BITMAP
0400
1DC0
0E20
0C30
0C30
0C30
0C30
0C30
0C30
0C30
0C30
0C30
0C30
0C78
0C00
CC00
C800
D800
7000
ENDCHAR
STARTCHAR 0273
ENCODING 627
SWIDTH 500 0
DWIDTH 14 0
BBX 13 19 1 -3
BITMAP
2000
EE00
7100
6180
6180
6180
6180
6180
6180
6180
6180
6180
6180
F180
0180
0198
0098
0098
0070
ENDCHAR
STARTCHAR 0275
ENCODING 629
SWIDTH 500 0
DWIDTH 14 0
BBX 10 15 2 0
BITMAP
1E00
6100
6180
C080
C0C0
C0C0
FFC0
C0C0
C0C0
C0C0
C0C0
40C0
6180
3300
1E00
ENDCHAR
STARTCHAR 0279
ENCODING 633
SWIDTH 500 0
DWIDTH 14 0
BBX 9 15 2 0
BITMAP
0F80
0300
0200
0200
0200
0200
0200
0200
0200
0200
0600
C600
CB00
D380
E000
ENDCHAR
STARTCHAR 027A
ENCODING 634
SWIDTH 500 0
DWIDTH 14 0
BBX 9 21 2 0
BITMAP
0F80
0300
0200
0200
0200
0200
0200
0200
0200
0200
0200
0200
0200
0200
0200
0200
0600
C600
CB00
D380
E000
ENDCHAR
STARTCHAR 027B
ENCODING 635
SWIDTH 500 0
DWIDTH 14 0
BBX 12 18 1 -3
BITMAP
0FC0
0300
0300
0300
0300
0300
0300
0300
0300
0300
0300
C700
EB00
EB00
7330
0130
0130
00E0
ENDCHAR
STARTCHAR 027D
ENCODING 637
SWIDTH 500 0
DWIDTH 14 0
BBX 9 19 3 -3
BITMAP
2000
E780
6980
3180
3000
2000
2000
2000
2000
2000
2000
2000
2000
2000
2000
2300
2300
3300
1E00
ENDCHAR
STARTCHAR 027E
ENCODING 638
SWIDTH 500 0
DWIDTH 14 0
BBX 9 13 3 2
BITMAP
0F00
1980
3180
3000
3000
3000
3000
3000
3000
3000
3000
3000
FC00
ENDCHAR
STARTCHAR 0281
ENCODING 641
SWIDTH 500 0
DWIDTH 14 0
BBX 12 13 1 2
BITMAP
F870
3060
20C0
2080
2180
2300
2300
3F80
20C0
2060
2060
30E0
FF80
ENDCHAR
STARTCHAR 0282
ENCODING 642
SWIDTH 500 0
DWIDTH 14 0
BBX 9 18 3 -3
BITMAP
3D00
C700
8100
8100
C000
6000
3800
0C00
0300
8100
8180
8180
C380
E700
9E00
B000
9000
F000
ENDCHAR
STARTCHAR 0283
ENCODING 643
SWIDTH 500 0
DWIDTH 14 0
BBX 12 24 1 -3
BITMAP
01E0
0330
0630
0600
0600
0600
0600
0600
0600
0600
0600
0600
0600
0600
0600
0600
0600
0600
0600
0600
C600
C400
4C00
3800
ENDCHAR
STARTCHAR 0284
ENCODING 644
SWIDTH 500 0
DWIDTH 14 0
BBX 12 24 1 -3
BITMAP
01E0
0330
0630
0600
0600
0600
0600
0600
0600
0600
0600
0600
0600
0600
0600
0600
3FC0
0600
0600
0600
C600
C400
CC00
7800
ENDCHAR
STARTCHAR 0288
ENCODING 648
SWIDTH 500 0
DWIDTH 14 0
BBX 10 22 2 -3
BITMAP
0800
0800
1800
3800
FF80
1800
1800
1800
1800
1800
1800
1800
1800
1800
1800
1800
1800
1800
19C0
08C0
0C80
0700
ENDCHAR
STARTCHAR 0289
ENCODING 649
SWIDTH 500 0
DWIDTH 14 0
BBX 12 16 1 0
BITMAP
2040
E1C0
2040
2040
2040
2040
FFF0
2040
2040
2040
2040
2040
2040
30E0
1170
0E00
ENDCHAR
STARTCHAR 028A
ENCODING 650
SWIDTH 500 0
DWIDTH 14 0
BBX 10 15 2 0
BITMAP
F3C0
6180
4080
4080
C0C0
C0C0
C040
C040
C0C0
C0C0
C0C0
C0C0
6180
2100
1E00
ENDCHAR
STARTCHAR 028B
ENCODING 651
SWIDTH 500 0
DWIDTH 14 0
BBX 11 16 1 0
BITMAP
2000
E080
21C0
20C0
2060
2060
2020
2020
2020
2040
2040
2040
2040
3080
3100
1E00
ENDCHAR
STARTCHAR 028C
ENCODING 652
SWIDTH 500 0
DWIDTH 14 0
BBX 12 14 1 2
BITMAP
0400
0600
0600
0A00
0B00
0B00
1100
1180
1180
20C0
20C0
20C0
6060
F1F0
ENDCHAR
STARTCHAR 028D
ENCODING 653
SWIDTH 500 0
DWIDTH 14 0
BBX 14 14 0 2
BITMAP
0840
0840
0840
18E0
1CE0
14A0
14A0
2530
2730
2730
2310
2210
4218
F7BC
ENDCHAR
STARTCHAR 028E
ENCODING 654
SWIDTH 500 0
DWIDTH 14 0
BBX 14 19 0 2
BITMAP
0038
005C
0098
0080
0100
0100
0200
0200
0300
0700
0500
0980
0880
08C0
1040
1060
1060
2030
F8F8
ENDCHAR
STARTCHAR 0290
ENCODING 656
SWIDTH 500 0
DWIDTH 14 0
BBX 13 18 1 -3
BITMAP
7F80
4100
4300
8600
0400
0C00
0800
1800
3080
2080
6080
C180
FF80
0080
0080
0098
0058
0070
ENDCHAR
STARTCHAR 0291
ENCODING 657
SWIDTH 500 0
DWIDTH 14 0
BBX 11 16 2 -1
BITMAP
7FC0
4180
4100
8300
0600
0400
0C00
1800
3000
31C0
6220
C420
FFC0
1000
1000
2000
ENDCHAR
STARTCHAR 0292
ENCODING 658
SWIDTH 500 0
DWIDTH 14 0
BBX 10 18 2 -3
BITMAP
FF80
FF00
C200
8400
8800
1000
2000
7E00
0300
0180
0080
00C0
00C0
C080
E180
C180
6300
3E00
ENDCHAR
STARTCHAR 0294
ENCODING 660
SWIDTH 500 0
DWIDTH 14 0
BBX 9 19 3 2
BITMAP
3C00
4600
E300
6100
0100
0180
0100
0100
0300
0200
0400
1800
1000
1000
1000
1000
1000
1000
7C00
ENDCHAR
STARTCHAR 0295
ENCODING 661
SWIDTH 500 0
DWIDTH 14 0
BBX 9 19 2 2
BITMAP
1E00
3100
6380
4300
C000
C000
4000
4000
6000
2000
1000
0C00
0400
0400
0400
0400
0400
0400
1F00
ENDCHAR
STARTCHAR 0298
ENCODING 664
SWIDTH 500 0
DWIDTH 14 0
BBX 12 15 1 0
BITMAP
0F00
1080
2040
4020
4020
4620
8610
8610
8610
4020
4020
4060
20C0
1180
0F00
ENDCHAR
STARTCHAR 029D
ENCODING 669
SWIDTH 500 0
DWIDTH 14 0
BBX 10 24 1 -3
BITMAP
0600
0600
0600
0000
0000
0000
0E00
0600
0600
0600
0600
0600
0600
0600
0600
0600
0600
0600
0600
7E00
C600
8500
CC80
78C0
ENDCHAR
STARTCHAR 02A1
ENCODING 673
SWIDTH 500 0
DWIDTH 14 0
BBX 9 19 3 2
BITMAP
3C00
4600
E300
6300
0100
0180
0100
0100
0300
0300
0600
1800
1000
1000
FE00
1000
1000
1000
7C00
ENDCHAR
STARTCHAR 02A2
ENCODING 674
SWIDTH 500 0
DWIDTH 14 0
BBX 9 19 2 2
BITMAP
1E00
3100
6380
4300
4000
C000
C000
4000
6000
6000
3000
0C00
0400
0400
3F80
0400
0400
0400
1F00
ENDCHAR
STARTCHAR 02C7
ENCODING 711
SWIDTH 500 0
DWIDTH 14 0
BBX 10 3 2 18
BITMAP
C0C0
3300
1E00
ENDCHAR
STARTCHAR 02C8
ENCODING 712
SWIDTH 500 0
DWIDTH 14 0
BBX 0 0 7 21
BITMAP
ENDCHAR
STARTCHAR 02CC
ENCODING 716
SWIDTH 500 0
DWIDTH 14 0
BBX 0 0 7 -2
BITMAP
ENDCHAR
STARTCHAR 02D0
ENCODING 720
SWIDTH 500 0
DWIDTH 14 0
BBX 4 13 5 2
BITMAP
F0
60
60
40
00
00
00
00
00
40
60
60
F0
ENDCHAR
STARTCHAR 02D1
ENCODING 721
SWIDTH 500 0
DWIDTH 14 0
BBX 4 4 5 11
BITMAP
F0
60
60
40
ENDCHAR
STARTCHAR 02D8
ENCODING 728
SWIDTH 500 0
DWIDTH 14 0
BBX 10 4 2 17
BITMAP
C0C0
6080
3300
1E00
ENDCHAR
STARTCHAR 02D9
ENCODING 729
SWIDTH 500 0
DWIDTH 14 0
BBX 4 3 5 18
BITMAP
60
F0
60
ENDCHAR
STARTCHAR 02DB
ENCODING 731
SWIDTH 500 0
DWIDTH 14 0
BBX 6 6 4 -1
BITMAP
30
40
C0
80
C4
F8
ENDCHAR
STARTCHAR 02DC
ENCODING 732
SWIDTH 500 0
DWIDTH 14 0
BBX 10 3 2 18
BITMAP
3840
4C80
8700
ENDCHAR
STARTCHAR 02DD
ENCODING 733
SWIDTH 500 0
DWIDTH 14 0
BBX 11 3 1 18
BITMAP
1FE0
3300
C400
ENDCHAR
STARTCHAR 02DE
ENCODING 734
SWIDTH 500 0
DWIDTH 14 0
BBX 9 5 2 7
BITMAP
3000
F080
0880
0F80
0700
ENDCHAR
STARTCHAR 02E5
ENCODING 741
SWIDTH 500 0
DWIDTH 14 0
BBX 7 28 3 -3
BITMAP
FE
02
02
02
02
02
02
02
02
02
02
02
02
02
02
02
02
02
02
02
02
02
02
02
02
02
02
02
ENDCHAR
STARTCHAR 02E6
ENCODING 742
SWIDTH 500 0
DWIDTH 14 0
BBX 7 28 3 -3
BITMAP
02
02
02
02
02
02
02
FE
02
02
02
02
02
02
02
02
02
02
02
02
02
02
02
02
02
02
02
02
ENDCHAR
STARTCHAR 02E7
ENCODING 743
SWIDTH 500 0
DWIDTH 14 0
BBX 7 28 3 -3
BITMAP
02
02
02
02
02
02
02
02
02
02
02
02
02
02
FE
02
02
02
02
02
02
02
02
02
02
02
02
02
ENDCHAR
STARTCHAR 02E8
ENCODING 744
SWIDTH 500 0
DWIDTH 14 0
BBX 7 28 3 -3
BITMAP
02
02
02
02
02
02
02
02
02
02
02
02
02
02
02
02
02
02
02
02
02
FE
02
02
02
02
02
02
ENDCHAR
STARTCHAR 02E9
ENCODING 745
SWIDTH 500 0
DWIDTH 14 0
BBX 7 28 3 -3
BITMAP
02
02
02
02
02
02
02
02
02
02
02
02
02
02
02
02
02
02
02
02
02
02
02
02
02
02
02
FE
ENDCHAR
STARTCHAR 0300
ENCODING 768
SWIDTH 500 0
DWIDTH 14 0
BBX 6 2 3 22
BITMAP
F0
0C
ENDCHAR
STARTCHAR 0301
ENCODING 769
SWIDTH 500 0
DWIDTH 14 0
BBX 6 2 5 22
BITMAP
3C
C0
ENDCHAR
STARTCHAR 0302
ENCODING 770
SWIDTH 500 0
DWIDTH 14 0
BBX 6 2 4 22
BITMAP
30
CC
ENDCHAR
STARTCHAR 0303
ENCODING 771
SWIDTH 500 0
DWIDTH 14 0
BBX 8 2 3 22
BITMAP
71
8E
ENDCHAR
STARTCHAR 0304
ENCODING 772
SWIDTH 500 0
DWIDTH 14 0
BBX 8 1 3 23
BITMAP
FF
ENDCHAR
STARTCHAR 0306
ENCODING 774
SWIDTH 500 0
DWIDTH 14 0
BBX 6 3 4 21
BITMAP
84
CC
78
ENDCHAR
STARTCHAR 0308
ENCODING 776
SWIDTH 500 0
DWIDTH 14 0
BBX 8 2 3 22
BITMAP
C3
E7
ENDCHAR
STARTCHAR 030B
ENCODING 779
SWIDTH 500 0
DWIDTH 14 0
BBX 10 2 3 22
BITMAP
3DC0
CE00
ENDCHAR
STARTCHAR 030C
ENCODING 780
SWIDTH 500 0
DWIDTH 14 0
BBX 6 2 4 22
BITMAP
CC
30
ENDCHAR
STARTCHAR 030F
ENCODING 783
SWIDTH 500 0
DWIDTH 14 0
BBX 10 2 1 22
BITMAP
EF00
1CC0
ENDCHAR
STARTCHAR 0318
ENCODING 792
SWIDTH 500 0
DWIDTH 14 0
BBX 3 3 5 -3
BITMAP
20
E0
20
ENDCHAR
STARTCHAR 0319
ENCODING 793
SWIDTH 500 0
DWIDTH 14 0
BBX 3 3 6 -3
BITMAP
80
E0
80
ENDCHAR
STARTCHAR 031A
ENCODING 794
SWIDTH 500 0
DWIDTH 14 0
BBX 5 3 8 21
BITMAP
F8
08
08
ENDCHAR
STARTCHAR 031C
ENCODING 796
SWIDTH 500 0
DWIDTH 14 0
BBX 3 4 5 -3
BITMAP
20
40
C0
60
ENDCHAR
STARTCHAR 031D
ENCODING 797
SWIDTH 500 0
DWIDTH 14 0
BBX 6 3 4 -3
BITMAP
30
30
FC
ENDCHAR
STARTCHAR 031E
ENCODING 798
SWIDTH 500 0
DWIDTH 14 0
BBX 6 3 4 -3
BITMAP
FC
30
30
ENDCHAR
STARTCHAR 031F
ENCODING 799
SWIDTH 500 0
DWIDTH 14 0
BBX 6 4 4 -3
BITMAP
30
30
FC
30
ENDCHAR
STARTCHAR 0320
ENCODING 800
SWIDTH 500 0
DWIDTH 14 0
BBX 6 1 4 -2
BITMAP
FC
ENDCHAR
STARTCHAR 0324
ENCODING 804
SWIDTH 500 0
DWIDTH 14 0
BBX 8 2 3 -2
BITMAP
C3
E7
ENDCHAR
STARTCHAR 0325
ENCODING 805
SWIDTH 500 0
DWIDTH 14 0
BBX 4 3 5 -3
BITMAP
E0
90
60
ENDCHAR
STARTCHAR 0329
ENCODING 809
SWIDTH 500 0
DWIDTH 14 0
BBX 0 0 7 -3
BITMAP
ENDCHAR
STARTCHAR 032A
ENCODING 810
SWIDTH 500 0
DWIDTH 14 0
BBX 6 3 4 -3
BITMAP
FC
84
84
ENDCHAR
STARTCHAR 032C
ENCODING 812
SWIDTH 500 0
DWIDTH 14 0
BBX 6 2 4 -2
BITMAP
CC
30
ENDCHAR
STARTCHAR 032F
ENCODING 815
SWIDTH 500 0
DWIDTH 14 0
BBX 6 3 4 -3
BITMAP
78
CC
84
ENDCHAR
STARTCHAR 0330
ENCODING 816
SWIDTH 500 0
DWIDTH 14 0
BBX 8 2 3 -2
BITMAP
71
8E
ENDCHAR
STARTCHAR 0334
ENCODING 820
SWIDTH 500 0
DWIDTH 14 0
BBX 8 2 3 10
BITMAP
71
8E
ENDCHAR
STARTCHAR 0339
ENCODING 825
SWIDTH 500 0
DWIDTH 14 0
BBX 3 4 6 -3
BITMAP
80
40
60
C0
ENDCHAR
STARTCHAR 033A
ENCODING 826
SWIDTH 500 0
DWIDTH 14 0
BBX 6 3 4 -3
BITMAP
84
84
FC
ENDCHAR
STARTCHAR 033B
ENCODING 827
SWIDTH 500 0
DWIDTH 14 0
BBX 6 3 4 -3
BITMAP
FC
84
FC
ENDCHAR
STARTCHAR 033C
ENCODING 828
SWIDTH 500 0
DWIDTH 14 0
BBX 8 2 3 -2
BITMAP
66
99
ENDCHAR
STARTCHAR 033D
ENCODING 829
SWIDTH 500 0
DWIDTH 14 0
BBX 8 2 3 22
BITMAP
FF
E7
ENDCHAR
STARTCHAR 0361
ENCODING 865
SWIDTH 500 0
DWIDTH 14 0
BBX 12 3 1 21
BITMAP
1F80
6060
8010
ENDCHAR
STARTCHAR 0391
ENCODING 913
SWIDTH 1000 0
DWIDTH 28 0
BBX 22 20 3 2
BITMAP
002000
003000
003000
005800
005800
008C00
008C00
018E00
010600
030600
020300
020300
07FF80
040180
0C01C0
0800C0
1800C0
100060
300070
FE03FC
ENDCHAR
STARTCHAR 0392
ENCODING 914
SWIDTH 1000 0
DWIDTH 28 0
BBX 17 19 5 2
BITMAP
FFF800
180E00
180600
180300
180300
180300
180300
180600
181C00
1FF000
180E00
180380
180180
180180
180180
180180
180380
180700
FFFC00
ENDCHAR
STARTCHAR 0393
ENCODING 915
SWIDTH 1000 0
DWIDTH 28 0
BBX 16 19 6 2
BITMAP
FFFF
3807
3003
3001
3001
3001
3000
3000
3000
3000
3000
3000
3000
3000
3000
3000
3000
3800
FE00
ENDCHAR
STARTCHAR 0394
ENCODING 916
SWIDTH 1000 0
DWIDTH 28 0
BBX 18 20 5 2
BITMAP
00C000
00C000
01E000
016000
036000
023000
023000
041800
041800
080C00
080C00
100600
100600
300300
200300
200300
400180
400180
FFFFC0
FFFFC0
ENDCHAR
STARTCHAR 0395
ENCODING 917
SWIDTH 1000 0
DWIDTH 28 0
BBX 17 19 5 2
BITMAP
FFFF00
380300
180100
180100
180100
180100
180800
180800
181800
1FF800
181800
180800
180800
180000
180080
180080
180180
380380
FFFF80
ENDCHAR
STARTCHAR 0396
ENCODING 918
SWIDTH 1000 0
DWIDTH 28 0
BBX 16 19 6 2
BITMAP
7FFE
7006
600C
401C
4038
0030
0060
00C0
01C0
0180
0300
0600
0E00
1C01
1801
3001
6003
E007
FFFF
ENDCHAR
STARTCHAR 0397
ENCODING 919
SWIDTH 1000 0
DWIDTH 28 0
BBX 20 19 4 2
BITMAP
FE07F0
3801C0
180180
180180
180180
180180
180180
180180
180180
1FFF80
180180
180180
180180
180180
180180
180180
180180
3801C0
FE07F0
ENDCHAR
STARTCHAR 0398
ENCODING 920
SWIDTH 1000 0
DWIDTH 28 0
BBX 18 20 5 1
BITMAP
03F000
0E1C00
180600
300300
600180
600180
C001C0
C804C0
C804C0
CFFCC0
CFFCC0
C804C0
C804C0
C000C0
600180
600180
300300
380300
0C0C00
03F000
ENDCHAR
STARTCHAR 0399
ENCODING 921
SWIDTH 1000 0
DWIDTH 28 0
BBX 8 19 10 2
BITMAP
FF
18
18
18
18
18
18
18
18
18
18
18
18
18
18
18
18
18
FF
ENDCHAR
STARTCHAR 039A
ENCODING 922
SWIDTH 1000 0
DWIDTH 28 0
BBX 20 19 5 2
BITMAP
FE1FC0
300600
300C00
301800
303000
306000
30C000
318000
338000
36C000
386000
303000
303800
301C00
300E00
300600
300300
300380
FE0FF0
ENDCHAR
STARTCHAR 039B
ENCODING 923
SWIDTH 1000 0
DWIDTH 28 0
BBX 20 20 4 2
BITMAP
006000
006000
006000
00B000
00B000
01B800
011800
011800
020C00
020C00
060E00
040600
0C0600
080300
080300
100380
100180
300180
3001C0
FE0FF0
ENDCHAR
STARTCHAR 039C
ENCODING 924
SWIDTH 1000 0
DWIDTH 28 0
BBX 24 19 2 2
BITMAP
FC001F
1C0038
1C0038
160078
160058
130058
130098
130098
118118
118118
10C118
10C218
106218
106418
106418
103818
103818
101818
FC107F
ENDCHAR
STARTCHAR 039D
ENCODING 925
SWIDTH 1000 0
DWIDTH 28 0
BBX 20 20 4 1
BITMAP
F803F0
3C00C0
2C0040
260040
270040
238040
218040
20C040
20E040
207040
203840
201840
200C40
200E40
200740
2003C0
2001C0
2001C0
FC00C0
000040
ENDCHAR
STARTCHAR 039E
ENCODING 926
SWIDTH 1000 0
DWIDTH 28 0
BBX 16 19 6 2
BITMAP
7FFE
7FFE
4002
4002
4002
0000
0000
1008
1008
1FF8
1FF8
1008
1008
0000
0000
8001
8001
FFFF
FFFF
ENDCHAR
STARTCHAR 039F
ENCODING 927
SWIDTH 1000 0
DWIDTH 28 0
BBX 18 20 5 1
BITMAP
03F000
0E1C00
180600
300300
600180
600180
C000C0
C000C0
C000C0
C000C0
C000C0
C000C0
C000C0
C001C0
600180
600180
300300
380700
0C1C00
03F000
ENDCHAR
STARTCHAR 03A0
ENCODING 928
SWIDTH 1000 0
DWIDTH 28 0
BBX 20 19 4 2
BITMAP
FFFFF0
3801C0
180180
180180
180180
180180
180180
180180
180180
180180
180180
180180
180180
180180
180180
180180
180180
3801C0
FE07F0
ENDCHAR
STARTCHAR 03A1
ENCODING 929
SWIDTH 1000 0
DWIDTH 28 0
BBX 17 19 6 2
BITMAP
FFF800
380E00
180700
180300
180380
180380
180380
180300
180700
181E00
1FF000
180000
180000
180000
180000
180000
180000
380000
FE0000
ENDCHAR
STARTCHAR 03A3
ENCODING 931
SWIDTH 1000 0
DWIDTH 28 0
BBX 17 19 5 2
BITMAP
FFFF80
700380
380180
1C0080
0E0080
070000
038000
01C000
006000
004000
008000
010000
020000
040080
080080
100080
200180
7FFF80
FFFF80
ENDCHAR
STARTCHAR 03A4
ENCODING 932
SWIDTH 1000 0
DWIDTH 28 0
BBX 18 19 5 2
BITMAP
FFFFC0
E0C0C0
80C040
80C040
80C040
80C040
00C000
00C000
00C000
00C000
00C000
00C000
00C000
00C000
00C000
00C000
00C000
00C000
07F800
ENDCHAR
STARTCHAR 03A5
ENCODING 933
SWIDTH 1000 0
DWIDTH 28 0
BBX 18 19 5 2
BITMAP
1E1E00
3F3F80
63F180
C1E0C0
80C040
80C040
00C000
00C000
00C000
00C000
00C000
00C000
00C000
00C000
00C000
00C000
00C000
00C000
07F800
ENDCHAR
STARTCHAR 03A6
ENCODING 934
SWIDTH 1000 0
DWIDTH 28 0
BBX 18 19 5 2
BITMAP
07F000
00C000
00C000
07F800
18C600
70C300
60C180
C0C0C0
C0C0C0
C0C0C0
C0C0C0
C0C0C0
60C180
70C380
18C600
07F800
00C000
00C000
07F000
ENDCHAR
STARTCHAR 03A7
ENCODING 935
SWIDTH 1000 0
DWIDTH 28 0
BBX 21 19 4 2
BITMAP
FF0FE0
380380
0C0300
0E0200
070400
030800
019800
00D000
00E000
007000
00B000
011800
030C00
060E00
040700
080300
100180
3001C0
FE07F8
ENDCHAR
STARTCHAR 03A8
ENCODING 936
SWIDTH 1000 0
DWIDTH 28 0
BBX 22 19 3 2
BITMAP
70FC38
F8307C
983064
183060
083040
083040
083040
0830C0
0C30C0
0C30C0
0C30C0
063180
023300
01FE00
003000
003000
003000
003000
01FE00
ENDCHAR
STARTCHAR 03A9
ENCODING 937
SWIDTH 1000 0
DWIDTH 28 0
BBX 18 19 5 2
BITMAP
03F000
0E1C00
180600
300300
600180
600180
600180
E001C0
E001C0
600180
600180
600180
300300
300300
180600
861840
821040
FE1FC0
FE1FC0
ENDCHAR
STARTCHAR 03B1
ENCODING 945
SWIDTH 1000 0
DWIDTH 28 0
BBX 16 14 6 1
BITMAP
03C6
0E64
1C6C
1828
3028
6030
6030
6020
C060
C060
C0A1
C131
6232
3C1C
ENDCHAR
STARTCHAR 03B2
ENCODING 946
SWIDTH 1000 0
DWIDTH 28 0
BBX 14 24 6 -3
BITMAP
01E0
03F8
0718
040C
0C0C
080C
0808
1818
17B0
17C0
3020
3030
2010
2018
2018
6030
6030
6060
50E0
4F80
C000
C000
C000
C000
ENDCHAR
STARTCHAR 03B3
ENCODING 947
SWIDTH 1000 0
DWIDTH 28 0
BBX 16 18 5 -3
BITMAP
1C03
3E06
4606
830C
0108
0118
0110
00A0
00A0
00C0
00C0
0080
0080
0180
0180
0180
0180
0100
ENDCHAR
STARTCHAR 03B4
ENCODING 948
SWIDTH 1000 0
DWIDTH 28 0
BBX 12 20 8 1
BITMAP
1F80
30E0
3030
1000
1800
0C00
0300
0F80
18C0
7060
6060
C060
C060
C060
8060
80C0
80C0
C180
6300
3E00
ENDCHAR
STARTCHAR 03B5
ENCODING 949
SWIDTH 1000 0
DWIDTH 28 0
BBX 11 14 8 1
BITMAP
1F80
3FC0
7020
6000
4000
3F00
6F00
C000
C000
8000
C020
E0C0
7F80
3F00
ENDCHAR
STARTCHAR 03B6
ENCODING 950
SWIDTH 1000 0
DWIDTH 28 0
BBX 13 25 7 -3
BITMAP
0400
0E38
1870
18E0
19C0
0600
0400
0800
1800
3000
2000
6000
4000
4000
C000
C000
C000
6000
7000
1F00
07C0
00C0
0C60
0C40
0780
ENDCHAR
STARTCHAR 03B7
ENCODING 951
SWIDTH 1000 0
DWIDTH 28 0
BBX 13 18 6 -3
BITMAP
78F0
8B18
0A08
0C08
0C08
0C18
1818
1818
1810
3030
3030
3030
6020
0060
0060
0060
0060
00C0
ENDCHAR
STARTCHAR 03B8
ENCODING 952
SWIDTH 1000 0
DWIDTH 28 0
BBX 13 20 7 1
BITMAP
01E0
0630
0C30
1818
1818
3018
3018
6018
6018
7FF8
6018
6030
C030
C030
4060
4060
60C0
6180
3300
1E00
ENDCHAR
STARTCHAR 03B9
ENCODING 953
SWIDTH 1000 0
DWIDTH 28 0
BBX 7 14 10 1
BITMAP
18
30
30
20
60
40
40
C0
80
80
82
C6
FC
78
ENDCHAR
STARTCHAR 03BA
ENCODING 954
SWIDTH 1000 0
DWIDTH 28 0
BBX 14 14 7 1
BITMAP
0C1C
1878
18E0
1900
1600
3800
3F00
2300
6100
6100
4108
C198
C1F0
00E0
ENDCHAR
STARTCHAR 03BB
ENCODING 955
SWIDTH 1000 0
DWIDTH 28 0
BBX 15 20 6 1
BITMAP
0700
0F80
1880
0080
0080
0080
0080
0080
0180
0380
0380
0680
0C80
0C80
1880
30C0
30C2
6044
C078
0030
ENDCHAR
STARTCHAR 03BC
ENCODING 956
SWIDTH 1000 0
DWIDTH 28 0
BBX 17 18 5 -3
BITMAP
060600
060600
040C00
0C0C00
080800
080800
101800
101800
101000
303100
383080
38D100
2FDF00
670E00
400000
400000
400000
C00000
ENDCHAR
STARTCHAR 03BD
ENCODING 957
SWIDTH 1000 0
DWIDTH 28 0
BBX 14 14 7 1
BITMAP
701C
F81C
1804
0804
0C04
0C0C
0808
0818
0870
18E0
1B80
1F00
3C00
2000
ENDCHAR
STARTCHAR 03BE
ENCODING 958
SWIDTH 1000 0
DWIDTH 28 0
BBX 11 25 8 -3
BITMAP
0800
10E0
11C0
0F00
0400
0800
1800
1000
1000
11C0
1FC0
0F80
3000
6000
4000
C000
C000
C000
7000
3F00
0780
0080
3080
3980
1F00
ENDCHAR
STARTCHAR 03BF
ENCODING 959
SWIDTH 1000 0
DWIDTH 28 0
BBX 12 14 8 1
BITMAP
0F80
18C0
3060
6030
6030
6030
C030
C030
C030
C060
6060
60C0
31C0
1F00
ENDCHAR
STARTCHAR 03C0
ENCODING 960
SWIDTH 1000 0
DWIDTH 28 0
BBX 15 15 7 1
BITMAP
0004
3FFE
7FF8
C440
0840
08C0
0880
1080
1080
3180
3180
618C
6188
C0F0
00E0
ENDCHAR
STARTCHAR 03C1
ENCODING 961
SWIDTH 1000 0
DWIDTH 28 0
BBX 14 18 6 -3
BITMAP
01E0
0638
0C18
080C
180C
100C
300C
300C
380C
7818
6818
6C70
63C0
4000
4000
C000
C000
C000
ENDCHAR
STARTCHAR 03C2
ENCODING 962
SWIDTH 500 0
DWIDTH 14 0
BBX 12 18 1 -3
BITMAP
0F80
3860
3020
6070
6060
6000
6000
2000
3000
1800
0C00
0600
0300
0180
0180
E100
6300
3E00
ENDCHAR
STARTCHAR 03C3
ENCODING 963
SWIDTH 1000 0
DWIDTH 28 0
BBX 14 14 8 1
BITMAP
0FFC
107C
2020
6020
6030
4030
C030
C030
C030
C070
6060
60C0
31C0
1F00
ENDCHAR
STARTCHAR 03C4
ENCODING 964
SWIDTH 1000 0
DWIDTH 28 0
BBX 14 15 7 1
BITMAP
0004
3FFC
7FF8
C100
0200
0200
0400
0C00
0800
0800
1800
1820
1840
1FC0
0F00
ENDCHAR
STARTCHAR 03C5
ENCODING 965
SWIDTH 1000 0
DWIDTH 28 0
BBX 14 14 6 1
BITMAP
3818
FC1C
0C0C
0C04
0C04
0804
1804
1004
300C
3008
3018
3870
1FE0
0F80
ENDCHAR
STARTCHAR 03C6
ENCODING 966
SWIDTH 1000 0
DWIDTH 28 0
BBX 14 23 7 -3
BITMAP
0060
0040
0040
00C0
0080
07E0
18B8
3198
610C
C10C
C10C
C20C
C20C
C20C
C20C
C418
6430
3DE0
0600
0800
0800
1800
1800
ENDCHAR
STARTCHAR 03C7
ENCODING 967
SWIDTH 1000 0
DWIDTH 28 0
BBX 15 18 6 -3
BITMAP
1C0E
3E0C
4618
0330
0330
0160
0140
01C0
0180
0380
0280
0680
0C80
1884
18C6
30C4
607C
E038
ENDCHAR
STARTCHAR 03C8
ENCODING 968
SWIDTH 1000 0
DWIDTH 28 0
BBX 15 23 7 -3
BITMAP
0060
0060
0040
00C0
08C8
18C8
3084
6084
4186
C106
C106
8106
8106
C20E
C20C
C218
6630
3DE0
0600
0C00
0C00
0800
1800
ENDCHAR
STARTCHAR 03C9
ENCODING 969
SWIDTH 1000 0
DWIDTH 28 0
BBX 18 14 5 1
BITMAP
060300
080100
100080
300080
6020C0
6060C0
40E0C0
C0E0C0
C0C0C0
C0C080
E08180
634300
7E4600
3C3C00
ENDCHAR
STARTCHAR 0401
ENCODING 1025
SWIDTH 1000 0
DWIDTH 28 0
BBX 17 23 5 2
BITMAP
0C0C00
0C0C00
0C0C00
000000
FFFF00
380300
180100
180100
180100
180100
180800
180800
181800
1FF800
181800
180800
180800
180000
180080
180080
180180
380380
FFFF80
ENDCHAR
STARTCHAR 0410
ENCODING 1040
SWIDTH 1000 0
DWIDTH 28 0
BBX 22 20 3 2
BITMAP
002000
003000
003000
005800
005800
008C00
008C00
018E00
010600
030600
020300
020300
07FF80
040180
0C01C0
0800C0
1800C0
100060
300070
FE03FC
ENDCHAR
STARTCHAR 0411
ENCODING 1041
SWIDTH 1000 0
DWIDTH 28 0
BBX 17 19 5 2
BITMAP
FFFF00
180700
180100
180100
180100
180100
180000
180000
180000
1FF800
180700
180380
180180
180180
180180
180180
180380
180700
FFFC00
ENDCHAR
STARTCHAR 0412
ENCODING 1042
SWIDTH 1000 0
DWIDTH 28 0
BBX 17 19 5 2
BITMAP
FFF800
180E00
180600
180300
180300
180300
180300
180600
181C00
1FF000
180E00
180380
180180
180180
180180
180180
180380
180700
FFFC00
ENDCHAR
STARTCHAR 0413
ENCODING 1043
SWIDTH 1000 0
DWIDTH 28 0
BBX 16 19 6 2
BITMAP
FFFF
3807
3003
3001
3001
3001
3000
3000
3000
3000
3000
3000
3000
3000
3000
3000
3000
3800
FE00
ENDCHAR
STARTCHAR 0414
ENCODING 1044
SWIDTH 1000 0
DWIDTH 28 0
BBX 20 23 4 -2
BITMAP
1FFFE0
020380
020180
020180
020180
020180
020180
060180
040180
040180
040180
040180
080180
080180
180180
100180
300180
200380
FFFFF0
C00030
800030
800010
800010
ENDCHAR
STARTCHAR 0415
ENCODING 1045
SWIDTH 1000 0
DWIDTH 28 0
BBX 17 19 5 2
BITMAP
FFFF00
380300
180100
180100
180100
180100
180800
180800
181800
1FF800
181800
180800
180800
180000
180080
180080
180180
380380
FFFF80
ENDCHAR
STARTCHAR 0416
ENCODING 1046
SWIDTH 1000 0
DWIDTH 28 0
BBX 26 19 1 2
BITMAP
383F0700
740C0B00
340C0B80
020C1000
020C1000
020C1000
010C2000
008C4000
004C8000
00FFC000
00CCC000
018C6000
030C3000
070C3800
060C1800
0C0C0C00
1C0C0E00
380C0700
FE3F1FC0
ENDCHAR
STARTCHAR 0417
ENCODING 1047
SWIDTH 1000 0
DWIDTH 28 0
BBX 14 20 7 1
BITMAP
0FC0
7830
6018
4018
400C
001C
0018
0018
0070
0F80
0070
0018
000C
000C
800C
800C
C00C
E01C
7038
1FC0
ENDCHAR
STARTCHAR 0418
ENCODING 1048
SWIDTH 1000 0
DWIDTH 28 0
BBX 20 19 4 2
BITMAP
FE07F0
3801C0
180180
180180
180180
180780
180D80
181180
182180
184180
188180
190180
1E0180
1C0180
180180
180180
180180
3801C0
FE07F0
ENDCHAR
STARTCHAR 0419
ENCODING 1049
SWIDTH 1000 0
DWIDTH 28 0
BBX 20 22 4 2
BITMAP
030C00
030C00
01F800
FE07F0
3801C0
180180
180180
180180
180780
180D80
181180
182180
184180
188180
190180
1E0180
1C0180
180180
180180
180180
3801C0
FE07F0
ENDCHAR
STARTCHAR 041A
ENCODING 1050
SWIDTH 1000 0
DWIDTH 28 0
BBX 20 19 5 2
BITMAP
FE0780
300DC0
3009C0
3019C0
301000
303000
302000
30C000
3F8000
30C000
306000
303000
303800
301C00
300E00
300600
300300
300380
FE0FF0
ENDCHAR
STARTCHAR 041B
ENCODING 1051
SWIDTH 1000 0
DWIDTH 28 0
BBX 20 20 3 1
BITMAP
03FFF0
00C0C0
0080C0
0080C0
0080C0
0080C0
0080C0
0080C0
0080C0
0080C0
0080C0
0080C0
0080C0
0080C0
6080C0
E100C0
8100C0
C300C0
4607F0
3C0000
ENDCHAR
STARTCHAR 041C
ENCODING 1052
SWIDTH 1000 0
DWIDTH 28 0
BBX 24 19 2 2
BITMAP
7E003E
0E0070
0E0070
0B00B0
0B0090
198098
198118
118118
10C218
10C218
106418
106418
106418
103818
103818
101018
101008
30001C
FE007F
ENDCHAR
STARTCHAR 041D
ENCODING 1053
SWIDTH 1000 0
DWIDTH 28 0
BBX 20 19 4 2
BITMAP
FE07F0
3801C0
180180
180180
180180
180180
180180
180180
180180
1FFF80
180180
180180
180180
180180
180180
180180
180180
3801C0
FE07F0
ENDCHAR
STARTCHAR 041E
ENCODING 1054
SWIDTH 1000 0
DWIDTH 28 0
BBX 18 20 5 1
BITMAP
03F000
0E1C00
180600
300300
600180
600180
C000C0
C000C0
C000C0
C000C0
C000C0
C000C0
C000C0
C001C0
600180
600180
300300
380700
0C1C00
03F000
ENDCHAR
STARTCHAR 041F
ENCODING 1055
SWIDTH 1000 0
DWIDTH 28 0
BBX 20 19 4 2
BITMAP
FFFFF0
3801C0
180180
180180
180180
180180
180180
180180
180180
180180
180180
180180
180180
180180
180180
180180
180180
3801C0
FE07F0
ENDCHAR
STARTCHAR 0420
ENCODING 1056
SWIDTH 1000 0
DWIDTH 28 0
BBX 17 19 6 2
BITMAP
FFF800
380E00
180700
180300
180380
180380
180380
180300
180700
181E00
1FF000
180000
180000
180000
180000
180000
180000
380000
FE0000
ENDCHAR
STARTCHAR 0421
ENCODING 1057
SWIDTH 1000 0
DWIDTH 28 0
BBX 18 20 5 1
BITMAP
01FC00
060780
180180
300080
600080
600000
E00000
C00000
C00000
C00000
C00000
C00000
C00000
E00040
600040
700040
3000C0
1C01C0
0E0780
01FC00
ENDCHAR
STARTCHAR 0422
ENCODING 1058
SWIDTH 1000 0
DWIDTH 28 0
BBX 18 19 5 2
BITMAP
FFFFC0
E0C0C0
80C040
80C040
80C040
80C040
00C000
00C000
00C000
00C000
00C000
00C000
00C000
00C000
00C000
00C000
00C000
00C000
07F800
ENDCHAR
STARTCHAR 0423
ENCODING 1059
SWIDTH 1000 0
DWIDTH 28 0
BBX 19 20 5 1
BITMAP
FF0FE0
380300
180200
0C0200
0C0400
060400
060C00
030800
038800
019000
01D000
00E000
006000
004000
004000
608000
708000
610000
620000
3C0000
ENDCHAR
STARTCHAR 0424
ENCODING 1060
SWIDTH 1000 0
DWIDTH 28 0
BBX 18 19 5 2
BITMAP
07F000
00C000
00C000
07F800
18C600
70C300
60C180
C0C0C0
C0C0C0
C0C0C0
C0C0C0
C0C0C0
60C180
70C380
18C600
07F800
00C000
00C000
07F000
ENDCHAR
STARTCHAR 0425
ENCODING 1061
SWIDTH 1000 0
DWIDTH 28 0
BBX 21 19 4 2
BITMAP
FF0FE0
380380
0C0300
0E0200
070400
030800
019800
00D000
00E000
007000
00B000
011800
030C00
060E00
040700
080300
100180
3001C0
FE07F8
ENDCHAR
STARTCHAR 0426
ENCODING 1062
SWIDTH 1000 0
DWIDTH 28 0
BBX 20 23 4 -2
BITMAP
FE0FE0
380180
300180
300180
300180
300180
300180
300180
300180
300180
300180
300180
300180
300180
300180
300180
300180
380380
FFFFF0
000070
000030
000010
000010
ENDCHAR
STARTCHAR 0427
ENCODING 1063
SWIDTH 1000 0
DWIDTH 28 0
BBX 18 19 5 2
BITMAP
FE1FC0
300700
300600
300600
300600
300600
300600
300600
300600
300600
180E00
0C1600
07E600
000600
000600
000600
000600
000700
001FC0
ENDCHAR
STARTCHAR 0428
ENCODING 1064
SWIDTH 1000 0
DWIDTH 28 0
BBX 24 19 2 2
BITMAP
FE7E7F
38181C
181818
181818
181818
181818
181818
181818
181818
181818
181818
181818
181818
181818
181818
181818
181818
38181C
FFFFFF
ENDCHAR
STARTCHAR 0429
ENCODING 1065
SWIDTH 1000 0
DWIDTH 28 0
BBX 24 23 2 -2
BITMAP
FEFE7F
301818
301818
301818
301818
301818
301818
301818
301818
301818
301818
301818
301818
301818
301818
301818
301818
383818
FFFFFF
000003
000001
000001
000001
ENDCHAR
STARTCHAR 042A
ENCODING 1066
SWIDTH 1000 0
DWIDTH 28 0
BBX 21 19 4 2
BITMAP
FFE000
C30000
830000
830000
830000
830000
030000
030000
030000
03FF80
0300E0
030070
030030
030038
030038
030038
030070
0380E0
0FFF80
ENDCHAR
STARTCHAR 042B
ENCODING 1067
SWIDTH 1000 0
DWIDTH 28 0
BBX 24 19 2 2
BITMAP
FF007F
180018
180018
180018
180018
180018
180018
180018
180018
1FF818
180E18
180718
180318
180398
180398
180318
180718
180E18
FFF87F
ENDCHAR
STARTCHAR 042C
ENCODING 1068
SWIDTH 1000 0
DWIDTH 28 0
BBX 17 19 6 2
BITMAP
FE0000
300000
300000
300000
300000
300000
300000
300000
300000
3FF800
300E00
300300
300300
300380
300380
300380
300300
380E00
FFF800
ENDCHAR
STARTCHAR 042D
ENCODING 1069
SWIDTH 1000 0
DWIDTH 28 0
BBX 18 20 5 1
BITMAP
0FE000
783C00
600E00
400300
800380
000180
0001C0
0000C0
0FC0C0
1FFFC0
007EC0
0000C0
0000C0
8001C0
800180
800380
C00300
E00E00
781C00
0FE000
ENDCHAR
STARTCHAR 042E
ENCODING 1070
SWIDTH 1000 0
DWIDTH 28 0
BBX 23 20 2 1
BITMAP
FE07C0
381830
183018
18200C
18600C
186006
18C006
18C006
18C006
1FC006
18C006
18C006
18C006
18E006
186006
18600C
18300C
183018
FE1C30
0007E0
ENDCHAR
STARTCHAR 042F
ENCODING 1071
SWIDTH 1000 0
DWIDTH 28 0
BBX 19 20 4 1
BITMAP
03FFE0
0E0380
1C0300
180300
180300
180300
180300
1C0300
0E0300
03FF00
00C300
01C300
018300
038300
070300
060300
1C0300
380300
600FE0
800000
ENDCHAR
STARTCHAR 0430
ENCODING 1072
SWIDTH 1000 0
DWIDTH 28 0
BBX 14 14 8 1
BITMAP
3F80
61C0
60C0
6040
0040
07C0
1840
6040
E040
C040
C040
C0E4
6178
3E30
ENDCHAR
STARTCHAR 0431
ENCODING 1073
SWIDTH 1000 0
DWIDTH 28 0
BBX 14 21 7 1
BITMAP
0008
0008
0018
07F0
1C00
3000
2000
4FC0
5860
6010
E018
E018
C00C
C00C
C00C
E01C
6018
6018
3030
1860
0FC0
ENDCHAR
STARTCHAR 0432
ENCODING 1074
SWIDTH 1000 0
DWIDTH 28 0
BBX 14 13 6 2
BITMAP
FFE0
3838
1018
1018
1018
1030
1FE0
1018
100C
100C
100C
3818
FFE0
ENDCHAR
STARTCHAR 0433
ENCODING 1075
SWIDTH 1000 0
DWIDTH 28 0
BBX 14 13 7 2
BITMAP
FFFC
381C
100C
1004
1004
1000
1000
1000
1000
1000
1000
1800
FE00
ENDCHAR
STARTCHAR 0434
ENCODING 1076
SWIDTH 1000 0
DWIDTH 28 0
BBX 16 17 6 -2
BITMAP
1FFE
0418
0418
0418
0418
0418
0818
0818
0818
1018
1018
201C
FFFF
C003
8001
8001
8001
ENDCHAR
STARTCHAR 0435
ENCODING 1077
SWIDTH 1000 0
DWIDTH 28 0
BBX 13 14 7 1
BITMAP
0F80
1860
3030
6030
6018
E018
FFF8
C000
C000
6000
6008
3010
1820
0FC0
ENDCHAR
STARTCHAR 0436
ENCODING 1078
SWIDTH 1000 0
DWIDTH 28 0
BBX 22 13 3 2
BITMAP
70FC38
783078
043080
043080
023100
03B700
027900
063180
0C30C0
0C30C0
183060
303030
FCFCFC
ENDCHAR
STARTCHAR 0437
ENCODING 1079
SWIDTH 1000 0
DWIDTH 28 0
BBX 12 14 8 1
BITMAP
1F80
70C0
4060
4060
0060
00C0
0F00
00E0
0060
8030
C030
C060
E0E0
1F80
ENDCHAR
STARTCHAR 0438
ENCODING 1080
SWIDTH 1000 0
DWIDTH 28 0
BBX 16 13 6 2
BITMAP
FC3F
300C
301C
303C
306C
308C
310C
320C
340C
380C
300C
300C
FC3F
ENDCHAR
STARTCHAR 0439
ENCODING 1081
SWIDTH 1000 0
DWIDTH 28 0
BBX 16 18 6 2
BITMAP
0C30
0C30
0C30
03C0
0000
FC3F
300C
301C
303C
306C
308C
310C
320C
340C
380C
300C
300C
FC3F
ENDCHAR
STARTCHAR 043A
ENCODING 1082
SWIDTH 1000 0
DWIDTH 28 0
BBX 16 13 7 2
BITMAP
FC1C
302C
3060
3040
3080
3F80
3180
30C0
3060
3030
3030
3018
FC7F
ENDCHAR
STARTCHAR 043B
ENCODING 1083
SWIDTH 1000 0
DWIDTH 28 0
BBX 16 14 5 1
BITMAP
0FFF
030C
020C
020C
020C
020C
020C
020C
020C
C20C
C40C
C40C
CC3F
7800
ENDCHAR
STARTCHAR 043C
ENCODING 1084
SWIDTH 1000 0
DWIDTH 28 0
BBX 18 13 5 2
BITMAP
F807C0
380700
280B00
2C0B00
240B00
261300
261300
232300
232300
214300
21C300
208300
F88FC0
ENDCHAR
STARTCHAR 043D
ENCODING 1085
SWIDTH 1000 0
DWIDTH 28 0
BBX 16 13 6 2
BITMAP
FC3F
300C
300C
300C
300C
300C
3FFC
300C
300C
300C
300C
300C
FC3F
ENDCHAR
STARTCHAR 043E
ENCODING 1086
SWIDTH 1000 0
DWIDTH 28 0
BBX 14 14 7 1
BITMAP
0FC0
1860
3010
6018
6018
C00C
C00C
C00C
C01C
6018
6018
3030
1860
0FC0
ENDCHAR
STARTCHAR 043F
ENCODING 1087
SWIDTH 1000 0
DWIDTH 28 0
BBX 16 13 6 2
BITMAP
FFFF
380C
300C
300C
300C
300C
300C
300C
300C
300C
300C
300C
FC3F
ENDCHAR
STARTCHAR 0440
ENCODING 1088
SWIDTH 1000 0
DWIDTH 28 0
BBX 15 19 6 -3
BITMAP
1000
F3E0
3438
181C
180C
180E
1806
1806
1806
180E
180C
181C
1C38
1BE0
1800
1800
1800
3800
FE00
ENDCHAR
STARTCHAR 0441
ENCODING 1089
SWIDTH 1000 0
DWIDTH 28 0
BBX 13 14 7 1
BITMAP
07C0
1830
3030
6030
6000
6000
E000
E000
6000
6008
7008
3010
1C20
0FC0
ENDCHAR
STARTCHAR 0442
ENCODING 1090
SWIDTH 1000 0
DWIDTH 28 0
BBX 14 13 7 2
BITMAP
FFFC
E31C
C30C
8304
0300
0300
0300
0300
0300
0300
0300
0300
0FC0
ENDCHAR
STARTCHAR 0443
ENCODING 1091
SWIDTH 1000 0
DWIDTH 28 0
BBX 17 18 6 -3
BITMAP
FE3F80
380C00
180C00
080800
0C0800
061000
061000
032000
032000
01C000
01C000
008000
008000
010000
310000
390000
320000
1C0000
ENDCHAR
STARTCHAR 0444
ENCODING 1092
SWIDTH 1000 0
DWIDTH 28 0
BBX 16 25 6 -3
BITMAP
0080
0780
0180
0180
0180
0180
0180
1FF8
218C
6186
4183
C183
C183
C183
C183
C183
4183
6186
318C
1FF8
0180
0180
0180
0180
07E0
ENDCHAR
STARTCHAR 0445
ENCODING 1093
SWIDTH 1000 0
DWIDTH 28 0
BBX 17 13 5 2
BITMAP
7F3F80
0C0C00
060800
031000
032000
01C000
00C000
016000
023000
041800
080C00
180E00
FE1F80
ENDCHAR
STARTCHAR 0446
ENCODING 1094
SWIDTH 1000 0
DWIDTH 28 0
BBX 16 17 6 -2
BITMAP
FC7E
3018
3018
3018
3018
3018
3018
3018
3018
3018
3018
3018
FFFF
0003
0001
0001
0001
ENDCHAR
STARTCHAR 0447
ENCODING 1095
SWIDTH 1000 0
DWIDTH 28 0
BBX 15 13 6 2
BITMAP
FC7E
3018
3018
3018
3018
3018
1818
0FF8
0018
0018
0018
0018
007E
ENDCHAR
STARTCHAR 0448
ENCODING 1096
SWIDTH 1000 0
DWIDTH 28 0
BBX 22 13 3 2
BITMAP
FCFCFC
183060
103020
103020
103020
103020
103020
103020
103020
103020
103020
383070
FFFFFC
ENDCHAR
STARTCHAR 0449
ENCODING 1097
SWIDTH 1000 0
DWIDTH 28 0
BBX 22 17 3 -2
BITMAP
FCFCFC
183060
103020
103020
103020
103020
103020
103020
103020
103020
103020
383070
FFFFFC
00000C
000004
000004
000004
ENDCHAR
STARTCHAR 044A
ENCODING 1098
SWIDTH 1000 0
DWIDTH 28 0
BBX 16 13 6 2
BITMAP
FF80
CC00
8C00
8C00
0C00
0C00
0FF8
0C0E
0C07
0C03
0C07
0E0E
3FF8
ENDCHAR
STARTCHAR 044B
ENCODING 1099
SWIDTH 1000 0
DWIDTH 28 0
BBX 20 13 4 2
BITMAP
FE07F0
3001C0
100080
100080
100080
100080
1FE080
103880
101880
101C80
301880
3839C0
FFE7F0
ENDCHAR
STARTCHAR 044C
ENCODING 1100
SWIDTH 1000 0
DWIDTH 28 0
BBX 14 13 7 2
BITMAP
FE00
3000
1000
1000
1000
1000
1FE0
1038
100C
100C
100C
3838
FFE0
ENDCHAR
STARTCHAR 044D
ENCODING 1101
SWIDTH 1000 0
DWIDTH 28 0
BBX 14 14 7 1
BITMAP
1FC0
7070
6038
4018
000C
1E0C
3FFC
01EC
001C
0018
8018
4030
3060
0F80
ENDCHAR
STARTCHAR 044E
ENCODING 1102
SWIDTH 1000 0
DWIDTH 28 0
BBX 20 14 4 1
BITMAP
FC1F00
3071C0
30C060
30C060
318030
318030
3F8030
318030
318030
318030
30C060
30C060
FC71C0
001F00
ENDCHAR
STARTCHAR 044F
ENCODING 1103
SWIDTH 1000 0
DWIDTH 28 0
BBX 15 14 6 1
BITMAP
0FFE
1818
3018
3018
3018
1818
0FF8
0318
0618
0C18
0C18
1818
607E
8000
ENDCHAR
STARTCHAR 0451
ENCODING 1105
SWIDTH 1000 0
DWIDTH 28 0
BBX 13 19 7 1
BITMAP
1860
3870
1860
0000
0000
0F80
1860
3030
6030
6018
E018
FFF8
C000
C000
6000
6008
3010
1820
0FC0
ENDCHAR
STARTCHAR 1E3E
ENCODING 7742
SWIDTH 500 0
DWIDTH 14 0
BBX 14 22 0 2
BITMAP
01E0
0200
0400
F03C
3030
3850
3850
3850
2850
2850
2C90
2C90
2C90
2490
2510
2710
2710
2710
2310
2210
2230
F07C
ENDCHAR
STARTCHAR 1E3F
ENCODING 7743
SWIDTH 500 0
DWIDTH 14 0
BBX 14 17 0 2
BITMAP
01E0
0200
0400
2000
EEF0
3390
2310
2310
2310
2310
2310
2310
2310
2310
2310
2318
F7BC
ENDCHAR
STARTCHAR 1F70
ENCODING 8048
SWIDTH 500 0
DWIDTH 14 0
BBX 11 19 2 0
BITMAP
7800
0400
0200
0080
1E80
6380
6180
C180
C180
C180
C180
C180
C180
C180
C180
C180
43A0
63A0
1CC0
ENDCHAR
STARTCHAR 1F71
ENCODING 8049
SWIDTH 500 0
DWIDTH 14 0
BBX 11 19 2 0
BITMAP
0780
0800
1000
0080
1E80
6380
6180
C180
C180
C180
C180
C180
C180
C180
C180
C180
43A0
63A0
1CC0
ENDCHAR
STARTCHAR 1F72
ENCODING 8050
SWIDTH 500 0
DWIDTH 14 0
BBX 10 19 2 0
BITMAP
7800
0400
0200
0000
1F00
61C0
60C0
6040
6000
2000
1E00
6000
4000
C040
C040
C040
40C0
7180
3F00
ENDCHAR
STARTCHAR 1F73
ENCODING 8051
SWIDTH 500 0
DWIDTH 14 0
BBX 10 19 2 0
BITMAP
0780
0800
1000
0000
1F00
61C0
60C0
6040
6000
2000
1E00
6000
4000
C040
C040
C040
40C0
7180
3F00
ENDCHAR
STARTCHAR 2010
ENCODING 8208
SWIDTH 1000 0
DWIDTH 28 0
BBX 10 1 9 10
BITMAP
FFC0
ENDCHAR
STARTCHAR 2013
ENCODING 8211
SWIDTH 500 0
DWIDTH 14 0
BBX 6 1 4 10
BITMAP
FC
ENDCHAR
STARTCHAR 2014
ENCODING 8212
SWIDTH 1000 0
DWIDTH 28 0
BBX 26 1 1 10
BITMAP
FFFFFFC0
ENDCHAR
STARTCHAR 2015
ENCODING 8213
SWIDTH 1000 0
DWIDTH 28 0
BBX 26 1 1 10
BITMAP
FFFFFFC0
ENDCHAR
STARTCHAR 2016
ENCODING 8214
SWIDTH 1000 0
DWIDTH 28 0
BBX 6 28 11 -3
BITMAP
84
84
84
84
84
84
84
84
84
84
84
84
84
84
84
84
84
84
84
84
84
84
84
84
84
84
84
84
ENDCHAR
STARTCHAR 2018
ENCODING 8216
SWIDTH 1000 0
DWIDTH 28 0
BBX 4 8 22 16
BITMAP
20
30
40
C0
C0
E0
F0
60
ENDCHAR
STARTCHAR 2019
ENCODING 8217
SWIDTH 1000 0
DWIDTH 28 0
BBX 4 8 2 15
BITMAP
60
70
F0
30
20
60
40
80
ENDCHAR
STARTCHAR 201C
ENCODING 8220
SWIDTH 1000 0
DWIDTH 28 0
BBX 10 8 16 16
BITMAP
1040
3080
2100
4300
C300
F380
F3C0
6180
ENDCHAR
STARTCHAR 201D
ENCODING 8221
SWIDTH 1000 0
DWIDTH 28 0
BBX 10 8 2 15
BITMAP
6180
73C0
F3C0
30C0
2080
6100
4300
8400
ENDCHAR
STARTCHAR 2020
ENCODING 8224
SWIDTH 1000 0
DWIDTH 28 0
BBX 12 25 8 -2
BITMAP
0600
0F00
0F00
0600
6660
FFF0
FFF0
76E0
0600
0F00
0600
0600
0600
0600
0600
0600
0600
0600
0600
0600
0600
0600
0600
0600
0600
ENDCHAR
STARTCHAR 2021
ENCODING 8225
SWIDTH 1000 0
DWIDTH 28 0
BBX 12 26 8 -2
BITMAP
0600
0F00
0600
0600
76E0
FFF0
74E0
0600
0F00
0600
0600
0400
0400
0400
0400
0600
0600
0600
0600
7FE0
FDF0
7FE0
0600
0600
0F00
0600
ENDCHAR
STARTCHAR 2022
ENCODING 8226
SWIDTH 500 0
DWIDTH 14 0
BBX 6 6 4 8
BITMAP
70
78
FC
FC
7C
38
ENDCHAR
STARTCHAR 2025
ENCODING 8229
SWIDTH 1000 0
DWIDTH 28 0
BBX 18 4 5 9
BITMAP
600180
F003C0
F003C0
600180
ENDCHAR
STARTCHAR 2026
ENCODING 8230
SWIDTH 1000 0
DWIDTH 28 0
BBX 22 3 3 9
BITMAP
E0301C
E0781C
E0301C
ENDCHAR
STARTCHAR 2030
ENCODING 8240
SWIDTH 1000 0
DWIDTH 28 0
BBX 24 25 2 -2
BITMAP
000400
380C00
440800
C61800
C61000
863000
862000
866000
C64000
C6C000
448000
398000
010000
03381C
026422
06C663
04C663
0CC261
08C261
18C261
10C663
10C663
206422
20381C
400000
ENDCHAR
STARTCHAR 2032
ENCODING 8242
SWIDTH 1000 0
DWIDTH 28 0
BBX 4 7 1 16
BITMAP
30
30
20
20
40
40
80
ENDCHAR
STARTCHAR 2033
ENCODING 8243
SWIDTH 1000 0
DWIDTH 28 0
BBX 9 7 1 16
BITMAP
3180
3300
2300
2200
4200
4400
8400
ENDCHAR
STARTCHAR 203B
ENCODING 8251
SWIDTH 1000 0
DWIDTH 28 0
BBX 22 22 3 0
BITMAP
803008
C0780C
607818
303830
180060
0C00C0
060180
030300
018600
60CC18
F0783C
F0303C
707818
00CC00
018600
030300
060180
0C00C0
183060
307830
607818
C0380C
ENDCHAR
STARTCHAR 203C
ENCODING 8252
SWIDTH 500 0
DWIDTH 14 0
BBX 8 23 3 -1
BITMAP
C3
E7
E7
E7
C3
C3
C3
C3
C3
C3
C3
C3
43
42
42
42
42
00
00
00
C3
E7
C7
ENDCHAR
STARTCHAR 203E
ENCODING 8254
SWIDTH 1000 0
DWIDTH 28 0
BBX 28 1 0 24
BITMAP
FFFFFFF0
ENDCHAR
STARTCHAR 203F
ENCODING 8255
SWIDTH 500 0
DWIDTH 14 0
BBX 10 3 2 -3
BITMAP
8040
4180
3F00
ENDCHAR
STARTCHAR 2042
ENCODING 8258
SWIDTH 500 0
DWIDTH 14 0
BBX 12 16 1 3
BITMAP
0600
1680
0D00
0600
0D00
1480
0600
0000
0000
2040
2040
AF50
70E0
79E0
AF50
2040
ENDCHAR
STARTCHAR 2047
ENCODING 8263
SWIDTH 500 0
DWIDTH 14 0
BBX 12 24 1 -1
BITMAP
70E0
59B0
9930
8910
8D10
CD90
C990
1830
1830
1020
1060
2040
2040
2040
2040
2040
2040
2040
0000
0000
0000
60C0
70E0
60C0
ENDCHAR
STARTCHAR 2048
ENCODING 8264
SWIDTH 500 0
DWIDTH 14 0
BBX 11 24 1 -1
BITMAP
3860
4CE0
84E0
86E0
86E0
C660
C660
0460
0C60
0860
1840
1040
1040
1040
1040
2040
2040
2040
0000
0000
0000
3060
78E0
3060
ENDCHAR
STARTCHAR 2049
ENCODING 8265
SWIDTH 500 0
DWIDTH 14 0
BBX 11 24 2 -1
BITMAP
C380
E4C0
E8C0
E860
C860
CC60
CC40
C0C0
C0C0
C080
C180
4100
4100
4100
4200
4200
4200
4200
0000
0000
0000
C300
E700
C300
ENDCHAR
STARTCHAR 2051
ENCODING 8273
SWIDTH 1000 0
DWIDTH 28 0
BBX 8 22 10 0
BITMAP
18
18
DB
76
3C
3C
F6
DB
18
00
00
00
00
18
18
DB
76
18
76
D3
18
18
ENDCHAR
STARTCHAR 20AC
ENCODING 8364
SWIDTH 500 0
DWIDTH 14 0
BBX 11 21 1 0
BITMAP
07A0
0CE0
0860
1820
1020
3020
3000
3000
FF80
3000
3000
FF00
3000
3020
3020
3020
1020
1860
1840
0CC0
0780
ENDCHAR
STARTCHAR 2103
ENCODING 8451
SWIDTH 1000 0
DWIDTH 28 0
BBX 24 22 1 1
BITMAP
780000
440FC0
843034
C4601C
78C00C
018004
018004
030004
030000
030000
030000
030000
030000
030000
030000
030003
038002
018002
00C004
006008
003830
000FC0
ENDCHAR
STARTCHAR 210F
ENCODING 8463
SWIDTH 500 0
DWIDTH 14 0
BBX 12 22 1 0
BITMAP
0600
3C00
0C00
0D80
0E00
1800
6800
19C0
1E40
1840
1040
3040
30C0
20C0
2080
6080
6080
4190
4190
C1A0
01A0
00C0
ENDCHAR
STARTCHAR 2113
ENCODING 8467
SWIDTH 500 0
DWIDTH 14 0
BBX 12 21 1 0
BITMAP
01C0
0340
0660
0460
0C60
0840
0840
18C0
18C0
1080
1180
3300
3200
3400
3810
1020
7020
9040
1840
0880
0700
ENDCHAR
STARTCHAR 2116
ENCODING 8470
SWIDTH 1000 0
DWIDTH 28 0
BBX 25 20 1 1
BITMAP
F0780000
38200000
38200000
28200000
2C200000
24200000
2620F000
26219800
23230800
23230C00
21220C00
21A20400
20A20400
20E20400
20E20C00
20620C00
20630C00
20230980
F8219980
0020F180
ENDCHAR
STARTCHAR 2121
ENCODING 8481
SWIDTH 1000 0
DWIDTH 28 0
BBX 25 19 1 2
BITMAP
FFC00000
CC400000
8C400000
8C400000
0C000000
0C7FBC00
0C109800
0C109800
0C101800
0C111800
0C111800
0C1F1800
0C111800
0C111800
0C101800
0C109880
0C109880
0C119880
3F7FBF80
ENDCHAR
STARTCHAR 2127
ENCODING 8487
SWIDTH 500 0
DWIDTH 14 0
BBX 12 21 1 0
BITMAP
F9F0
F9F0
8910
8910
9090
30C0
2040
6060
6060
4020
C030
C030
C030
C030
4020
6060
6060
6060
30C0
1980
0F00
ENDCHAR
STARTCHAR 212B
ENCODING 8491
SWIDTH 1000 0
DWIDTH 28 0
BBX 20 22 4 2
BITMAP
006000
009000
011000
009000
006000
006000
00E000
00B000
00B000
011800
011800
021800
020C00
060C00
040600
07FE00
080600
080300
180300
100180
300180
FC0FF0
ENDCHAR
STARTCHAR 2135
ENCODING 8501
SWIDTH 500 0
DWIDTH 14 0
BBX 12 21 1 1
BITMAP
4000
4080
4080
60C0
2060
3070
3090
1890
0C80
1D00
2700
2300
6300
4180
4180
40C0
4060
6060
6060
6020
C040
ENDCHAR
STARTCHAR 2153
ENCODING 8531
SWIDTH 500 0
DWIDTH 14 0
BBX 12 26 1 -2
BITMAP
2020
E030
6020
2060
2040
2040
2080
2080
2100
2100
2300
6200
F200
04C0
0520
0F30
0930
0830
1020
10C0
2020
2010
6310
4310
4330
81E0
ENDCHAR
STARTCHAR 2154
ENCODING 8532
SWIDTH 500 0
DWIDTH 14 0
BBX 12 25 1 -2
BITMAP
7030
4820
C820
C840
0840
0880
1080
2080
2900
4900
8A00
FA00
06C0
0520
0730
0930
0830
1020
10C0
3020
2010
2310
4310
4330
81E0
ENDCHAR
STARTCHAR 2155
ENCODING 8533
SWIDTH 500 0
DWIDTH 14 0
BBX 12 26 1 -2
BITMAP
2020
E030
6020
2060
2040
2040
2080
2080
2100
2100
2300
6200
F200
05F0
0500
0D00
0A00
0AE0
1120
1230
2010
2010
6310
4330
4220
81C0
ENDCHAR
STARTCHAR 2160
ENCODING 8544
SWIDTH 1000 0
DWIDTH 28 0
BBX 8 19 10 2
BITMAP
FF
18
18
18
18
18
18
18
18
18
18
18
18
18
18
18
18
18
FF
ENDCHAR
STARTCHAR 2161
ENCODING 8545
SWIDTH 1000 0
DWIDTH 28 0
BBX 16 19 6 2
BITMAP
FFFF
381C
300C
300C
300C
300C
300C
300C
300C
300C
300C
300C
300C
300C
300C
300C
300C
381C
FFFF
ENDCHAR
STARTCHAR 2162
ENCODING 8546
SWIDTH 1000 0
DWIDTH 28 0
BBX 22 19 3 2
BITMAP
FFFFFC
383070
303030
303030
303030
303030
303030
303030
303030
303030
303030
303030
303030
303030
303030
303030
303030
383070
FFFFFC
ENDCHAR
STARTCHAR 2163
ENCODING 8547
SWIDTH 1000 0
DWIDTH 28 0
BBX 24 20 3 1
BITMAP
FFF83F
30C00C
30C008
306008
306008
306010
303010
303020
303020
301820
301840
300C40
300C40
300C80
300680
300680
300700
380300
FE0300
000200
ENDCHAR
STARTCHAR 2164
ENCODING 8548
SWIDTH 1000 0
DWIDTH 28 0
BBX 20 20 4 1
BITMAP
FE07F0
3800C0
1800C0
180080
1C0180
0C0100
0C0100
060200
060200
070200
030400
030400
018800
018800
00C800
00D000
00F000
006000
006000
002000
ENDCHAR
STARTCHAR 2165
ENCODING 8549
SWIDTH 1000 0
DWIDTH 28 0
BBX 24 20 1 1
BITMAP
FE0FFF
38010C
18010C
18020C
18020C
0C020C
0C040C
0C040C
06080C
06080C
03080C
03100C
03100C
01900C
01A00C
01A00C
00E00C
00C01C
00C07F
004000
ENDCHAR
STARTCHAR 2166
ENCODING 8550
SWIDTH 1000 0
DWIDTH 28 0
BBX 25 20 1 1
BITMAP
FE3FFF80
3004E600
3004C600
1008C600
1808C600
1808C600
1810C600
0C10C600
0C10C600
0C20C600
0620C600
0620C600
0640C600
0240C600
0340C600
0380C600
0180C600
0180E600
0183FF80
01000000
ENDCHAR
STARTCHAR 2167
ENCODING 8551
SWIDTH 1000 0
DWIDTH 28 0
BBX 26 20 1 1
BITMAP
FC7FFFC0
7019BB00
30119300
30119300
10119300
18219300
18219300
18219300
0C219300
0C419300
0C419300
04419300
06819300
06819300
06819300
03819300
03019300
0301B300
0107FFC0
01000000
ENDCHAR
STARTCHAR 2168
ENCODING 8552
SWIDTH 1000 0
DWIDTH 28 0
BBX 23 19 3 2
BITMAP
FFFCFE
307030
303020
301820
301840
300C80
300C80
300700
300700
300300
300580
300580
3008C0
3010E0
301060
302030
306030
30C038
FFF8FE
ENDCHAR
STARTCHAR 2169
ENCODING 8553
SWIDTH 1000 0
DWIDTH 28 0
BBX 21 19 4 2
BITMAP
FF0FE0
380380
0C0300
0E0200
070400
030800
019800
00D000
00E000
007000
00B000
011800
030C00
060E00
040700
080300
100180
3001C0
FE07F8
ENDCHAR
STARTCHAR 216A
ENCODING 8554
SWIDTH 1000 0
DWIDTH 28 0
BBX 23 19 2 2
BITMAP
FF3FFE
180C18
1C0818
0C1018
063018
062018
034018
034018
018018
01C018
01C018
026018
066018
043018
083818
081818
100C18
300E18
FC3FFE
ENDCHAR
STARTCHAR 216B
ENCODING 8555
SWIDTH 1000 0
DWIDTH 28 0
BBX 26 19 1 2
BITMAP
FE7FFFC0
1818E600
18104600
0C104600
06204600
06204600
03404600
03804600
01804600
01804600
01C04600
02604600
04604600
04304600
08304600
08184600
101C4600
300CE600
FC3FFFC0
ENDCHAR
STARTCHAR 2170
ENCODING 8560
SWIDTH 1000 0
DWIDTH 28 0
BBX 6 19 11 2
BITMAP
30
30
30
00
00
00
F0
30
30
30
30
30
30
30
30
30
30
30
FC
ENDCHAR
STARTCHAR 2171
ENCODING 8561
SWIDTH 1000 0
DWIDTH 28 0
BBX 15 19 7 2
BITMAP
7038
7038
3030
0000
0000
0000
F0F0
7030
3010
3010
3010
3010
3010
3010
3010
3010
3010
3038
FCFE
ENDCHAR
STARTCHAR 2172
ENCODING 8562
SWIDTH 1000 0
DWIDTH 28 0
BBX 20 19 4 2
BITMAP
3060C0
3870E0
3060C0
000000
000000
102040
F1E3C0
3060C0
3060C0
3060C0
3060C0
3060C0
3060C0
3060C0
3060C0
3060C0
3060C0
3060C0
FFFFF0
ENDCHAR
STARTCHAR 2173
ENCODING 8563
SWIDTH 1000 0
DWIDTH 28 0
BBX 21 20 4 1
BITMAP
380000
380000
300000
000000
000000
100000
F3F0F8
30C030
106020
106040
102040
1030C0
103080
101880
101900
100D00
100E00
300E00
FE0600
000400
ENDCHAR
STARTCHAR 2174
ENCODING 8564
SWIDTH 1000 0
DWIDTH 28 0
BBX 16 14 6 1
BITMAP
FC3F
300C
1808
1808
0810
0C10
0C10
0620
0620
0340
0340
0180
0180
0100
ENDCHAR
STARTCHAR 2175
ENCODING 8565
SWIDTH 1000 0
DWIDTH 28 0
BBX 21 20 3 1
BITMAP
000060
0000E0
000060
000000
000000
000020
FC7FE0
301860
301060
101060
182060
182060
0C6060
0C4060
064060
068060
068060
030060
0301F8
010000
ENDCHAR
STARTCHAR 2176
ENCODING 8566
SWIDTH 1000 0
DWIDTH 28 0
BBX 26 20 1 1
BITMAP
0000C700
0001C700
0000C600
00000000
00000000
00004200
FE3FDE00
3808C600
1808C200
1810C200
0C10C200
0C10C200
0620C200
0620C200
0640C200
0340C200
0340C200
0180C600
0183FFC0
01000000
ENDCHAR
STARTCHAR 2177
ENCODING 8567
SWIDTH 1000 0
DWIDTH 28 0
BBX 26 20 1 1
BITMAP
00033300
00077300
00033300
00000000
00000000
00011100
FC7FFF00
301B3300
30133300
18333300
18233300
08233300
0C433300
0C433300
06833300
06833300
06833300
03033300
030FFFC0
02000000
ENDCHAR
STARTCHAR 2178
ENCODING 8568
SWIDTH 1000 0
DWIDTH 28 0
BBX 21 19 4 2
BITMAP
380000
380000
300000
000000
000000
100000
F1F9F0
303040
101080
101980
100D00
100600
100600
100B00
101180
103180
1020C0
304060
FFF1F8
ENDCHAR
STARTCHAR 2179
ENCODING 8569
SWIDTH 1000 0
DWIDTH 28 0
BBX 17 13 5 2
BITMAP
7F3F80
0C0C00
060800
031000
032000
01C000
00C000
016000
023000
041800
080C00
180E00
FE1F80
ENDCHAR
STARTCHAR 217A
ENCODING 8570
SWIDTH 1000 0
DWIDTH 28 0
BBX 21 19 3 2
BITMAP
000060
000070
000060
000000
000000
000020
7EFDE0
183060
0C2060
044060
068060
030060
038060
078060
04C060
086060
103060
203860
F8FFF8
ENDCHAR
STARTCHAR 217B
ENCODING 8571
SWIDTH 1000 0
DWIDTH 28 0
BBX 25 19 2 2
BITMAP
00018E00
00038E00
00018C00
00000000
00000000
00008400
FCFFBC00
38318C00
18618400
0C418400
06818400
03018400
03018400
05818400
0CC18400
18618400
10618400
20318C00
F8FFFF80
ENDCHAR
STARTCHAR 2190
ENCODING 8592
SWIDTH 1000 0
DWIDTH 28 0
BBX 24 10 2 6
BITMAP
070000
0C0000
180000
300000
600000
FFFFFF
600000
300000
0C0000
070000
ENDCHAR
STARTCHAR 2191
ENCODING 8593
SWIDTH 1000 0
DWIDTH 28 0
BBX 10 25 9 -1
BITMAP
0800
0C00
1E00
3F00
2D00
6D80
CCC0
8C40
8C40
0C00
0C00
0C00
0C00
0C00
0C00
0C00
0C00
0C00
0C00
0C00
0C00
0C00
0C00
0C00
0C00
ENDCHAR
STARTCHAR 2192
ENCODING 8594
SWIDTH 1000 0
DWIDTH 28 0
BBX 24 10 2 6
BITMAP
0000E0
000030
000018
00000C
000006
FFFFFF
000006
00000C
000030
0000E0
ENDCHAR
STARTCHAR 2193
ENCODING 8595
SWIDTH 1000 0
DWIDTH 28 0
BBX 10 25 9 -2
BITMAP
0C00
0C00
0C00
0C00
0C00
0C00
0C00
0C00
0C00
0C00
0C00
0C00
0C00
0C00
0C00
0C00
8C40
8C40
CCC0
6D80
2D00
3F00
1E00
0C00
0800
ENDCHAR
STARTCHAR 2194
ENCODING 8596
SWIDTH 500 0
DWIDTH 14 0
BBX 12 9 1 6
BITMAP
31C0
2040
6060
C030
FFF0
C030
6060
2040
31C0
ENDCHAR
STARTCHAR 2196
ENCODING 8598
SWIDTH 500 0
DWIDTH 14 0
BBX 10 21 2 0
BITMAP
2000
3800
7E00
5380
5880
C840
8800
8C00
8400
0600
0600
0200
0300
0100
0100
0180
0080
0080
00C0
0040
0080
ENDCHAR
STARTCHAR 2197
ENCODING 8599
SWIDTH 500 0
DWIDTH 14 0
BBX 10 21 2 0
BITMAP
0100
0700
1F80
7280
4680
84C0
0440
0C40
0840
1800
1800
1000
3000
2000
2000
6000
4000
4000
C000
8000
8000
ENDCHAR
STARTCHAR 2198
ENCODING 8600
SWIDTH 500 0
DWIDTH 14 0
BBX 10 21 2 0
BITMAP
8000
8000
C000
4000
4000
6000
2000
3000
3000
1000
1800
0800
0840
0C40
0440
84C0
6680
3A80
0F80
0700
0100
ENDCHAR
STARTCHAR 2199
ENCODING 8601
SWIDTH 500 0
DWIDTH 14 0
BBX 10 21 2 0
BITMAP
0040
0040
00C0
0080
0080
0180
0100
0300
0300
0200
0600
0400
8400
8C00
8800
C8C0
5980
5700
7C00
3800
2000
ENDCHAR
STARTCHAR 21C4
ENCODING 8644
SWIDTH 500 0
DWIDTH 14 0
BBX 10 21 2 0
BITMAP
0C00
0200
0100
0080
FFC0
00C0
0180
0300
0600
0C00
0000
0C00
1800
3000
6000
C000
FFC0
4000
2000
1000
0C00
ENDCHAR
STARTCHAR 21D2
ENCODING 8658
SWIDTH 1000 0
DWIDTH 28 0
BBX 24 16 2 3
BITMAP
000080
0000C0
000060
000030
FFFFF8
00000C
000006
000003
000003
000006
00000C
FFFFF8
000030
000060
0000C0
000080
ENDCHAR
STARTCHAR 21D4
ENCODING 8660
SWIDTH 1000 0
DWIDTH 28 0
BBX 24 16 2 3
BITMAP
020080
0300C0
060060
0C0030
1FFFF8
30000C
600006
C00003
C00003
600006
30000C
1FFFF8
0C0030
060060
0300C0
020080
ENDCHAR
STARTCHAR 21E6
ENCODING 8678
SWIDTH 500 0
DWIDTH 14 0
BBX 10 9 2 6
BITMAP
1000
3000
5000
8FC0
8040
8FC0
5000
3000
1000
ENDCHAR
STARTCHAR 21E7
ENCODING 8679
SWIDTH 500 0
DWIDTH 14 0
BBX 10 22 2 0
BITMAP
0800
0C00
1200
1200
2100
4080
4080
B740
1400
1400
1400
1400
1400
1400
1400
1400
1400
1400
1400
1400
1400
1C00
ENDCHAR
STARTCHAR 21E8
ENCODING 8680
SWIDTH 500 0
DWIDTH 14 0
BBX 10 9 2 6
BITMAP
0200
0500
0500
FC80
8040
FC80
0500
0500
0200
ENDCHAR
STARTCHAR 21E9
ENCODING 8681
SWIDTH 500 0
DWIDTH 14 0
BBX 10 23 2 -1
BITMAP
0C00
1400
1400
1400
1400
1400
1400
1400
1400
1400
1400
1400
1400
1400
1400
F3C0
4080
4100
2100
1200
1400
0C00
0800
ENDCHAR
STARTCHAR 2200
ENCODING 8704
SWIDTH 1000 0
DWIDTH 28 0
BBX 24 23 2 -1
BITMAP
800001
400003
400002
200004
200004
100008
180018
080010
0FFFF0
040020
060060
020040
0300C0
010080
008180
008100
004200
006600
002400
003C00
001800
001800
001000
ENDCHAR
STARTCHAR 2202
ENCODING 8706
SWIDTH 1000 0
DWIDTH 28 0
BBX 13 22 8 0
BITMAP
0780
0860
1060
2030
0030
0030
0010
0018
0018
1F38
30B8
6070
C030
C030
C030
C070
C060
C060
C0C0
C180
6300
3E00
ENDCHAR
STARTCHAR 2203
ENCODING 8707
SWIDTH 1000 0
DWIDTH 28 0
BBX 20 21 4 0
BITMAP
FFFFF0
000030
000030
000030
000030
000030
000030
000030
000030
000030
FFFFF0
000030
000030
000030
000030
000030
000030
000030
000030
000030
FFFFF0
ENDCHAR
STARTCHAR 2205
ENCODING 8709
SWIDTH 500 0
DWIDTH 14 0
BBX 12 15 1 3
BITMAP
0060
0040
0FC0
31C0
6160
4320
C230
C630
C420
4C20
7860
38C0
3F00
2000
6000
ENDCHAR
STARTCHAR 2207
ENCODING 8711
SWIDTH 1000 0
DWIDTH 28 0
BBX 22 20 3 0
BITMAP
FFFFFC
600008
300010
300010
180020
180020
0C0040
0C0040
060080
060080
030100
030100
018200
018200
00C400
00C400
006800
006800
003000
002000
ENDCHAR
STARTCHAR 2208
ENCODING 8712
SWIDTH 1000 0
DWIDTH 28 0
BBX 22 19 3 1
BITMAP
01FFFC
070000
080000
300000
200000
600000
400000
400000
C00000
FFFFFC
C00000
400000
400000
600000
200000
300000
180000
070000
01FFFC
ENDCHAR
STARTCHAR 2209
ENCODING 8713
SWIDTH 500 0
DWIDTH 14 0
BBX 11 20 1 1
BITMAP
0080
0080
07E0
0D80
3100
2100
6100
4100
4300
C200
FFE0
C200
4600
4400
6400
6400
3400
1C00
0FE0
0800
ENDCHAR
STARTCHAR 220B
ENCODING 8715
SWIDTH 1000 0
DWIDTH 28 0
BBX 22 19 3 1
BITMAP
FFFE00
000380
000040
000020
000010
000018
000008
000008
00000C
FFFFFC
00000C
000008
000008
000018
000010
000030
000060
000380
FFFE00
ENDCHAR
STARTCHAR 2212
ENCODING 8722
SWIDTH 500 0
DWIDTH 14 0
BBX 12 1 1 10
BITMAP
FFF0
ENDCHAR
STARTCHAR 2213
ENCODING 8723
SWIDTH 500 0
DWIDTH 14 0
BBX 12 18 1 1
BITMAP
FFF0
0000
0000
0000
0600
0600
0600
0600
0600
0600
FFF0
0600
0600
0600
0600
0600
0600
0600
ENDCHAR
STARTCHAR 221A
ENCODING 8730
SWIDTH 1000 0
DWIDTH 28 0
BBX 27 26 1 -1
BITMAP
0007FFE0
000C0000
000C0000
00080000
00180000
00100000
00100000
00300000
00200000
00200000
00600000
00400000
00400000
00C00000
20800000
20800000
21800000
71000000
71000000
93000000
9A000000
1E000000
0C000000
0C000000
0C000000
08000000
ENDCHAR
STARTCHAR 221D
ENCODING 8733
SWIDTH 1000 0
DWIDTH 28 0
BBX 23 10 2 6
BITMAP
1F00F8
21C304
406602
C03C00
801800
801800
C03C00
406602
21C306
1F00F8
ENDCHAR
STARTCHAR 221E
ENCODING 8734
SWIDTH 1000 0
DWIDTH 28 0
BBX 24 11 2 5
BITMAP
1F00F8
31818C
404202
C02403
801801
801801
803801
C02403
404202
21818C
1F00F8
ENDCHAR
STARTCHAR 221F
ENCODING 8735
SWIDTH 1000 0
DWIDTH 28 0
BBX 22 23 4 0
BITMAP
800000
800000
800000
800000
800000
800000
800000
800000
800000
800000
800000
800000
800000
800000
800000
800000
800000
800000
800000
800000
800000
800000
FFFFFC
ENDCHAR
STARTCHAR 2220
ENCODING 8736
SWIDTH 1000 0
DWIDTH 28 0
BBX 24 22 2 0
BITMAP
000002
000007
00000C
000018
000030
000060
0000C0
000180
000300
000600
000C00
001800
003000
006000
00C000
018000
030000
060000
0C0000
180000
300000
FFFFFE
ENDCHAR
STARTCHAR 2225
ENCODING 8741
SWIDTH 1000 0
DWIDTH 28 0
BBX 14 25 7 -2
BITMAP
00CC
0088
0088
0198
0110
0110
0330
0220
0220
0660
0440
0440
0CC0
0880
0880
1980
1100
1100
3300
2200
2200
6600
4400
4400
8C00
ENDCHAR
STARTCHAR 2226
ENCODING 8742
SWIDTH 500 0
DWIDTH 14 0
BBX 12 25 1 -2
BITMAP
0110
0110
0330
0220
0220
0660
4440
C440
2C40
1880
0880
0C80
1F80
1300
1180
33C0
2240
2220
2230
6600
4400
4400
CC00
8800
8800
ENDCHAR
STARTCHAR 2227
ENCODING 8743
SWIDTH 1000 0
DWIDTH 28 0
BBX 24 23 2 -1
BITMAP
001000
001800
001800
002400
002400
004200
00C300
008100
018180
010080
0300C0
020040
060060
040020
0C0030
080010
180018
100008
200004
200004
400002
C00003
800001
ENDCHAR
STARTCHAR 2228
ENCODING 8744
SWIDTH 1000 0
DWIDTH 28 0
BBX 24 23 2 -1
BITMAP
800001
C00003
400002
200004
200004
100008
180018
080010
0C0030
040020
060060
020040
0300C0
010080
018180
008100
00C300
004200
002400
002400
001800
001800
001000
ENDCHAR
STARTCHAR 2229
ENCODING 8745
SWIDTH 1000 0
DWIDTH 28 0
BBX 20 21 4 0
BITMAP
01F800
060600
180180
3000C0
200040
600060
400020
C00020
C00030
C00030
C00030
C00030
C00030
C00030
C00030
C00030
C00030
C00030
C00030
C00030
C00030
ENDCHAR
STARTCHAR 222A
ENCODING 8746
SWIDTH 1000 0
DWIDTH 28 0
BBX 20 21 4 0
BITMAP
C00030
C00030
C00030
C00030
C00030
C00030
C00030
C00030
C00030
C00030
C00030
C00030
C00030
400020
400020
600060
200040
3000C0
180180
060600
01F800
ENDCHAR
STARTCHAR 222B
ENCODING 8747
SWIDTH 1000 0
DWIDTH 28 0
BBX 14 25 7 -2
BITMAP
0078
00CC
008C
018C
0180
0100
0100
0300
0300
0300
0300
0300
0300
0300
0300
0300
0300
0300
0200
0200
0600
C600
C400
CC00
7800
ENDCHAR
STARTCHAR 222C
ENCODING 8748
SWIDTH 1000 0
DWIDTH 28 0
BBX 24 25 2 -2
BITMAP
00381C
004422
00CE67
008646
0080C0
0180C0
0180C0
0180C0
0180C0
0180C0
018080
010080
010080
010180
010180
030180
030180
030180
030180
030180
030100
626100
E67300
442200
381C00
ENDCHAR
STARTCHAR 222E
ENCODING 8750
SWIDTH 1000 0
DWIDTH 28 0
BBX 14 25 7 -2
BITMAP
0078
00CC
008C
018C
0180
0100
0100
0300
0300
0FC0
1340
1320
1320
1320
0B40
0780
0300
0200
0200
0200
0600
C600
C400
CC00
7800
ENDCHAR
STARTCHAR 2234
ENCODING 8756
SWIDTH 1000 0
DWIDTH 28 0
BBX 18 18 5 2
BITMAP
00C000
01E000
01E000
00C000
000000
000000
000000
000000
000000
000000
000000
000000
000000
000000
600180
F003C0
F003C0
600180
ENDCHAR
STARTCHAR 2235
ENCODING 8757
SWIDTH 1000 0
DWIDTH 28 0
BBX 18 18 5 2
BITMAP
600180
F003C0
F003C0
600180
000000
000000
000000
000000
000000
000000
000000
000000
000000
000000
00C000
01E000
01E000
00C000
ENDCHAR
STARTCHAR 223D
ENCODING 8765
SWIDTH 1000 0
DWIDTH 28 0
BBX 24 11 2 5
BITMAP
1F00F8
31018C
400202
C00403
800801
801801
801001
C02003
404002
31808C
1F00F8
ENDCHAR
STARTCHAR 2243
ENCODING 8771
SWIDTH 500 0
DWIDTH 14 0
BBX 12 9 1 7
BITMAP
3800
4430
8220
01C0
0000
0000
0000
0000
FFF0
ENDCHAR
STARTCHAR 2245
ENCODING 8773
SWIDTH 500 0
DWIDTH 14 0
BBX 12 11 1 5
BITMAP
3820
4630
81C0
0000
0000
0000
FFF0
0000
0000
0000
FFF0
ENDCHAR
STARTCHAR 2248
ENCODING 8776
SWIDTH 500 0
DWIDTH 14 0
BBX 12 9 1 6
BITMAP
3810
4620
81C0
0000
0000
3800
4430
8220
01C0
ENDCHAR
STARTCHAR 2252
ENCODING 8786
SWIDTH 1000 0
DWIDTH 28 0
BBX 20 16 4 3
BITMAP
0C0000
0E0000
0C0000
000000
000000
FFFFF0
000000
000000
000000
000000
FFFFF0
000000
000000
000300
000700
000700
ENDCHAR
STARTCHAR 2260
ENCODING 8800
SWIDTH 1000 0
DWIDTH 28 0
BBX 20 19 4 1
BITMAP
000300
000600
000400
000C00
000800
001800
FFFFF0
003000
002000
004000
00C000
FFFFF0
018000
010000
030000
020000
020000
060000
0C0000
ENDCHAR
STARTCHAR 2261
ENCODING 8801
SWIDTH 1000 0
DWIDTH 28 0
BBX 20 13 4 4
BITMAP
FFFFF0
000000
000000
000000
000000
000000
FFFFF0
000000
000000
000000
000000
000000
FFFFF0
ENDCHAR
STARTCHAR 2262
ENCODING 8802
SWIDTH 500 0
DWIDTH 14 0
BBX 12 18 1 2
BITMAP
0040
0080
0080
FFF0
0100
0100
0300
0200
0200
FFF0
0400
0400
0800
0800
FFF0
1000
1000
2000
ENDCHAR
STARTCHAR 2266
ENCODING 8806
SWIDTH 1000 0
DWIDTH 28 0
BBX 20 22 4 0
BITMAP
000030
0001E0
000F00
007800
01C000
0E0000
700000
F80000
0E0000
01C000
003800
000F00
0001E0
000030
000000
000000
FFFFF0
000000
000000
000000
000000
FFFFF0
ENDCHAR
STARTCHAR 2267
ENCODING 8807
SWIDTH 1000 0
DWIDTH 28 0
BBX 20 22 4 0
BITMAP
C00000
780000
0F0000
01E000
003800
000700
0000E0
0001F0
000700
003800
01C000
0F0000
780000
C00000
000000
000000
FFFFF0
000000
000000
000000
000000
FFFFF0
ENDCHAR
STARTCHAR 226A
ENCODING 8810
SWIDTH 1000 0
DWIDTH 28 0
BBX 23 25 2 -2
BITMAP
000186
00060C
000C30
001860
0030C0
006180
018300
030C00
061800
0C3000
186000
60C000
C10000
60C000
186000
0C3000
061800
030C00
018300
006180
0030C0
001860
000C30
00060C
000186
ENDCHAR
STARTCHAR 226B
ENCODING 8811
SWIDTH 1000 0
DWIDTH 28 0
BBX 23 25 3 -2
BITMAP
C30000
60C000
186000
0C3000
061800
030C00
018300
006180
0030C0
001860
000C30
00060C
000186
00060C
000C30
001860
0030C0
006180
018300
030C00
061800
0C3000
186000
60C000
C30000
ENDCHAR
STARTCHAR 2276
ENCODING 8822
SWIDTH 500 0
DWIDTH 14 0
BBX 12 20 1 1
BITMAP
0010
0070
01C0
0300
0C00
3000
E000
1C00
0700
C1C0
7070
1C10
0700
01C0
0070
01C0
0700
1C00
7000
C000
ENDCHAR
STARTCHAR 2277
ENCODING 8823
SWIDTH 500 0
DWIDTH 14 0
BBX 12 20 1 1
BITMAP
8000
E000
3000
0C00
0300
00C0
0070
0380
0E00
3830
E0E0
8380
0E00
3800
E000
3800
0E00
0380
00E0
0030
ENDCHAR
STARTCHAR 2282
ENCODING 8834
SWIDTH 1000 0
DWIDTH 28 0
BBX 22 19 3 1
BITMAP
01FFFC
070000
080000
300000
200000
600000
400000
400000
C00000
C00000
C00000
400000
400000
600000
200000
300000
180000
070000
01FFFC
ENDCHAR
STARTCHAR 2283
ENCODING 8835
SWIDTH 1000 0
DWIDTH 28 0
BBX 22 19 3 1
BITMAP
FFFE00
000380
000040
000020
000010
000018
000008
000008
00000C
00000C
00000C
000008
000008
000018
000010
000030
000060
000380
FFFE00
ENDCHAR
STARTCHAR 2284
ENCODING 8836
SWIDTH 500 0
DWIDTH 14 0
BBX 11 20 1 1
BITMAP
0080
0080
07E0
0D80
3100
2100
6100
4300
4300
C200
C200
C200
4600
4400
4400
6400
3400
1C00
0FE0
0800
ENDCHAR
STARTCHAR 2285
ENCODING 8837
SWIDTH 500 0
DWIDTH 14 0
BBX 11 19 2 1
BITMAP
0200
FE00
0700
0580
0480
04C0
0440
0C40
0860
0860
0860
1840
1840
10C0
1080
1180
3600
FC00
2000
ENDCHAR
STARTCHAR 2286
ENCODING 8838
SWIDTH 1000 0
DWIDTH 28 0
BBX 22 21 3 0
BITMAP
03FFFC
1C0000
300000
600000
400000
400000
C00000
C00000
C00000
400000
400000
600000
300000
1C0000
03FFFC
000000
000000
000000
000000
000000
FFFFFC
ENDCHAR
STARTCHAR 2287
ENCODING 8839
SWIDTH 1000 0
DWIDTH 28 0
BBX 22 21 3 0
BITMAP
FFFF00
0000C0
000030
000018
000008
000008
00000C
00000C
00000C
000008
000008
000018
000030
0000E0
FFFF80
000000
000000
000000
000000
000000
FFFFFC
ENDCHAR
STARTCHAR 228A
ENCODING 8842
SWIDTH 500 0
DWIDTH 14 0
BBX 11 19 1 0
BITMAP
0FE0
1800
2000
4000
4000
C000
C000
4000
4000
2000
1800
0FE0
0000
0000
0300
0200
7FE0
0400
0C00
ENDCHAR
STARTCHAR 228B
ENCODING 8843
SWIDTH 500 0
DWIDTH 14 0
BBX 11 19 2 0
BITMAP
FE00
0300
0080
0040
0040
0060
0060
0040
0040
0080
0300
FE00
0000
0000
0600
0400
FFC0
0800
1800
ENDCHAR
STARTCHAR 2295
ENCODING 8853
SWIDTH 500 0
DWIDTH 14 0
BBX 12 13 1 4
BITMAP
0F00
30C0
4620
8610
8610
8610
BFD0
8610
8610
8610
4620
30C0
0F00
ENDCHAR
STARTCHAR 2296
ENCODING 8854
SWIDTH 500 0
DWIDTH 14 0
BBX 12 13 1 4
BITMAP
0F00
30C0
4020
8010
8010
8010
BFD0
8010
8010
C020
4020
30C0
0F00
ENDCHAR
STARTCHAR 2297
ENCODING 8855
SWIDTH 500 0
DWIDTH 14 0
BBX 12 12 1 5
BITMAP
0F00
30C0
60A0
90D0
8910
8610
8610
8910
9090
60E0
20C0
1F80
ENDCHAR
STARTCHAR 22A5
ENCODING 8869
SWIDTH 1000 0
DWIDTH 28 0
BBX 24 23 2 0
BITMAP
001800
001800
001800
001800
001800
001800
001800
001800
001800
001800
001800
001800
001800
001800
001800
001800
001800
001800
001800
001800
001800
001800
FFFFFF
ENDCHAR
STARTCHAR 22BF
ENCODING 8895
SWIDTH 1000 0
DWIDTH 28 0
BBX 23 22 2 0
BITMAP
000002
000006
00000E
00001A
000032
000062
0000C2
000182
000302
000602
000C02
001802
003002
006002
00C002
018002
030002
060002
0C0002
180002
300002
FFFFFE
ENDCHAR
STARTCHAR 22DA
ENCODING 8922
SWIDTH 500 0
DWIDTH 14 0
BBX 12 21 1 0
BITMAP
0030
01C0
0700
3800
E000
1C00
0700
00E0
0030
0000
FFF0
0000
C000
7000
0E00
0380
0070
03C0
0E00
3800
C000
ENDCHAR
STARTCHAR 22DB
ENCODING 8923
SWIDTH 500 0
DWIDTH 14 0
BBX 12 21 1 0
BITMAP
C000
3800
0E00
01C0
0070
0380
0E00
7000
C000
0000
FFF0
0000
0030
00E0
0700
1C00
E000
3C00
0700
01C0
0030
ENDCHAR
STARTCHAR 2305
ENCODING 8965
SWIDTH 500 0
DWIDTH 14 0
BBX 12 13 1 3
BITMAP
FFF0
0400
0600
0600
0F00
0900
1980
1080
1080
30C0
2040
6060
C030
ENDCHAR
STARTCHAR 2306
ENCODING 8966
SWIDTH 500 0
DWIDTH 14 0
BBX 12 16 1 2
BITMAP
FFF0
0000
0000
0000
FFF0
0400
0600
0600
0F00
0900
1980
1080
30C0
2040
6060
C030
ENDCHAR
STARTCHAR 2312
ENCODING 8978
SWIDTH 1000 0
DWIDTH 28 0
BBX 26 7 1 16
BITMAP
007F8000
07807000
1C000C00
30000300
40000080
80000040
80000040
ENDCHAR
STARTCHAR 2318
ENCODING 8984
SWIDTH 1000 0
DWIDTH 28 0
BBX 26 25 1 -2
BITMAP
3C000F00
62001180
41002080
C10020C0
41002080
61002180
3FFFFF00
01002000
01002000
01002000
01002000
01002000
01002000
01002000
01002000
01002000
01002000
01002000
3FFFFF00
61002180
41002080
C10020C0
C1002080
62001180
3C000F00
ENDCHAR
STARTCHAR 23BE
ENCODING 9150
SWIDTH 1000 0
DWIDTH 28 0
BBX 15 28 13 -3
BITMAP
FFFE
C000
C000
C000
C000
C000
C000
C000
C000
C000
C000
C000
C000
C000
C000
C000
C000
C000
C000
C000
C000
C000
C000
C000
C000
C000
C000
C000
ENDCHAR
STARTCHAR 23BF
ENCODING 9151
SWIDTH 1000 0
DWIDTH 28 0
BBX 15 28 13 -3
BITMAP
C000
C000
C000
C000
C000
C000
C000
C000
C000
C000
C000
C000
C000
C000
C000
C000
C000
C000
C000
C000
C000
C000
C000
C000
C000
C000
C000
FFFE
ENDCHAR
STARTCHAR 23C0
ENCODING 9152
SWIDTH 1000 0
DWIDTH 28 0
BBX 22 28 3 -3
BITMAP
003000
003000
003000
003000
03FF00
063180
183060
103020
203010
603018
403008
403008
C0300C
C0300C
80300C
C0300C
403008
403008
603018
203010
103020
183060
063180
03FF00
003800
003000
003000
003000
ENDCHAR
STARTCHAR 23C1
ENCODING 9153
SWIDTH 1000 0
DWIDTH 28 0
BBX 28 28 0 -3
BITMAP
FFFFFFF0
00060000
00060000
000F0000
007FE000
01C61000
03060C00
06060400
04060200
08060300
08060100
08060100
18060180
18060180
10060180
18060180
08060100
08060100
0C060300
04060200
02060400
03060C00
00C63000
007FE000
00060000
00060000
00060000
00060000
ENDCHAR
STARTCHAR 23C2
ENCODING 9154
SWIDTH 1000 0
DWIDTH 28 0
BBX 28 28 0 -3
BITMAP
00060000
00060000
00060000
00060000
007FE000
00C63000
03060800
02060400
04060200
0C060300
08060100
08060100
18060180
18060180
10060180
18060180
08060100
08060100
0C060300
04060200
06060600
03060C00
01861800
007FE000
000F0000
00060000
00060000
FFFFFFF0
ENDCHAR
STARTCHAR 23C3
ENCODING 9155
SWIDTH 1000 0
DWIDTH 28 0
BBX 24 28 2 -3
BITMAP
001800
001800
001800
001800
001800
001800
003C00
007E00
005A00
00DB00
009900
019980
011880
021840
061860
041820
0C1830
081810
181808
101808
201804
601806
401802
FFFFFF
001800
001800
001800
001800
ENDCHAR
STARTCHAR 23C4
ENCODING 9156
SWIDTH 1000 0
DWIDTH 28 0
BBX 28 28 0 -3
BITMAP
FFFFFFF0
00060000
00060000
00060000
00060000
00060000
000F0000
001F8000
00168000
0036C000
00264000
00662000
00462000
00861000
01861800
01060800
03060C00
02060400
06060200
04060200
08060100
18060180
10060080
3FFFFFC0
00060000
00060000
00060000
00060000
ENDCHAR
STARTCHAR 23C5
ENCODING 9157
SWIDTH 1000 0
DWIDTH 28 0
BBX 28 28 0 -3
BITMAP
00060000
00060000
00060000
00060000
00060000
00060000
000F0000
001F8000
00168000
0036C000
00264000
00666000
00462000
00861000
01861800
01060800
03060C00
02060400
06060600
04060200
08060100
18060180
10060080
3FFFFFC0
00060000
00060000
00060000
FFFFFFF0
ENDCHAR
STARTCHAR 23C6
ENCODING 9158
SWIDTH 1000 0
DWIDTH 28 0
BBX 24 28 2 -3
BITMAP
001800
001800
001800
001800
001800
001800
001800
001800
001800
001800
001800
3F1800
C0D800
803800
001C01
001F03
0018FC
001800
001800
001800
001800
001800
001800
001800
001800
001800
001800
001800
ENDCHAR
STARTCHAR 23C7
ENCODING 9159
SWIDTH 1000 0
DWIDTH 28 0
BBX 28 28 0 -3
BITMAP
FFFFFFF0
00060000
00060000
00060000
00060000
00060000
00060000
00060000
00060000
00060000
00060000
0FC60000
303E0000
400E0000
00070040
0006C0C0
00063F00
00060000
00060000
00060000
00060000
00060000
00060000
00060000
00060000
00060000
00060000
00060000
ENDCHAR
STARTCHAR 23C8
ENCODING 9160
SWIDTH 1000 0
DWIDTH 28 0
BBX 28 28 0 -3
BITMAP
00060000
00060000
00060000
00060000
00060000
00060000
00060000
00060000
00060000
00060000
00060000
0FC60000
30360000
200E0000
00070040
0007C0C0
00063F00
00060000
00060000
00060000
00060000
00060000
00060000
00060000
00060000
00060000
00060000
FFFFFFF0
ENDCHAR
STARTCHAR 23C9
ENCODING 9161
SWIDTH 1000 0
DWIDTH 28 0
BBX 28 28 0 -3
BITMAP
FFFFFFF0
00060000
00060000
00060000
00060000
00060000
00060000
00060000
00060000
00060000
00060000
00060000
00060000
00060000
00060000
00060000
00060000
00060000
00060000
00060000
00060000
00060000
00060000
00060000
00060000
00060000
00060000
00060000
ENDCHAR
STARTCHAR 23CA
ENCODING 9162
SWIDTH 1000 0
DWIDTH 28 0
BBX 28 28 0 -3
BITMAP
00060000
00060000
00060000
00060000
00060000
00060000
00060000
00060000
00060000
00060000
00060000
00060000
00060000
00060000
00060000
00060000
00060000
00060000
00060000
00060000
00060000
00060000
00060000
00060000
00060000
00060000
00060000
FFFFFFF0
ENDCHAR
STARTCHAR 23CB
ENCODING 9163
SWIDTH 1000 0
DWIDTH 28 0
BBX 15 28 0 -3
BITMAP
FFFE
0006
0006
0006
0006
0006
0006
0006
0006
0006
0006
0006
0006
0006
0006
0006
0006
0006
0006
0006
0006
0006
0006
0006
0006
0006
0006
0006
ENDCHAR
STARTCHAR 23CC
ENCODING 9164
SWIDTH 1000 0
DWIDTH 28 0
BBX 15 28 0 -3
BITMAP
0006
0006
0006
0006
0006
0006
0006
0006
0006
0006
0006
0006
0006
0006
0006
0006
0006
0006
0006
0006
0006
0006
0006
0006
0006
0006
0006
FFFE
ENDCHAR
STARTCHAR 23CE
ENCODING 9166
SWIDTH 1000 0
DWIDTH 28 0
BBX 24 23 1 -1
BITMAP
0000FF
000081
000081
000081
000081
000081
000081
004081
00C081
01C081
034081
064081
0C7F01
100001
600001
C00001
200002
180006
0C7FF8
064000
034000
00C000
004000
ENDCHAR
STARTCHAR 2423
ENCODING 9251
SWIDTH 1000 0
DWIDTH 28 0
BBX 22 6 3 -1
BITMAP
800004
800004
800004
800004
800004
FFFFFC
ENDCHAR
STARTCHAR 2460
ENCODING 9312
SWIDTH 1000 0
DWIDTH 28 0
BBX 26 25 1 -2
BITMAP
003F0000
01C0E000
06001000
0C000C00
18040600
303C0200
200C0100
400C0080
400C0080
400C0080
800C0080
800C0040
800C0040
800C0040
800C0080
400C0080
400C0080
400C0080
200C0100
100C0200
103F8200
0C000400
02001800
01C06000
007F8000
ENDCHAR
STARTCHAR 2461
ENCODING 9313
SWIDTH 1000 0
DWIDTH 28 0
BBX 26 25 1 -2
BITMAP
003F0000
00C0C000
03003000
04000800
081E0400
10618200
20C0C100
20C0C100
40C0C080
40C0C080
8000C080
80018040
80018040
80030040
80060040
80080080
40102080
40202080
20402100
20806200
11FFE200
08000400
06001800
01806000
007F8000
ENDCHAR
STARTCHAR 2462
ENCODING 9314
SWIDTH 1000 0
DWIDTH 28 0
BBX 26 25 1 -1
BITMAP
003F0000
01C0E000
02001000
04000800
081F0400
10618200
20C0C100
60C0C100
40C0C080
4000C080
8000C080
80018040
801E0040
80038040
8000C040
80006080
40806080
41C06080
21C06100
20C0C200
10618200
083F0400
06000800
01807000
007F8000
ENDCHAR
STARTCHAR 2463
ENCODING 9315
SWIDTH 1000 0
DWIDTH 28 0
BBX 26 25 1 -2
BITMAP
003F0000
01C0E000
02001000
0C000C00
18030600
10070200
200F0100
400B0080
40130080
40230080
80630080
80C30040
80830040
81030040
82030080
43FFE080
40030080
40030080
20030100
10030200
101FC200
0C000400
02001800
01C06000
007F8000
ENDCHAR
STARTCHAR 2464
ENCODING 9316
SWIDTH 1000 0
DWIDTH 28 0
BBX 26 24 1 -1
BITMAP
007F8000
0180E000
06001800
08000C00
107FC600
20400300
20400100
40C00080
40C00080
80DF0080
80A18040
80C0C040
8080E040
80006040
80006080
40C06080
41C06080
20C0C100
20C0C100
10638200
083E0400
06000800
01807000
007F8000
ENDCHAR
STARTCHAR 2465
ENCODING 9317
SWIDTH 1000 0
DWIDTH 28 0
BBX 26 25 1 -2
BITMAP
007F8000
0180E000
06001800
08000C00
100F0600
2030C300
2061C100
4040C080
40C00080
40C00080
819F0080
81A18040
81C0C040
8180C040
81806080
41806080
40C0C080
40C0C100
2040C100
10718200
181F0600
0C000C00
02001000
01C0E000
007F0000
ENDCHAR
STARTCHAR 2466
ENCODING 9318
SWIDTH 1000 0
DWIDTH 28 0
BBX 26 25 1 -1
BITMAP
003F0000
00C0C000
03003000
04000800
08000400
10FFE200
20C04100
20804100
40808080
40818080
80010080
80030040
80030040
80020040
80060040
80060080
40040080
400C0080
200C0100
200C0200
100C0200
0C0C0400
06001800
01C06000
007F8000
ENDCHAR
STARTCHAR 2467
ENCODING 9319
SWIDTH 1000 0
DWIDTH 28 0
BBX 26 25 1 -2
BITMAP
007F8000
0180E000
06001800
08000C00
103F0600
20618300
20C0C100
40C0C080
40C0C080
40E08080
80730080
801E0040
80370040
80418040
8080C080
41806080
41806080
41806100
2080C100
10E18200
183F0600
0C000C00
02001000
01C0E000
007F0000
ENDCHAR
STARTCHAR 2468
ENCODING 9320
SWIDTH 1000 0
DWIDTH 28 0
BBX 26 25 1 -2
BITMAP
007F8000
0180E000
06001800
08000C00
103E0600
20618300
20C0C100
40C0C080
40804080
40806080
80C06080
80C0E040
8061E040
803E6040
80006080
4000C080
40C0C080
40E0C100
20C18100
10630200
183E0600
0C000C00
02001000
01C0E000
007F0000
ENDCHAR
STARTCHAR 2469
ENCODING 9321
SWIDTH 1000 0
DWIDTH 28 0
BBX 26 26 1 -2
BITMAP
003F0000
01C0E000
02001000
04000800
0881C400
13832200
25863100
21861100
41841880
418C1880
818C1880
818C1840
818C1840
818C1840
818C1840
818C1880
41841880
41861080
21863100
21822100
17E1C200
18000400
0C000C00
02003000
01C0E000
003F0000
ENDCHAR
STARTCHAR 246A
ENCODING 9322
SWIDTH 1000 0
DWIDTH 28 0
BBX 26 26 1 -2
BITMAP
003F0000
01C0E000
02001000
04000800
08802400
1381E200
25806100
21806100
41806080
41806080
81806080
81806040
81806040
81806040
81806040
81806080
41806080
41806080
21806100
21806100
17E1FA00
18000400
0C000C00
02003000
01C0E000
003F0000
ENDCHAR
STARTCHAR 246B
ENCODING 9323
SWIDTH 1000 0
DWIDTH 28 0
BBX 26 25 1 -2
BITMAP
007F8000
0180E000
06001800
08000C00
1083C600
27863300
21843100
418E1080
41863080
41803080
81803080
81806040
81806040
8180C040
81818080
41810080
41820880
41860900
21841900
13EFFA00
1C000600
0C000C00
02003000
01C0E000
007F0000
ENDCHAR
STARTCHAR 246C
ENCODING 9324
SWIDTH 1000 0
DWIDTH 28 0
BBX 26 25 1 -2
BITMAP
003F0000
01C0E000
02001000
04000800
1883C400
13862200
258C3100
418E1100
41861080
41803080
81803080
81806040
81818040
81807040
81801040
41801880
418C1880
418E1180
21843100
17E3E200
18000600
0C000C00
06003800
01C0E000
007F8000
ENDCHAR
STARTCHAR 246D
ENCODING 9325
SWIDTH 1000 0
DWIDTH 28 0
BBX 26 25 1 -2
BITMAP
007F8000
0380F000
04001800
08000C00
11806600
2780E300
2180E100
41816080
41816080
81826080
81826040
81846040
81846040
81886040
81986080
419FF880
41806080
41806100
21806100
17E1FA00
18000600
0C000C00
02003000
01C0E000
003F0000
ENDCHAR
STARTCHAR 246E
ENCODING 9326
SWIDTH 1000 0
DWIDTH 28 0
BBX 26 26 1 -2
BITMAP
003F0000
00C0C000
03003000
04000800
08000400
1787F200
21840100
21840100
41840080
41840080
8185E080
81863040
818C1040
81801840
81801840
81801880
418C1880
418E1880
618C3100
21846100
17E3C200
18000600
0C000C00
02003000
01C0E000
003F0000
ENDCHAR
STARTCHAR 246F
ENCODING 9327
SWIDTH 1000 0
DWIDTH 28 0
BBX 26 26 1 -2
BITMAP
003F0000
01C0E000
02001000
04000800
0881E400
13833200
25821100
21863100
41843080
418C0080
818C0080
818DE040
818E3040
818C1840
818C1840
818C1880
418C1880
41841880
21861100
21863100
17E1E200
18000400
0C000C00
02003000
01C0E000
003F0000
ENDCHAR
STARTCHAR 2470
ENCODING 9328
SWIDTH 1000 0
DWIDTH 28 0
BBX 26 26 1 -2
BITMAP
003F0000
00C0C000
03003000
04000800
08000400
138FFA00
258C1100
21881100
41882080
41882080
81806080
81804040
81804040
8180C040
8180C040
81808080
41818080
41818080
61818100
21818100
17E18200
18000600
0C000C00
02003000
01C0E000
003F0000
ENDCHAR
STARTCHAR 2471
ENCODING 9329
SWIDTH 1000 0
DWIDTH 28 0
BBX 26 26 1 -2
BITMAP
003F0000
01C0E000
02001000
04000800
0883C400
13863200
25841100
21841100
41841080
41841080
81862080
81834040
8181C040
81826040
81843040
818C1880
41881880
41881880
218C1900
21863100
17E3E200
18000400
0C000C00
02003000
01C0E000
003F0000
ENDCHAR
STARTCHAR 2472
ENCODING 9330
SWIDTH 1000 0
DWIDTH 28 0
BBX 26 26 1 -2
BITMAP
003F0000
01C0E000
02001000
04000800
0883C400
13862200
25843100
218C1100
418C1880
418C1880
818C1880
818C1840
81841840
81863840
8183D840
81801880
41801080
41863080
218E3100
21846100
17E3C200
18000400
0C000C00
02003000
01C0E000
003F0000
ENDCHAR
STARTCHAR 2473
ENCODING 9331
SWIDTH 1000 0
DWIDTH 28 0
BBX 26 25 1 -2
BITMAP
007F8000
0180E000
06001800
08000C00
11E0E600
26319300
24311900
46131880
46330880
40330880
80330C80
80630C40
80430C40
80C30C40
80830880
41030880
43131880
42111900
24119100
17F0E200
18000600
0C000C00
02003000
01C0E000
007F0000
ENDCHAR
STARTCHAR 24D0
ENCODING 9424
SWIDTH 1000 0
DWIDTH 28 0
BBX 26 25 1 -2
BITMAP
007F8000
0180E000
06001800
08000C00
10000600
20000300
20000100
403E0080
40410080
40618080
80018080
800F8040
80318040
80418040
80C18080
40C18080
40C3A080
407CC100
20000100
10000200
18000600
0C000C00
02001000
01C0E000
007F0000
ENDCHAR
STARTCHAR 24D1
ENCODING 9425
SWIDTH 1000 0
DWIDTH 28 0
BBX 26 25 1 -2
BITMAP
007F8000
0180E000
06001800
08200C00
11E00600
20600300
20600100
40600080
40600080
406F0080
8070C080
80604040
80606040
80606040
80602080
40606080
40606080
40606100
2070C100
104F0200
18000600
0C000C00
02001000
01C0E000
007F0000
ENDCHAR
STARTCHAR 24D2
ENCODING 9426
SWIDTH 1000 0
DWIDTH 28 0
BBX 26 25 1 -2
BITMAP
007F8000
0180E000
06001800
08000C00
10000600
20000300
20000100
401F0080
40718080
40418080
80C00080
80C00040
80C00040
80C00040
80C08080
40C0C080
40618080
401E0100
20000100
10000200
18000600
0C000C00
02001000
01C0E000
007F0000
ENDCHAR
STARTCHAR 24D3
ENCODING 9427
SWIDTH 1000 0
DWIDTH 28 0
BBX 26 25 1 -2
BITMAP
007F8000
0180E000
06001800
08008C00
10078600
20018300
20018100
40018080
40018080
403F8080
80E38080
80C18040
81818040
81818040
81818080
41818080
41818080
40818100
20C38100
103DC200
18000600
0C000C00
02001000
01C0E000
007F0000
ENDCHAR
STARTCHAR 24D4
ENCODING 9428
SWIDTH 1000 0
DWIDTH 28 0
BBX 26 26 1 -2
BITMAP
003F0000
00C0C000
03003000
04000800
08000400
10000200
20000100
201E0100
40610080
40408080
80C0C080
80C0C040
80FFC040
80800040
80C00040
80C00080
40404080
40618080
401E0100
20000100
10000200
18000600
0C000C00
02001000
01C0E000
003F0000
ENDCHAR
STARTCHAR 24D5
ENCODING 9429
SWIDTH 1000 0
DWIDTH 28 0
BBX 26 26 1 -2
BITMAP
003F0000
01C0E000
03001000
04000800
08000400
10078200
2008C100
2008C100
40180080
40180080
807F0080
80180040
80180040
80180040
80180040
80180080
40180080
40180080
40180100
20180100
103E0200
18000600
0C000C00
02001000
01C0E000
003F0000
ENDCHAR
STARTCHAR 24D6
ENCODING 9430
SWIDTH 1000 0
DWIDTH 28 0
BBX 26 25 1 -2
BITMAP
007F8000
0180E000
06001800
08000C00
10000600
201CE300
20636100
40410080
40418080
40418080
80630080
803E0040
80400040
80600040
803F8080
40C0C080
40806080
40806100
20E1C100
103F0200
18000600
0C000C00
02001000
01C0E000
007F0000
ENDCHAR
STARTCHAR 24D7
ENCODING 9431
SWIDTH 1000 0
DWIDTH 28 0
BBX 26 25 1 -2
BITMAP
007F8000
0180F000
06001800
08000C00
10E00600
21600300
20600100
40600080
40600080
806F0080
80708040
8060C040
80604040
80604040
80604080
40604080
40604080
40604100
20604100
11F1F200
18000600
0C000C00
02001000
01C0E000
003F0000
ENDCHAR
STARTCHAR 24D8
ENCODING 9432
SWIDTH 1000 0
DWIDTH 28 0
BBX 26 25 1 -2
BITMAP
007F8000
0180F000
06001800
080C0C00
100C0600
200C0300
20000100
40000080
40000080
801C0080
800C0040
800C0040
800C0040
800C0040
800C0080
400C0080
400C0080
400C0100
200C0100
101F0200
18000600
0C000C00
02001000
01C0E000
003F0000
ENDCHAR
STARTCHAR 24D9
ENCODING 9433
SWIDTH 1000 0
DWIDTH 28 0
BBX 26 25 1 -2
BITMAP
007F8000
0180E000
06061800
08060C00
10060600
20000300
20000100
40020080
400E0080
40060080
80060080
80060040
80060040
80060040
80060080
40060080
40060080
40060100
20060100
10660200
18440600
0C380C00
02001000
01C0E000
007F0000
ENDCHAR
STARTCHAR 24DA
ENCODING 9434
SWIDTH 1000 0
DWIDTH 28 0
BBX 26 25 1 -2
BITMAP
007F8000
0180E000
06001800
08000C00
10E00600
20600300
20600100
40600080
40600080
4063E080
80618080
80630040
80640040
806C0040
80760080
40620080
40630080
40618100
2060C100
10FBF200
10000200
0C000400
02001800
01C06000
007F8000
ENDCHAR
STARTCHAR 24DB
ENCODING 9435
SWIDTH 1000 0
DWIDTH 28 0
BBX 26 25 1 -2
BITMAP
007F8000
0180F000
06001800
08000C00
101C0600
200C0300
200C0100
400C0080
400C0080
800C0080
800C0040
800C0040
800C0040
800C0040
800C0080
400C0080
400C0080
400C0100
200C0100
101F0200
18000600
0C000C00
02001000
01C0E000
003F0000
ENDCHAR
STARTCHAR 24DC
ENCODING 9436
SWIDTH 1000 0
DWIDTH 28 0
BBX 26 25 1 -2
BITMAP
003F0000
01C0E000
02001000
0C000C00
18000600
30000200
20000100
4779E080
438E3080
43041080
83041080
83041840
83041840
83041840
83041880
43041880
43041880
47DF7C80
20000100
10000200
10000200
0C000400
02001800
01C06000
007F8000
ENDCHAR
STARTCHAR 24DD
ENCODING 9437
SWIDTH 1000 0
DWIDTH 28 0
BBX 26 25 1 -2
BITMAP
003F0000
01C0E000
02001000
0C000C00
18000600
30000200
20000100
41CF0080
40518080
4060C080
8060C080
8060C040
8060C040
8060C040
8060C080
4060C080
4060C080
41F1F080
20000100
10000200
10000200
0C000400
02001800
01C06000
007F8000
ENDCHAR
STARTCHAR 24DE
ENCODING 9438
SWIDTH 1000 0
DWIDTH 28 0
BBX 26 25 1 -2
BITMAP
007F8000
0180E000
06001800
08000C00
10000600
20000300
20000100
403E0080
40418080
40C0C080
80C0C080
80804040
80804040
80C0C040
80C0C080
40C0C080
40618080
401E0100
20000100
10000200
18000600
0C000C00
02001000
01C0E000
007F0000
ENDCHAR
STARTCHAR 24DF
ENCODING 9439
SWIDTH 1000 0
DWIDTH 28 0
BBX 26 26 1 -2
BITMAP
003F0000
00C0C000
03003000
04000800
08000400
10000200
20200100
20EF8100
4070C080
40606080
80606080
80602040
80606040
80606040
80606040
8070C080
406F8080
40600080
40600100
20600100
10F80200
18000600
0C000C00
02001000
01C0E000
003F0000
ENDCHAR
STARTCHAR 24E0
ENCODING 9440
SWIDTH 1000 0
DWIDTH 28 0
BBX 26 26 1 -2
BITMAP
003F0000
00C0C000
03003000
04000800
08000400
10000200
20008100
203F8100
40C18080
41818080
81818080
81018040
81018040
81818040
81818040
80C38080
407D8080
40018080
40018100
20018100
1007C200
18000600
0C000C00
02001000
01C0E000
003F0000
ENDCHAR
STARTCHAR 24E1
ENCODING 9441
SWIDTH 1000 0
DWIDTH 28 0
BBX 26 25 1 -2
BITMAP
003F0000
01C0E000
06001800
0C000C00
10000600
30000200
20000100
4073C080
4014C080
4018C080
80100080
80100040
80100040
80100040
80100080
40100080
40180080
407C0080
20000100
10000200
10000200
0C000400
02001800
01C06000
007F8000
ENDCHAR
STARTCHAR 24E2
ENCODING 9442
SWIDTH 1000 0
DWIDTH 28 0
BBX 26 25 1 -2
BITMAP
007F8000
0180E000
06001800
08000C00
10000600
20000300
20000100
403E8080
40618080
40608080
80700080
803C0040
800F0040
80018040
8040C080
4040C080
40718080
409F0100
20000100
10000200
18000600
0C000C00
02001000
01C0E000
007F0000
ENDCHAR
STARTCHAR 24E3
ENCODING 9443
SWIDTH 1000 0
DWIDTH 28 0
BBX 26 25 1 -2
BITMAP
007F8000
0180E000
06001800
08000C00
10000600
20080300
20180100
40380080
407F0080
40180080
80180080
80180040
80180040
80180040
80180080
40180080
40180080
40188100
200F0100
10000200
10000200
0C000400
02001800
01C06000
003F8000
ENDCHAR
STARTCHAR 24E4
ENCODING 9444
SWIDTH 1000 0
DWIDTH 28 0
BBX 26 25 1 -2
BITMAP
007F8000
0180E000
06001800
08000C00
10000600
20000300
20000100
41C38080
40C08080
40C08080
80C08080
80C08040
80C08040
80C08040
80408080
40408080
4063C080
403EE100
20000100
10000200
18000600
0C000C00
02001000
01C0E000
007F0000
ENDCHAR
STARTCHAR 24E5
ENCODING 9445
SWIDTH 1000 0
DWIDTH 28 0
BBX 26 25 1 -2
BITMAP
003F0000
01C0E000
02001000
0C000800
18000400
10000200
20000100
60000100
43F1F080
40C04080
80408080
80608040
80210040
80310040
80110080
801A0080
401A0080
400C0080
200C0100
20000200
10000200
08000400
06000800
01807000
007F8000
ENDCHAR
STARTCHAR 24E6
ENCODING 9446
SWIDTH 1000 0
DWIDTH 28 0
BBX 26 25 1 -2
BITMAP
003F0000
01C0E000
02001000
0C000C00
18000600
10000200
20000100
40000100
4F9F7C80
43041080
81061080
818E2040
818A2040
80932040
80D34080
80D14080
4061C080
40618080
20208100
20000200
10000200
08000400
06001800
01806000
007F8000
ENDCHAR
STARTCHAR 24E7
ENCODING 9447
SWIDTH 1000 0
DWIDTH 28 0
BBX 26 25 1 -2
BITMAP
007F8000
0180E000
06001800
08000C00
10000600
30000300
20000100
41F3E080
40608080
40310080
801A0080
800C0040
800C0040
80160040
80230080
40618080
40C0C080
43F3F100
20000100
10000200
10000200
0C000400
02001800
01C06000
007F8000
ENDCHAR
STARTCHAR 24E8
ENCODING 9448
SWIDTH 1000 0
DWIDTH 28 0
BBX 26 25 1 -2
BITMAP
007F8000
0180F000
06001800
08000C00
10000600
20000300
21F1F100
40604080
40204080
80308080
80108040
80190040
800D0040
800E0040
80060080
40040080
40040080
40C80100
20E80100
10700200
18000600
0C000C00
02001000
01C0E000
003F0000
ENDCHAR
STARTCHAR 24E9
ENCODING 9449
SWIDTH 1000 0
DWIDTH 28 0
BBX 26 25 1 -2
BITMAP
007F8000
0180E000
06001800
08000C00
10000600
30000300
20000100
407F8080
40618080
40430080
80860080
80040040
800C0040
80180040
80304080
40604080
4040C080
40FFC100
20000100
10000200
10000200
0C000400
02001800
01C06000
007F8000
ENDCHAR
STARTCHAR 24EB
ENCODING 9451
SWIDTH 1000 0
DWIDTH 28 0
BBX 26 26 1 -2
BITMAP
003F0000
01FFE000
03FFF000
07FFF800
0FFFFC00
187F1E00
3E7F9F00
3E7F9F00
7E7F9F80
7E7F9F80
7E7F9F80
FE7F9FC0
FE7F9FC0
FE7F9FC0
FE7F9FC0
7E7F9F80
7E7F9F80
7E7F9F80
3E7F9F00
3E7F9F00
181E0600
1FFFFC00
0FFFFC00
03FFF000
01FFE000
003F0000
ENDCHAR
STARTCHAR 24EC
ENCODING 9452
SWIDTH 1000 0
DWIDTH 28 0
BBX 26 25 1 -2
BITMAP
007F8000
01FFE000
07FFF800
0FFFFC00
1E7E1E00
3879CF00
3E7BEF00
7E79E780
7E79E780
7E7FEF80
FE7FCF80
FE7FDFC0
FE7F9FC0
FE7F3FC0
7E7F7F80
7E7EFF80
7E7CF780
7E7DF700
3E7BF700
18380600
1FFFFE00
0FFFFC00
03FFF000
01FFE000
007F0000
ENDCHAR
STARTCHAR 24ED
ENCODING 9453
SWIDTH 1000 0
DWIDTH 28 0
BBX 26 25 1 -2
BITMAP
003F0000
01FFE000
03FFF000
07FFF800
1FFE1C00
1879CE00
3E7BEF00
7E79E700
7E79E780
7E7FEF80
FE7FCF80
FE7FDFC0
FE7FFFC0
FE7FEFC0
FE7FE7C0
7E7FE780
7E79E780
7E71E780
3E7BCF00
181C1E00
1FFFFE00
0FFFFC00
07FFF800
01FFE000
003F8000
ENDCHAR
STARTCHAR 24EE
ENCODING 9454
SWIDTH 1000 0
DWIDTH 28 0
BBX 26 25 1 -2
BITMAP
007F8000
03FFF000
07FFF800
0FFFFC00
1E7F9E00
387F9F00
3E7F9F00
7E7F9F80
7E7E9F80
7E7E9F80
FE7D9FC0
FE7B9FC0
FE7B9FC0
FE779FC0
7E779F80
7E600380
7E7F9F80
7E7F9F00
3E7F9F00
181E0600
1FFFFE00
0FFFFC00
03FFF000
01FFE000
003F0000
ENDCHAR
STARTCHAR 24EF
ENCODING 9455
SWIDTH 1000 0
DWIDTH 28 0
BBX 26 26 1 -2
BITMAP
003F0000
00FFC000
03FFF000
07FFF800
0FFFFC00
1E780E00
38780F00
3E7BFF00
7E7BFF80
7E7BFF80
7E7BFF80
FE7A1FC0
FE79CFC0
FE7BE7C0
FE7FE7C0
7E7FE780
7E7FE780
7E71E780
3E71E700
3E7BCF00
181C3E00
1FFFFE00
0FFFFC00
03FFF000
01FFE000
003F0000
ENDCHAR
STARTCHAR 24F0
ENCODING 9456
SWIDTH 1000 0
DWIDTH 28 0
BBX 26 26 1 -2
BITMAP
003F0000
01FFE000
03FFF000
07FFF800
0FFF1C00
187CEE00
3C7DE700
3E79C700
7E79EF80
7E7BFF80
7E7BFF80
FE721FC0
FE75CFC0
FE73E7C0
FE73E7C0
7E73E780
7E7BE780
7E79E780
3E79E700
3E7CCF00
181E1E00
1FFFFC00
0FFFFC00
03FFF000
01FFE000
003F0000
ENDCHAR
STARTCHAR 24F1
ENCODING 9457
SWIDTH 1000 0
DWIDTH 28 0
BBX 26 26 1 -2
BITMAP
003F0000
00FFC000
03FFF000
07FFF800
0FFFFC00
1E780600
38780700
3E7BFF00
7E7FEF80
7E7FEF80
7E7FDF80
FE7FDFC0
FE7F9FC0
FE7FBFC0
FE7F3FC0
7E7F3F80
7E7F3F80
7E7F3F80
3E7E7F00
3E7E7F00
181E7E00
1FFFFE00
0FFFFC00
03FFF000
01FFE000
003F0000
ENDCHAR
STARTCHAR 24F2
ENCODING 9458
SWIDTH 1000 0
DWIDTH 28 0
BBX 26 26 1 -2
BITMAP
003F0000
01FFE000
03FFF000
07FFF800
0FFE1C00
187DCE00
3E79EF00
3E7BE700
7E79E780
7E79EF80
7E7CCF80
FE7C9FC0
FE7E3FC0
FE7D9FC0
FE7BCFC0
7E73E780
7E73E780
7E73F780
3E73E700
3E79CF00
181C1E00
1FFFFE00
0FFFFC00
03FFF000
01FFE000
003F0000
ENDCHAR
STARTCHAR 24F3
ENCODING 9459
SWIDTH 1000 0
DWIDTH 28 0
BBX 26 26 1 -2
BITMAP
003F0000
01FFE000
03FFF000
07FFF800
0FFE1C00
187DCE00
3E79CF00
3E7BE700
7E73E780
7E73E780
7E73E780
FE7BE7C0
FE79E7C0
FE79E7C0
FE7E27C0
7E7FE780
7E7FE780
7E79EF80
3E79CF00
3E7B9F00
181C3E00
1FFFFE00
0FFFFC00
03FFF000
01FFE000
003F0000
ENDCHAR
STARTCHAR 24F4
ENCODING 9460
SWIDTH 1000 0
DWIDTH 28 0
BBX 26 25 1 -2
BITMAP
007F8000
01FFE000
07FFF800
0FFFFC00
1C3F0E00
399E6700
3BCE6700
71CEF780
79CCF380
7FCCF380
FFDCF380
FF9CF3C0
FFBCF3C0
FF7CF3C0
7E7CF380
7EFCF380
7DEEF780
79EEF700
3BEE6700
100F6E00
1FFFFE00
0FFFFC00
03FFF000
01FFE000
007F0000
ENDCHAR
STARTCHAR 24F5
ENCODING 9461
SWIDTH 1000 0
DWIDTH 28 0
BBX 26 27 1 -3
BITMAP
007F8000
03806000
047F1800
0980E400
16001200
281C0900
502C0500
500C0280
A00C0280
A00C0140
A00C0140
C00C0140
C00C0140
C00C0140
C00C0140
A00C0140
A00C0140
A00C0280
500C0280
500C0500
283F8900
34001200
1B002400
0CC1C800
063E1000
01C0E000
003F0000
ENDCHAR
STARTCHAR 24F6
ENCODING 9462
SWIDTH 1000 0
DWIDTH 28 0
BBX 26 28 1 -3
BITMAP
003F0000
01C0E000
023F1800
0DC0CC00
1B003600
141F0B00
28618500
50C0C280
50C0C280
A0E0C140
A0C0C140
A000C140
C0018140
C0030140
C0060140
C00C0140
A0180140
A0302180
A0602280
50C06280
50FFE500
28FFE900
14001200
1B002400
0CC1C800
023E1000
01C0E000
003F0000
ENDCHAR
STARTCHAR 24F7
ENCODING 9463
SWIDTH 1000 0
DWIDTH 28 0
BBX 26 26 1 -3
BITMAP
007F8000
03BF6000
05C0F800
1B003400
141F0A00
28618500
50C0C300
50C0C280
A0E0C180
A0C0C140
A000C140
C0018140
C01E0140
C0038140
A000C140
A0006140
A0C06240
51C06280
5080C480
28C18900
243F1200
13002200
0CC1CC00
063E1000
01C0E000
007F0000
ENDCHAR
STARTCHAR 24F8
ENCODING 9464
SWIDTH 1000 0
DWIDTH 28 0
BBX 26 27 1 -3
BITMAP
007F0000
01C0E000
063F1800
0DC0EC00
13003200
34030B00
28070500
500F0280
500B0280
A0130140
A0230140
A0630140
C0430140
C0830140
C1030140
A3030140
A3FFE140
A0030280
50030280
50030480
280FC900
24001200
13002200
0CC1CC00
063E1000
01C0E000
003F0000
ENDCHAR
STARTCHAR 24F9
ENCODING 9465
SWIDTH 1000 0
DWIDTH 28 0
BBX 26 27 1 -3
BITMAP
007F0000
01C0E000
067F1800
0D80EC00
16001200
387FCB00
307F8500
50400280
60400280
A0400140
A0C00140
C0DF0140
C0E18140
C0C0C140
C000C140
A0006140
A0006140
A0C06280
50C0C280
50C0C480
28618900
243E1200
13002200
0CC1CC00
063E1000
01C0E000
003F0000
ENDCHAR
STARTCHAR 24FA
ENCODING 9466
SWIDTH 1000 0
DWIDTH 28 0
BBX 26 27 1 -3
BITMAP
007F0000
01C0E000
063F1800
0DC0EC00
13003200
340F0B00
28308500
5061C280
5040C280
A0C00140
A0C00140
A08F0140
C0B18140
C1C0C140
C180C140
A080C140
A080C140
A0C0C280
50C0C280
5060C480
28618900
241E1200
13002200
0CC1CC00
063E1000
01C0E000
003F0000
ENDCHAR
STARTCHAR 24FB
ENCODING 9467
SWIDTH 1000 0
DWIDTH 28 0
BBX 26 26 1 -3
BITMAP
007F8000
03806000
047F1800
1980E400
16001200
28FFE900
50C04500
5080C280
A0808280
A0818140
A0010140
C0030140
C0020140
C0060140
A0060140
A0040140
A00C0240
500C0280
500C0480
280C0900
240C1200
13002200
0CC1CC00
063E1000
01C0E000
007F0000
ENDCHAR
STARTCHAR 24FC
ENCODING 9468
SWIDTH 1000 0
DWIDTH 28 0
BBX 26 27 1 -3
BITMAP
007F0000
01C0E000
063F1800
0DC0EC00
13003200
341F0B00
28618500
50C0C280
50C0C280
A0C0C140
A0408140
A0730140
C03E0140
C0170140
C0638140
A080C140
A1804140
A1806280
51806280
50C0C480
28E18900
243F1200
13002200
0CC1CC00
063E1000
01C0E000
003F0000
ENDCHAR
STARTCHAR 24FD
ENCODING 9469
SWIDTH 1000 0
DWIDTH 28 0
BBX 26 27 1 -3
BITMAP
007F0000
01C0E000
063F1800
0DC0EC00
13003200
341E0B00
28618500
50C08280
50C0C280
A0C0C140
A0C04140
A0C04140
C0C0E140
C061E140
C03E6140
A0004140
A000C140
A0C0C280
50E08280
50C18480
28630900
243E1200
13002200
0CC1CC00
063E1000
01C0E000
003F0000
ENDCHAR
STARTCHAR 24FE
ENCODING 9470
SWIDTH 1000 0
DWIDTH 28 0
BBX 26 27 1 -3
BITMAP
007F0000
01C0E000
063F1800
0DC0EC00
13003200
3441CB00
2BC22500
50C63280
50C43280
A0C41140
A0CC1940
A0CC1940
C0CC1940
C0CC1940
C0CC1940
A0CC1940
A0C41140
A0C43280
50C63280
50C22500
2BF1C900
24001200
13002400
0CC1C800
063E1000
01C0E000
003F0000
ENDCHAR
STARTCHAR 2500
ENCODING 9472
SWIDTH 1000 0
DWIDTH 28 0
BBX 28 1 0 10
BITMAP
FFFFFFF0
ENDCHAR
STARTCHAR 2501
ENCODING 9473
SWIDTH 1000 0
DWIDTH 28 0
BBX 28 3 0 9
BITMAP
FFFFFFF0
FFFFFFF0
FFFFFFF0
ENDCHAR
STARTCHAR 2502
ENCODING 9474
SWIDTH 1000 0
DWIDTH 28 0
BBX 2 28 13 -3
BITMAP
C0
C0
C0
C0
C0
C0
C0
C0
C0
C0
C0
C0
C0
C0
C0
C0
C0
C0
C0
C0
C0
C0
C0
C0
C0
C0
C0
C0
ENDCHAR
STARTCHAR 2503
ENCODING 9475
SWIDTH 1000 0
DWIDTH 28 0
BBX 4 28 12 -3
BITMAP
F0
F0
F0
F0
F0
F0
F0
F0
F0
F0
F0
F0
F0
F0
F0
F0
F0
F0
F0
F0
F0
F0
F0
F0
F0
F0
F0
F0
ENDCHAR
STARTCHAR 250C
ENCODING 9484
SWIDTH 1000 0
DWIDTH 28 0
BBX 15 14 13 -3
BITMAP
FFFE
C000
C000
C000
C000
C000
C000
C000
C000
C000
C000
C000
C000
C000
ENDCHAR
STARTCHAR 250F
ENCODING 9487
SWIDTH 1000 0
DWIDTH 28 0
BBX 16 15 12 -3
BITMAP
FFFF
FFFF
FFFF
F000
F000
F000
F000
F000
F000
F000
F000
F000
F000
F000
F000
ENDCHAR
STARTCHAR 2510
ENCODING 9488
SWIDTH 1000 0
DWIDTH 28 0
BBX 15 14 0 -3
BITMAP
FFFE
0006
0006
0006
0006
0006
0006
0006
0006
0006
0006
0006
0006
0006
ENDCHAR
STARTCHAR 2513
ENCODING 9491
SWIDTH 1000 0
DWIDTH 28 0
BBX 16 15 0 -3
BITMAP
FFFF
FFFF
FFFF
000F
000F
000F
000F
000F
000F
000F
000F
000F
000F
000F
000F
ENDCHAR
STARTCHAR 2514
ENCODING 9492
SWIDTH 1000 0
DWIDTH 28 0
BBX 15 15 13 10
BITMAP
C000
C000
C000
C000
C000
C000
C000
C000
C000
C000
C000
C000
C000
C000
FFFE
ENDCHAR
STARTCHAR 2517
ENCODING 9495
SWIDTH 1000 0
DWIDTH 28 0
BBX 16 16 12 9
BITMAP
F000
F000
F000
F000
F000
F000
F000
F000
F000
F000
F000
F000
F000
FFFF
FFFF
FFFF
ENDCHAR
STARTCHAR 2518
ENCODING 9496
SWIDTH 1000 0
DWIDTH 28 0
BBX 15 15 0 10
BITMAP
0006
0006
0006
0006
0006
0006
0006
0006
0006
0006
0006
0006
0006
0006
FFFE
ENDCHAR
STARTCHAR 251B
ENCODING 9499
SWIDTH 1000 0
DWIDTH 28 0
BBX 16 16 0 9
BITMAP
000F
000F
000F
000F
000F
000F
000F
000F
000F
000F
000F
000F
000F
FFFF
FFFF
FFFF
ENDCHAR
STARTCHAR 251C
ENCODING 9500
SWIDTH 1000 0
DWIDTH 28 0
BBX 15 28 13 -3
BITMAP
C000
C000
C000
C000
C000
C000
C000
C000
C000
C000
C000
C000
C000
C000
FFFE
C000
C000
C000
C000
C000
C000
C000
C000
C000
C000
C000
C000
C000
ENDCHAR
STARTCHAR 251D
ENCODING 9501
SWIDTH 1000 0
DWIDTH 28 0
BBX 15 28 13 -3
BITMAP
C000
C000
C000
C000
C000
C000
C000
C000
C000
C000
C000
C000
C000
FFFE
FFFE
FFFE
C000
C000
C000
C000
C000
C000
C000
C000
C000
C000
C000
C000
ENDCHAR
STARTCHAR 2520
ENCODING 9504
SWIDTH 1000 0
DWIDTH 28 0
BBX 16 28 12 -3
BITMAP
F000
F000
F000
F000
F000
F000
F000
F000
F000
F000
F000
F000
F000
F000
FFFF
F000
F000
F000
F000
F000
F000
F000
F000
F000
F000
F000
F000
F000
ENDCHAR
STARTCHAR 2523
ENCODING 9507
SWIDTH 1000 0
DWIDTH 28 0
BBX 16 28 12 -3
BITMAP
F000
F000
F000
F000
F000
F000
F000
F000
F000
F000
F000
F000
F000
FFFF
FFFF
FFFF
F000
F000
F000
F000
F000
F000
F000
F000
F000
F000
F000
F000
ENDCHAR
STARTCHAR 2524
ENCODING 9508
SWIDTH 1000 0
DWIDTH 28 0
BBX 15 28 0 -3
BITMAP
0006
0006
0006
0006
0006
0006
0006
0006
0006
0006
0006
0006
0006
0006
FFFE
0006
0006
0006
0006
0006
0006
0006
0006
0006
0006
0006
0006
0006
ENDCHAR
STARTCHAR 2525
ENCODING 9509
SWIDTH 1000 0
DWIDTH 28 0
BBX 15 28 0 -3
BITMAP
0006
0006
0006
0006
0006
0006
0006
0006
0006
0006
0006
0006
0006
FFFE
FFFE
FFFE
0006
0006
0006
0006
0006
0006
0006
0006
0006
0006
0006
0006
ENDCHAR
STARTCHAR 2528
ENCODING 9512
SWIDTH 1000 0
DWIDTH 28 0
BBX 16 28 0 -3
BITMAP
000F
000F
000F
000F
000F
000F
000F
000F
000F
000F
000F
000F
000F
000F
FFFF
000F
000F
000F
000F
000F
000F
000F
000F
000F
000F
000F
000F
000F
ENDCHAR
STARTCHAR 252B
ENCODING 9515
SWIDTH 1000 0
DWIDTH 28 0
BBX 16 28 0 -3
BITMAP
000F
000F
000F
000F
000F
000F
000F
000F
000F
000F
000F
000F
000F
FFFF
FFFF
FFFF
000F
000F
000F
000F
000F
000F
000F
000F
000F
000F
000F
000F
ENDCHAR
STARTCHAR 252C
ENCODING 9516
SWIDTH 1000 0
DWIDTH 28 0
BBX 28 14 0 -3
BITMAP
FFFFFFF0
00060000
00060000
00060000
00060000
00060000
00060000
00060000
00060000
00060000
00060000
00060000
00060000
00060000
ENDCHAR
STARTCHAR 252F
ENCODING 9519
SWIDTH 1000 0
DWIDTH 28 0
BBX 28 15 0 -3
BITMAP
FFFFFFF0
FFFFFFF0
FFFFFFF0
00060000
00060000
00060000
00060000
00060000
00060000
00060000
00060000
00060000
00060000
00060000
00060000
ENDCHAR
STARTCHAR 2530
ENCODING 9520
SWIDTH 1000 0
DWIDTH 28 0
BBX 28 14 0 -3
BITMAP
FFFFFFF0
000F0000
000F0000
000F0000
000F0000
000F0000
000F0000
000F0000
000F0000
000F0000
000F0000
000F0000
000F0000
000F0000
ENDCHAR
STARTCHAR 2533
ENCODING 9523
SWIDTH 1000 0
DWIDTH 28 0
BBX 28 15 0 -3
BITMAP
FFFFFFF0
FFFFFFF0
FFFFFFF0
000F0000
000F0000
000F0000
000F0000
000F0000
000F0000
000F0000
000F0000
000F0000
000F0000
000F0000
000F0000
ENDCHAR
STARTCHAR 2534
ENCODING 9524
SWIDTH 1000 0
DWIDTH 28 0
BBX 28 15 0 10
BITMAP
00060000
00060000
00060000
00060000
00060000
00060000
00060000
00060000
00060000
00060000
00060000
00060000
00060000
00060000
FFFFFFF0
ENDCHAR
STARTCHAR 2537
ENCODING 9527
SWIDTH 1000 0
DWIDTH 28 0
BBX 28 16 0 9
BITMAP
00060000
00060000
00060000
00060000
00060000
00060000
00060000
00060000
00060000
00060000
00060000
00060000
00060000
FFFFFFF0
FFFFFFF0
FFFFFFF0
ENDCHAR
STARTCHAR 2538
ENCODING 9528
SWIDTH 1000 0
DWIDTH 28 0
BBX 28 15 0 10
BITMAP
000F0000
000F0000
000F0000
000F0000
000F0000
000F0000
000F0000
000F0000
000F0000
000F0000
000F0000
000F0000
000F0000
000F0000
FFFFFFF0
ENDCHAR
STARTCHAR 253B
ENCODING 9531
SWIDTH 1000 0
DWIDTH 28 0
BBX 28 16 0 9
BITMAP
000F0000
000F0000
000F0000
000F0000
000F0000
000F0000
000F0000
000F0000
000F0000
000F0000
000F0000
000F0000
000F0000
FFFFFFF0
FFFFFFF0
FFFFFFF0
ENDCHAR
STARTCHAR 253C
ENCODING 9532
SWIDTH 1000 0
DWIDTH 28 0
BBX 28 28 0 -3
BITMAP
00060000
00060000
00060000
00060000
00060000
00060000
00060000
00060000
00060000
00060000
00060000
00060000
00060000
00060000
FFFFFFF0
00060000
00060000
00060000
00060000
00060000
00060000
00060000
00060000
00060000
00060000
00060000
00060000
00060000
ENDCHAR
STARTCHAR 253F
ENCODING 9535
SWIDTH 1000 0
DWIDTH 28 0
BBX 28 28 0 -3
BITMAP
00060000
00060000
00060000
00060000
00060000
00060000
00060000
00060000
00060000
00060000
00060000
00060000
00060000
FFFFFFF0
FFFFFFF0
FFFFFFF0
00060000
00060000
00060000
00060000
00060000
00060000
00060000
00060000
00060000
00060000
00060000
00060000
ENDCHAR
STARTCHAR 2542
ENCODING 9538
SWIDTH 1000 0
DWIDTH 28 0
BBX 28 28 0 -3
BITMAP
000F0000
000F0000
000F0000
000F0000
000F0000
000F0000
000F0000
000F0000
000F0000
000F0000
000F0000
000F0000
000F0000
000F0000
FFFFFFF0
000F0000
000F0000
000F0000
000F0000
000F0000
000F0000
000F0000
000F0000
000F0000
000F0000
000F0000
000F0000
000F0000
ENDCHAR
STARTCHAR 254B
ENCODING 9547
SWIDTH 1000 0
DWIDTH 28 0
BBX 28 28 0 -3
BITMAP
000F0000
000F0000
000F0000
000F0000
000F0000
000F0000
000F0000
000F0000
000F0000
000F0000
000F0000
000F0000
000F0000
FFFFFFF0
FFFFFFF0
FFFFFFF0
000F0000
000F0000
000F0000
000F0000
000F0000
000F0000
000F0000
000F0000
000F0000
000F0000
000F0000
000F0000
ENDCHAR
STARTCHAR 25A0
ENCODING 9632
SWIDTH 1000 0
DWIDTH 28 0
BBX 20 21 4 0
BITMAP
FFFFF0
FFFFF0
FFFFF0
FFFFF0
FFFFF0
FFFFF0
FFFFF0
FFFFF0
FFFFF0
FFFFF0
FFFFF0
FFFFF0
FFFFF0
FFFFF0
FFFFF0
FFFFF0
FFFFF0
FFFFF0
FFFFF0
FFFFF0
FFFFF0
ENDCHAR
STARTCHAR 25A1
ENCODING 9633
SWIDTH 1000 0
DWIDTH 28 0
BBX 20 21 4 0
BITMAP
FFFFF0
800010
800010
800010
800010
800010
800010
800010
800010
800010
800010
800010
800010
800010
800010
800010
800010
800010
800010
800010
FFFFF0
ENDCHAR
STARTCHAR 25B1
ENCODING 9649
SWIDTH 500 0
DWIDTH 14 0
BBX 12 5 1 8
BITMAP
1FF0
2020
2040
4040
FF80
ENDCHAR
STARTCHAR 25B2
ENCODING 9650
SWIDTH 1000 0
DWIDTH 28 0
BBX 22 22 3 0
BITMAP
002000
003000
003000
007800
007800
00FC00
00FC00
01FE00
01FE00
03FF00
03FF00
07FF80
07FF80
0FFFC0
0FFFC0
1FFFE0
1FFFE0
3FFFF0
7FFFF8
7FFFF8
FFFFFC
FFFFFC
ENDCHAR
STARTCHAR 25B3
ENCODING 9651
SWIDTH 1000 0
DWIDTH 28 0
BBX 22 22 3 0
BITMAP
002000
003000
003000
007800
004800
00CC00
008400
018600
010200
030300
020100
060180
040080
0C00C0
080040
100020
100020
200010
600018
400008
C0000C
FFFFFC
ENDCHAR
STARTCHAR 25B6
ENCODING 9654
SWIDTH 500 0
DWIDTH 14 0
BBX 11 16 2 3
BITMAP
8000
8000
E000
F000
FC00
FE00
FF80
FFC0
FFE0
FFC0
FF00
FE00
F800
F000
C000
8000
ENDCHAR
STARTCHAR 25B7
ENCODING 9655
SWIDTH 500 0
DWIDTH 14 0
BBX 11 16 2 3
BITMAP
8000
8000
E000
B000
8C00
8600
8180
80C0
8060
80C0
8300
8600
9800
B000
C000
8000
ENDCHAR
STARTCHAR 25BC
ENCODING 9660
SWIDTH 1000 0
DWIDTH 28 0
BBX 22 22 3 -1
BITMAP
FFFFFC
FFFFFC
7FFFF8
7FFFF8
3FFFF0
1FFFE0
1FFFE0
0FFFC0
0FFFC0
07FF80
07FF80
03FF00
03FF00
01FE00
01FE00
00FC00
00FC00
007800
007800
003000
003000
002000
ENDCHAR
STARTCHAR 25BD
ENCODING 9661
SWIDTH 1000 0
DWIDTH 28 0
BBX 22 22 3 -1
BITMAP
FFFFFC
C0000C
400008
200018
200010
100020
100020
080040
0C00C0
040080
060180
020100
030300
010200
018600
008400
00CC00
004800
007800
003000
003000
002000
ENDCHAR
STARTCHAR 25C0
ENCODING 9664
SWIDTH 500 0
DWIDTH 14 0
BBX 11 16 1 3
BITMAP
0020
0020
00E0
01E0
07E0
0FE0
3FE0
7FE0
FFE0
7FE0
1FE0
0FE0
03E0
01E0
0060
0020
ENDCHAR
STARTCHAR 25C1
ENCODING 9665
SWIDTH 500 0
DWIDTH 14 0
BBX 11 16 1 3
BITMAP
0020
0020
00E0
01A0
0620
0C20
3020
6020
C020
6020
1820
0C20
0320
01A0
0060
0020
ENDCHAR
STARTCHAR 25C6
ENCODING 9670
SWIDTH 1000 0
DWIDTH 28 0
BBX 26 25 1 -2
BITMAP
000C0000
001E0000
003F0000
007F8000
00FFC000
01FFE000
03FFF000
07FFF800
0FFFFC00
1FFFFE00
3FFFFF00
7FFFFF80
FFFFFFC0
7FFFFF80
3FFFFF00
1FFFFE00
0FFFFC00
07FFF800
03FFF000
01FFE000
00FFC000
007F8000
003F0000
001E0000
00080000
ENDCHAR
STARTCHAR 25C7
ENCODING 9671
SWIDTH 1000 0
DWIDTH 28 0
BBX 26 25 1 -2
BITMAP
000C0000
001E0000
00330000
00618000
00C0C000
01806000
03003000
06001800
0C000C00
18000600
30000300
60000180
C00000C0
60000180
30000300
18000600
0C000C00
06001800
03003000
01806000
00C0C000
00618000
00330000
001E0000
00080000
ENDCHAR
STARTCHAR 25C9
ENCODING 9673
SWIDTH 500 0
DWIDTH 14 0
BBX 12 13 1 4
BITMAP
0F00
30C0
4020
CF30
9F90
9F90
9F90
9F90
9F90
CF30
4020
30C0
0F00
ENDCHAR
STARTCHAR 25CB
ENCODING 9675
SWIDTH 1000 0
DWIDTH 28 0
BBX 24 23 2 -1
BITMAP
007E00
0381C0
060060
080010
100008
200004
600006
400002
400002
C00003
800001
800001
800001
C00003
400002
400002
600006
200004
100008
080010
060060
0381C0
007F00
ENDCHAR
STARTCHAR 25CE
ENCODING 9678
SWIDTH 1000 0
DWIDTH 28 0
BBX 24 23 2 -1
BITMAP
007E00
0381C0
060060
080010
107C08
20C304
610186
4200C2
460062
840021
840021
840021
840021
860061
420042
410082
60C306
207E04
100008
180010
060060
0381C0
007E00
ENDCHAR
STARTCHAR 25CF
ENCODING 9679
SWIDTH 1000 0
DWIDTH 28 0
BBX 24 23 2 -1
BITMAP
007E00
03FFC0
07FFE0
0FFFF0
1FFFF8
3FFFFC
7FFFFE
7FFFFE
7FFFFE
FFFFFF
FFFFFF
FFFFFF
FFFFFF
FFFFFF
7FFFFE
7FFFFE
7FFFFE
3FFFFC
1FFFF8
0FFFF0
07FFE0
03FFC0
007F00
ENDCHAR
STARTCHAR 25D0
ENCODING 9680
SWIDTH 500 0
DWIDTH 14 0
BBX 12 13 1 4
BITMAP
0F00
3CC0
7C60
FC30
FC10
FC10
FC10
FC10
FC10
FC20
7C60
3DC0
0F00
ENDCHAR
STARTCHAR 25D1
ENCODING 9681
SWIDTH 500 0
DWIDTH 14 0
BBX 12 13 1 4
BITMAP
0F00
33C0
43E0
C3F0
83F0
83F0
83F0
83F0
83F0
C3F0
63E0
3BC0
0F00
ENDCHAR
STARTCHAR 25D2
ENCODING 9682
SWIDTH 500 0
DWIDTH 14 0
BBX 12 12 1 5
BITMAP
0F00
30C0
4020
C030
8010
8010
FFF0
FFF0
FFF0
7FE0
3FC0
1F80
ENDCHAR
STARTCHAR 25D3
ENCODING 9683
SWIDTH 500 0
DWIDTH 14 0
BBX 12 12 1 5
BITMAP
1F00
3FC0
7FE0
FFF0
FFF0
FFF0
8010
8010
8030
4020
30C0
0F80
ENDCHAR
STARTCHAR 25E6
ENCODING 9702
SWIDTH 500 0
DWIDTH 14 0
BBX 6 7 4 7
BITMAP
78
CC
84
84
84
CC
78
ENDCHAR
STARTCHAR 25EF
ENCODING 9711
SWIDTH 1000 0
DWIDTH 28 0
BBX 26 25 1 -2
BITMAP
007F8000
0180E000
06001800
08000C00
10000600
20000300
20000100
40000080
40000080
40000080
80000080
80000040
80000040
80000040
80000080
40000080
40000080
40000100
20000100
10000200
18000600
0C000C00
02001000
01C0E000
007F0000
ENDCHAR
STARTCHAR 2600
ENCODING 9728
SWIDTH 1000 0
DWIDTH 28 0
BBX 26 26 1 -2
BITMAP
000C0000
000C0000
000C0000
100C0400
080C0600
04000800
023E1000
037FB000
00FFC000
01FFE000
03FFE000
03FFF000
03FFF000
FBFFF7C0
03FFF000
03FFE000
01FFE000
00FFC000
027FA000
033F1000
04000800
080C0400
100C0600
000C0000
000C0000
000C0000
ENDCHAR
STARTCHAR 2601
ENCODING 9729
SWIDTH 1000 0
DWIDTH 28 0
BBX 24 19 2 -1
BITMAP
00F800
03FE00
03FF00
07FF00
07FF80
07FF9E
07FFFF
07FFFF
1FFFFF
7FFFFF
7FFFFE
FFFFFC
FFFFFE
FFFFFF
FFEFFF
FFCFFF
7F87FF
1E03FE
0000F8
ENDCHAR
STARTCHAR 2602
ENCODING 9730
SWIDTH 1000 0
DWIDTH 28 0
BBX 26 25 1 -2
BITMAP
00080000
00080000
007F8000
03FFF000
07FFF800
1FFFFE00
1FFFFE00
3FFFFF00
7FFFFF80
479E7880
830C30C0
82081040
82081040
00080000
00080000
00080000
00080000
00080000
00080000
00080000
00080000
00080000
00480000
00480000
00780000
ENDCHAR
STARTCHAR 2603
ENCODING 9731
SWIDTH 1000 0
DWIDTH 28 0
BBX 26 26 1 -2
BITMAP
C0180000
C018C180
030120C0
05021000
02040800
00080400
70380400
30CC0B80
03031280
0400F100
04000800
04330800
64330800
62001000
013F21C0
02003140
CC000C80
D0000400
100C0200
200C0200
20000200
20000200
100C0200
100C0200
0C000C00
03FFF000
ENDCHAR
STARTCHAR 2605
ENCODING 9733
SWIDTH 1000 0
DWIDTH 28 0
BBX 26 26 1 -2
BITMAP
00080000
00080000
000C0000
000C0000
000C0000
001E0000
001E0000
001E0000
003F0000
003F0000
FFFFFFC0
3FFFFF00
1FFFFE00
07FFF800
03FFF000
01FFE000
00FFC000
01FFE000
01FFE000
03FFE000
03F3F000
03E0F000
07807800
07003800
06001800
08000400
ENDCHAR
STARTCHAR 2606
ENCODING 9734
SWIDTH 1000 0
DWIDTH 28 0
BBX 26 26 1 -2
BITMAP
00080000
00080000
000C0000
000C0000
000C0000
00120000
00120000
00120000
00210000
00210000
FFE1FFC0
20000100
18000600
04000800
03003000
01806000
00804000
01002000
01082000
011C2000
02331000
02619000
06805000
07003800
06001800
08000400
ENDCHAR
STARTCHAR 260E
ENCODING 9742
SWIDTH 1000 0
DWIDTH 28 0
BBX 26 21 1 0
BITMAP
07FFF800
1FFFFE00
3FFFFF00
7EE1DF80
78E1C780
F8E1C7C0
F8FFC7C0
01FFE000
03E1F000
03C0F000
07807800
07003800
07003800
0F003C00
1F003E00
3F807F00
3F80FF00
7FE1FF80
7FFFFF80
7FFFFF80
7FFFFF80
ENDCHAR
STARTCHAR 2616
ENCODING 9750
SWIDTH 1000 0
DWIDTH 28 0
BBX 22 22 3 0
BITMAP
007800
00CC00
030300
0E01C0
180060
200010
200010
600018
600018
400008
400008
400008
400008
400008
400008
400008
C0000C
C0000C
800004
800004
800004
FFFFFC
ENDCHAR
STARTCHAR 2617
ENCODING 9751
SWIDTH 1000 0
DWIDTH 28 0
BBX 22 23 3 0
BITMAP
002000
007800
01FE00
03FF00
0FFFC0
3FFFF0
3FFFF0
3FFFF0
7FFFF8
7FFFF8
7FFFF8
7FFFF8
7FFFF8
7FFFF8
7FFFF8
7FFFF8
7FFFF8
FFFFFC
FFFFFC
FFFFFC
FFFFFC
FFFFFC
FFFFFC
ENDCHAR
STARTCHAR 261E
ENCODING 9758
SWIDTH 1000 0
DWIDTH 28 0
BBX 24 11 2 5
BITMAP
F8FFFE
8F0201
880302
883FFC
8FC120
900E90
880A60
8C1520
9318C0
8CC480
783F00
ENDCHAR
STARTCHAR 2640
ENCODING 9792
SWIDTH 1000 0
DWIDTH 28 0
BBX 18 25 5 -2
BITMAP
01E000
061800
080400
180600
100200
100200
100200
100200
180600
080400
0E1800
03F000
00C000
00C000
00C000
00C000
FFFFC0
00C000
00C000
00C000
00C000
00C000
00C000
00C000
00C000
ENDCHAR
STARTCHAR 2642
ENCODING 9794
SWIDTH 1000 0
DWIDTH 28 0
BBX 22 23 3 -1
BITMAP
000FFC
00001C
000034
000064
0000C4
000184
000104
000204
000404
000804
0F1800
30F000
406000
C02000
801000
801000
801000
801000
801000
C02000
406000
30C000
1F0000
ENDCHAR
STARTCHAR 2660
ENCODING 9824
SWIDTH 500 0
DWIDTH 14 0
BBX 12 16 1 3
BITMAP
0600
0E00
0F00
1F80
3FC0
3FC0
7FE0
FFE0
FFF0
FFF0
FFF0
FFF0
76E0
0F00
0F00
0F00
ENDCHAR
STARTCHAR 2661
ENCODING 9825
SWIDTH 500 0
DWIDTH 14 0
BBX 12 15 1 3
BITMAP
79E0
CF30
8610
8410
8010
8010
8030
4020
4020
2040
2040
1080
0900
0F00
0600
ENDCHAR
STARTCHAR 2662
ENCODING 9826
SWIDTH 500 0
DWIDTH 14 0
BBX 12 18 1 2
BITMAP
0400
0600
0600
0900
1980
1080
2040
6060
4020
C030
4020
2040
2040
1080
1980
0900
0600
0600
ENDCHAR
STARTCHAR 2663
ENCODING 9827
SWIDTH 500 0
DWIDTH 14 0
BBX 14 16 0 3
BITMAP
0780
0FC0
0FC0
0FC0
0FC0
0FC0
3FF0
7FF8
7FF8
FFFC
7FF8
7FF8
3FF0
0780
0780
0780
ENDCHAR
STARTCHAR 2664
ENCODING 9828
SWIDTH 500 0
DWIDTH 14 0
BBX 12 16 1 3
BITMAP
0600
0F00
0900
1080
2040
4040
4020
8010
8010
8010
8A10
C930
7AE0
0900
0900
0F00
ENDCHAR
STARTCHAR 2665
ENCODING 9829
SWIDTH 500 0
DWIDTH 14 0
BBX 12 15 1 3
BITMAP
79E0
FFF0
FFF0
FFF0
FFF0
FFF0
FFF0
7FE0
7FE0
3FC0
3FC0
1F80
0F00
0F00
0600
ENDCHAR
STARTCHAR 2666
ENCODING 9830
SWIDTH 500 0
DWIDTH 14 0
BBX 12 18 1 2
BITMAP
0400
0600
0600
0F00
1F80
1F80
3FC0
7FE0
7FE0
FFF0
7FE0
3FC0
3FC0
1F80
1F80
0F00
0600
0600
ENDCHAR
STARTCHAR 2667
ENCODING 9831
SWIDTH 500 0
DWIDTH 14 0
BBX 14 15 0 3
BITMAP
0780
0CC0
0840
0840
0840
34B0
48C8
4008
8004
4008
4488
3CF0
0480
0480
0780
ENDCHAR
STARTCHAR 2668
ENCODING 9832
SWIDTH 1000 0
DWIDTH 28 0
BBX 24 21 2 1
BITMAP
001000
062040
042080
042080
042080
042080
043080
0630C0
021840
030860
030C20
110C28
210C24
410C22
C20843
C40843
C01002
602006
30001C
0E0070
01FF80
ENDCHAR
STARTCHAR 2669
ENCODING 9833
SWIDTH 500 0
DWIDTH 14 0
BBX 5 16 3 2
BITMAP
08
08
08
08
08
08
08
08
08
08
08
08
78
F8
F8
70
ENDCHAR
STARTCHAR 266A
ENCODING 9834
SWIDTH 1000 0
DWIDTH 28 0
BBX 19 24 5 -1
BITMAP
010000
008000
008000
00C000
00F000
013800
011C00
010E00
010700
010380
0101C0
0100C0
010060
010040
0100C0
010180
010300
010400
010000
3F0000
7F0000
FF0000
FE0000
7C0000
ENDCHAR
STARTCHAR 266B
ENCODING 9835
SWIDTH 500 0
DWIDTH 14 0
BBX 12 17 1 2
BITMAP
0010
01F0
1FF0
1F10
1010
1010
1010
1010
1010
1010
1010
1010
10F0
71E0
F0E0
F000
E000
ENDCHAR
STARTCHAR 266C
ENCODING 9836
SWIDTH 500 0
DWIDTH 14 0
BBX 12 17 1 2
BITMAP
0010
01F0
1FF0
1E10
11F0
1FF0
1C10
1010
1010
1010
1010
1010
10F0
71E0
F0E0
F000
E000
ENDCHAR
STARTCHAR 266D
ENCODING 9837
SWIDTH 1000 0
DWIDTH 28 0
BBX 10 24 10 -1
BITMAP
8000
8000
8000
8000
8000
8000
8000
8000
9F00
A380
C180
81C0
81C0
81C0
8180
8180
8380
8300
8600
8C00
9800
B000
C000
8000
ENDCHAR
STARTCHAR 266E
ENCODING 9838
SWIDTH 500 0
DWIDTH 14 0
BBX 6 15 4 3
BITMAP
80
80
80
9C
FC
C4
84
84
84
BC
FC
84
04
04
04
ENDCHAR
STARTCHAR 266F
ENCODING 9839
SWIDTH 1000 0
DWIDTH 28 0
BBX 16 24 6 -1
BITMAP
0010
0810
0810
0810
0810
0813
083F
0FFC
FF90
F810
8810
0810
0810
0811
081F
09FF
3FF0
FC10
C810
0810
0810
0810
0810
0800
ENDCHAR
STARTCHAR 2713
ENCODING 10003
SWIDTH 1000 0
DWIDTH 28 0
BBX 19 18 6 2
BITMAP
000060
000040
000080
000100
000200
000600
000C00
000800
001000
003000
406000
E0C000
618000
730000
360000
3E0000
1C0000
180000
ENDCHAR
STARTCHAR 2756
ENCODING 10070
SWIDTH 1000 0
DWIDTH 28 0
BBX 26 25 1 -2
BITMAP
000C0000
001E0000
003F0000
007F8000
00FFC000
01FFE000
00FFC000
067F9800
0F3F3C00
1F9E7E00
3FC8FF00
7FE1FF80
FFF3FFC0
7FE1FF80
3FCCFF00
1F9E7E00
0F3F3C00
047F9000
00FFC000
01FFE000
00FFC000
007F8000
003F0000
001E0000
00080000
ENDCHAR
STARTCHAR 2776
ENCODING 10102
SWIDTH 1000 0
DWIDTH 28 0
BBX 26 25 1 -2
BITMAP
003F0000
01FFE000
07FFF000
0FFFFC00
1FFBFE00
3FC3FE00
3FF3FF00
7FF3FF80
7FF3FF80
7FF3FF80
FFF3FF80
FFF3FFC0
FFF3FFC0
FFF3FFC0
FFF3FF80
7FF3FF80
7FF3FF80
7FF3FF80
3FF3FF00
1FF3FE00
1FC07E00
0FFFFC00
03FFF000
01FFE000
003F8000
ENDCHAR
STARTCHAR 2777
ENCODING 10103
SWIDTH 1000 0
DWIDTH 28 0
BBX 26 26 1 -2
BITMAP
003F0000
00FFC000
03FFF000
07FFF800
0FE1FC00
1F9E7E00
3F3F3F00
3F3F3F00
7F3F3F80
7F3F3F80
7FFF3F80
FFFE7FC0
FFFE7FC0
FFFCFFC0
FFF9FFC0
7FF7FF80
7FEFDF80
7FDFDF80
7FBFDF00
3F7F9F00
1E001E00
1E001E00
0FFFFC00
03FFF000
01FFE000
003F0000
ENDCHAR
STARTCHAR 2778
ENCODING 10104
SWIDTH 1000 0
DWIDTH 28 0
BBX 26 26 1 -2
BITMAP
003F0000
01FFC000
03FFF000
07FFF800
0FC0FC00
1F9E7E00
3F3F3F00
3F3F3F00
7F3F3F80
7FFF3F80
7FFF3F80
FFFE7FC0
FFE1FFC0
FFE2FFC0
FFFE3FC0
7FFF3F80
7FFF9F80
7F7F9F80
3E3F9F00
3E3F9F00
1F7F3E00
1F9E7E00
0FC0FC00
03FFF000
01FFE000
003F0000
ENDCHAR
STARTCHAR 2779
ENCODING 10105
SWIDTH 1000 0
DWIDTH 28 0
BBX 26 25 1 -2
BITMAP
003F0000
01FFE000
03FFF000
0FFFFC00
1FFCFE00
1FF8FE00
3FF4FF00
7FF4FF80
7FECFF80
7FDCFF80
FF9CFF80
FF3CFFC0
FF7CFFC0
FEFCFFC0
FDFCFF80
7C001F80
7FFCFF80
7FFCFF80
3FFCFF00
1FFCFE00
1FE03E00
0FFFFC00
03FFF000
01FFE000
007F8000
ENDCHAR
STARTCHAR 277A
ENCODING 10106
SWIDTH 1000 0
DWIDTH 28 0
BBX 26 25 1 -2
BITMAP
007F8000
01FFE000
07FFF800
0FFFFC00
1F803E00
3F803F00
3FBFFF00
7F3FFF80
7F3FFF80
7F3FFF80
FF20FF80
FF5E7FC0
FF3F3FC0
FFFFBFC0
7FFF9F80
7FFF9F80
7F3F9F80
7F3F9F80
3F3F3F00
1F7E3E00
1F9C7E00
0FC1FC00
03FFF000
01FFE000
007F0000
ENDCHAR
STARTCHAR 277B
ENCODING 10107
SWIDTH 1000 0
DWIDTH 28 0
BBX 26 25 1 -2
BITMAP
007F8000
01FFE000
07FFF800
0FFFFC00
1FF0FE00
3FCF3F00
3F9E3F00
7FBF3F80
7F3FFF80
7F3FFF80
FF70FF80
FE5E7FC0
FE3F3FC0
FE7F3FC0
7E7F9F80
7E7F9F80
7F3FBF80
7F3F3F80
3FBF3F00
1F9E7E00
1FE1FE00
0FFFFC00
03FFF000
01FFE000
007F0000
ENDCHAR
STARTCHAR 277C
ENCODING 10108
SWIDTH 1000 0
DWIDTH 28 0
BBX 26 26 1 -2
BITMAP
003F0000
00FFC000
03FFF000
07FFF800
0FFFFC00
1F001E00
3F001F00
3F3FBF00
7F7F7F80
7F7F7F80
7F7E7F80
FFFEFFC0
FFFCFFC0
FFFDFFC0
FFF9FFC0
7FF9FF80
7FF9FF80
7FF3FF80
7FF3FF00
3FF3FF00
1FF3FE00
1FF3FE00
0FFFFC00
03FFF000
01FFE000
003F0000
ENDCHAR
STARTCHAR 277D
ENCODING 10109
SWIDTH 1000 0
DWIDTH 28 0
BBX 26 25 1 -2
BITMAP
007F8000
01FFE000
07FFF800
0FFFFC00
1FC0FE00
3F9E7F00
3F3F3F00
7F3F3F80
7F3F3F80
7F1F7F80
FF8CFF80
FFC1FFC0
FFFAFFC0
FFBC7FC0
7F7F3F80
7E7F9F80
7E7F9F80
7E7F9F00
3F7F3F00
1F1E7E00
1FC0FE00
0FFFFC00
03FFF000
01FFE000
007F0000
ENDCHAR
STARTCHAR 277E
ENCODING 10110
SWIDTH 1000 0
DWIDTH 28 0
BBX 26 25 1 -2
BITMAP
007F8000
01FFE000
07FFF800
0FFFFC00
1FE1FE00
3F9E7F00
3F3F7F00
7F3F3F80
7F7F3F80
7F7F9F80
FF7F9F80
FF3F9FC0
FFBF9FC0
FFDF9FC0
7FFF9F80
7FFF3F80
7F3F3F80
7F1F3F00
3F3E7F00
1F9CFE00
1FC1FE00
0FFFFC00
03FFF000
01FFE000
007F0000
ENDCHAR
STARTCHAR 277F
ENCODING 10111
SWIDTH 1000 0
DWIDTH 28 0
BBX 26 26 1 -2
BITMAP
003F0000
01FFE000
03FFF000
07FFF800
0FFE3C00
18FCDE00
3CF9CF00
3EF9EF00
7EFBE780
7EF3E780
7EF3E780
FEF3E7C0
FEF3E7C0
FEF3E7C0
FEF3E7C0
7EF3E780
7EFBE780
7EF9EF80
3EF9CF00
3E7DCF00
183E3E00
1FFFFE00
0FFFFC00
03FFF000
01FFE000
003F0000
ENDCHAR
STARTCHAR 2934
ENCODING 10548
SWIDTH 500 0
DWIDTH 14 0
BBX 12 21 1 1
BITMAP
0100
0380
07C0
0F40
1B20
1330
2310
0300
0300
0300
0300
0300
0300
0300
0300
0300
0300
0300
0200
0600
F800
ENDCHAR
STARTCHAR 2935
ENCODING 10549
SWIDTH 500 0
DWIDTH 14 0
BBX 12 21 1 0
BITMAP
F800
0600
0200
0300
0300
0300
0300
0300
0300
0300
0300
0300
0300
0300
2310
1330
1B20
0F40
07C0
0380
0100
ENDCHAR
STARTCHAR 29BF
ENCODING 10687
SWIDTH 1000 0
DWIDTH 28 0
BBX 24 23 2 -1
BITMAP
007E00
0381C0
060060
080010
100008
200004
600006
403C02
407E02
80FF01
80FF01
80FF01
80FF01
807E01
403C02
400002
600006
200004
100008
180010
060060
0381C0
007E00
ENDCHAR
STARTCHAR 29FA
ENCODING 10746
SWIDTH 500 0
DWIDTH 14 0
BBX 12 15 1 3
BITMAP
1880
1880
1880
1880
1880
1880
1880
FFF0
1880
1880
1880
1880
1880
1880
1880
ENDCHAR
STARTCHAR 29FB
ENCODING 10747
SWIDTH 500 0
DWIDTH 14 0
BBX 12 15 1 3
BITMAP
2640
2640
2640
2640
2640
2640
2640
FFF0
2640
2640
2640
2640
2640
2640
2640
ENDCHAR
STARTCHAR 3000
ENCODING 12288
SWIDTH 1000 0
DWIDTH 28 0
BBX 0 0 0 0
BITMAP
ENDCHAR
STARTCHAR 3001
ENCODING 12289
SWIDTH 1000 0
DWIDTH 28 0
BBX 5 6 2 -2
BITMAP
80
E0
70
38
38
18
ENDCHAR
STARTCHAR 3002
ENCODING 12290
SWIDTH 1000 0
DWIDTH 28 0
BBX 7 7 1 -2
BITMAP
38
44
82
82
82
46
38
ENDCHAR
STARTCHAR 3003
ENCODING 12291
SWIDTH 1000 0
DWIDTH 28 0
BBX 12 12 7 6
BITMAP
0E30
0C30
0C70
1C60
1860
18C0
10C0
3080
2180
6100
4100
8200
ENDCHAR
STARTCHAR 3005
ENCODING 12293
SWIDTH 1000 0
DWIDTH 28 0
BBX 18 17 4 3
BITMAP
018000
00C000
00C000
018000
018100
031FC0
03E1C0
060300
0C0300
180600
300C00
620800
81D000
007000
003800
000C00
000C00
ENDCHAR
STARTCHAR 3006
ENCODING 12294
SWIDTH 1000 0
DWIDTH 28 0
BBX 18 21 5 0
BITMAP
000300
0000C0
0001C0
000300
000600
000C00
071800
09B000
10E000
106000
20B000
213000
231800
461800
440800
480000
580000
F00000
A00000
E00000
400000
ENDCHAR
STARTCHAR 3007
ENCODING 12295
SWIDTH 1000 0
DWIDTH 28 0
BBX 22 22 3 0
BITMAP
00FC00
030380
0C00C0
100020
200010
600008
400008
800004
800004
800004
800004
800004
800004
800004
800004
400008
400008
200010
100020
0C00C0
070380
00FC00
ENDCHAR
STARTCHAR 3008
ENCODING 12296
SWIDTH 1000 0
DWIDTH 28 0
BBX 11 25 16 -2
BITMAP
0060
0080
0180
0300
0200
0400
0C00
1800
1000
2000
6000
C000
8000
C000
4000
2000
1000
1800
0C00
0400
0200
0300
0180
0080
0060
ENDCHAR
STARTCHAR 3009
ENCODING 12297
SWIDTH 1000 0
DWIDTH 28 0
BBX 11 25 2 -2
BITMAP
8000
4000
6000
3000
1000
0800
0C00
0600
0200
0100
0080
00C0
0060
00C0
0180
0100
0200
0600
0C00
0800
1000
3000
6000
4000
8000
ENDCHAR
STARTCHAR 300A
ENCODING 12298
SWIDTH 1000 0
DWIDTH 28 0
BBX 12 25 15 -2
BITMAP
0130
0320
0260
0440
0480
0880
1900
1300
3200
2600
4400
4800
8800
4800
4400
2600
3200
1300
1900
0880
0480
0440
0260
0320
0130
ENDCHAR
STARTCHAR 300B
ENCODING 12299
SWIDTH 1000 0
DWIDTH 28 0
BBX 12 25 1 -2
BITMAP
C800
4C00
6400
2200
1200
1100
0980
0C80
04C0
0240
0220
0120
0110
0120
0220
0640
04C0
0C80
0980
1100
1200
2200
6400
4C00
C800
ENDCHAR
STARTCHAR 300C
ENCODING 12300
SWIDTH 1000 0
DWIDTH 28 0
BBX 7 20 19 3
BITMAP
FE
80
80
80
80
80
80
80
80
80
80
80
80
80
80
80
80
80
80
80
ENDCHAR
STARTCHAR 300D
ENCODING 12301
SWIDTH 1000 0
DWIDTH 28 0
BBX 7 20 2 -2
BITMAP
02
02
02
02
02
02
02
02
02
02
02
02
02
02
02
02
02
02
02
FE
ENDCHAR
STARTCHAR 300E
ENCODING 12302
SWIDTH 1000 0
DWIDTH 28 0
BBX 10 20 16 3
BITMAP
FFC0
8040
8040
8FC0
9000
9000
9000
9000
9000
9000
9000
9000
9000
9000
9000
9000
9000
9000
9000
F000
ENDCHAR
STARTCHAR 300F
ENCODING 12303
SWIDTH 1000 0
DWIDTH 28 0
BBX 10 20 2 -2
BITMAP
03C0
0440
0440
0440
0440
0440
0440
0440
0440
0440
0440
0440
0440
0440
0440
0440
FC40
8040
8040
FFC0
ENDCHAR
STARTCHAR 3010
ENCODING 12304
SWIDTH 1000 0
DWIDTH 28 0
BBX 6 25 20 -2
BITMAP
FC
F0
F0
E0
C0
C0
C0
80
80
80
80
80
80
80
80
80
80
80
C0
C0
C0
E0
F0
F0
FC
ENDCHAR
STARTCHAR 3011
ENCODING 12305
SWIDTH 1000 0
DWIDTH 28 0
BBX 5 25 3 -2
BITMAP
F8
78
78
38
18
18
18
08
08
08
08
08
08
08
08
08
08
08
18
18
18
38
78
78
F8
ENDCHAR
STARTCHAR 3012
ENCODING 12306
SWIDTH 1000 0
DWIDTH 28 0
BBX 20 23 4 -2
BITMAP
FFFFF0
FFFFF0
FFFFF0
000000
000000
000000
000000
FFFFF0
FFFFF0
FFFFF0
006000
006000
006000
006000
006000
006000
006000
006000
006000
006000
006000
006000
006000
ENDCHAR
STARTCHAR 3013
ENCODING 12307
SWIDTH 1000 0
DWIDTH 28 0
BBX 20 13 4 4
BITMAP
FFFFF0
FFFFF0
FFFFF0
FFFFF0
000000
000000
000000
000000
000000
FFFFF0
FFFFF0
FFFFF0
FFFFF0
ENDCHAR
STARTCHAR 3014
ENCODING 12308
SWIDTH 1000 0
DWIDTH 28 0
BBX 6 26 20 -2
BITMAP
04
0C
30
C0
80
80
80
80
80
80
80
80
80
80
80
80
80
80
80
80
80
80
80
E0
38
0C
ENDCHAR
STARTCHAR 3015
ENCODING 12309
SWIDTH 1000 0
DWIDTH 28 0
BBX 6 26 2 -2
BITMAP
80
C0
30
0C
04
04
04
04
04
04
04
04
04
04
04
04
04
04
04
04
04
04
04
1C
70
C0
ENDCHAR
STARTCHAR 3016
ENCODING 12310
SWIDTH 1000 0
DWIDTH 28 0
BBX 8 25 18 -2
BITMAP
FF
84
84
88
90
90
90
A0
A0
A0
A0
A0
A0
A0
A0
A0
A0
A0
90
90
90
88
84
84
FF
ENDCHAR
STARTCHAR 3017
ENCODING 12311
SWIDTH 1000 0
DWIDTH 28 0
BBX 7 25 3 -2
BITMAP
FE
42
42
22
22
12
12
12
0A
0A
0A
0A
0A
0A
0A
0A
0A
12
12
12
22
22
42
42
FE
ENDCHAR
STARTCHAR 3018
ENCODING 12312
SWIDTH 1000 0
DWIDTH 28 0
BBX 8 26 18 -2
BITMAP
01
03
0D
31
C1
86
98
90
90
90
90
90
90
90
90
90
90
90
90
90
98
86
C1
31
0D
03
ENDCHAR
STARTCHAR 3019
ENCODING 12313
SWIDTH 1000 0
DWIDTH 28 0
BBX 8 26 2 -2
BITMAP
80
C0
B0
8C
83
61
19
09
09
09
09
09
09
09
09
09
09
09
09
09
19
61
83
8C
B0
C0
ENDCHAR
STARTCHAR 301C
ENCODING 12316
SWIDTH 1000 0
DWIDTH 28 0
BBX 22 6 3 8
BITMAP
0F0000
3FC000
60E004
C03818
801FF0
0003C0
ENDCHAR
STARTCHAR 301D
ENCODING 12317
SWIDTH 1000 0
DWIDTH 28 0
BBX 7 11 19 12
BITMAP
C0
E0
30
18
04
C2
E0
30
08
06
02
ENDCHAR
STARTCHAR 301F
ENCODING 12319
SWIDTH 1000 0
DWIDTH 28 0
BBX 7 11 2 -2
BITMAP
80
40
30
18
0E
82
60
30
1C
06
02
ENDCHAR
STARTCHAR 3020
ENCODING 12320
SWIDTH 1000 0
DWIDTH 28 0
BBX 26 18 1 1
BITMAP
1FFFFE00
1FFFFE00
00000000
00000000
1FFFFE00
1FFFFE00
000C0000
670C5980
8F8C7C40
848C4840
870C3840
400C0080
210C2300
10804200
08618400
043F0800
03807000
007F8000
ENDCHAR
STARTCHAR 3033
ENCODING 12339
SWIDTH 1000 0
DWIDTH 28 0
BBX 9 24 8 -3
BITMAP
0200
0300
0180
0180
0380
0300
0300
0600
0600
0400
0C00
0800
1800
1800
1000
3000
2000
6000
4000
4000
C000
8000
8000
8000
ENDCHAR
STARTCHAR 3034
ENCODING 12340
SWIDTH 1000 0
DWIDTH 28 0
BBX 15 24 8 -3
BITMAP
0200
0300
0180
0180
0380
0300
0300
0600
0600
0400
0C00
0800
1800
181C
1086
3066
2030
6018
4000
4000
C000
8000
8000
8000
ENDCHAR
STARTCHAR 3035
ENCODING 12341
SWIDTH 1000 0
DWIDTH 28 0
BBX 11 25 8 0
BITMAP
8000
8000
8000
C000
4000
6000
2000
3000
1000
1800
0C00
0C00
0600
0600
0300
0300
0380
0180
01C0
01C0
00C0
00E0
00E0
0060
0040
ENDCHAR
STARTCHAR 303B
ENCODING 12347
SWIDTH 1000 0
DWIDTH 28 0
BBX 11 17 8 2
BITMAP
1000
0800
0400
0300
0180
0780
0800
1000
1000
1800
0C00
0380
01E0
03E0
0E00
3000
C000
ENDCHAR
STARTCHAR 303C
ENCODING 12348
SWIDTH 1000 0
DWIDTH 28 0
BBX 24 24 2 -1
BITMAP
FFFFFF
800007
80000D
800019
800031
800061
8000C1
800181
800301
800201
800401
800801
801001
802001
804001
80C001
818001
830001
860001
8C0001
980001
B00001
E00001
FFFFFF
ENDCHAR
STARTCHAR 303D
ENCODING 12349
SWIDTH 1000 0
DWIDTH 28 0
BBX 20 23 5 -1
BITMAP
300000
E86000
CC9000
079800
030800
000800
000C00
000C00
000400
000400
000600
000200
000200
000300
000300
000100
000180
000180
0000C0
0000C0
000060
000060
000030
ENDCHAR
STARTCHAR 3041
ENCODING 12353
SWIDTH 1000 0
DWIDTH 28 0
BBX 18 21 5 -2
BITMAP
020000
018000
018000
010C00
213800
1FE000
010000
013000
01FE00
031300
0F3080
1B20C0
236040
63C040
C38040
C300C0
C700C0
CF0180
710700
001C00
006000
ENDCHAR
STARTCHAR 3042
ENCODING 12354
SWIDTH 1000 0
DWIDTH 28 0
BBX 22 24 3 -1
BITMAP
010000
00C000
00C000
00C000
20C300
10FE80
0FE000
008000
008C00
009F00
00E6E0
038630
0C8C18
188C0C
30980C
60900C
60A00C
40C00C
C08018
C1C018
46C030
78C060
008380
001C00
ENDCHAR
STARTCHAR 3043
ENCODING 12355
SWIDTH 1000 0
DWIDTH 28 0
BBX 20 16 4 0
BITMAP
800000
600400
600300
600080
2000C0
200060
200070
210030
210030
210030
220010
220000
160000
1C0000
0C0000
060000
ENDCHAR
STARTCHAR 3044
ENCODING 12356
SWIDTH 1000 0
DWIDTH 28 0
BBX 23 18 2 1
BITMAP
400000
E00080
300140
300020
200010
200018
20000C
20000E
208006
20C006
208006
210002
310000
130000
1A0000
0E0000
060000
020000
ENDCHAR
STARTCHAR 3045
ENCODING 12357
SWIDTH 1000 0
DWIDTH 28 0
BBX 13 20 7 -2
BITMAP
1800
07C0
03C0
0C00
0000
03E0
1C30
F018
C018
0008
0008
0018
0018
0018
0030
0030
0060
0180
0700
1800
ENDCHAR
STARTCHAR 3046
ENCODING 12358
SWIDTH 1000 0
DWIDTH 28 0
BBX 15 24 6 -1
BITMAP
1000
0C00
07F0
03F0
0600
0800
0000
01F0
8F1C
B804
F006
C006
0002
0002
0006
0006
0006
000C
000C
0018
0070
00C0
0300
1C00
ENDCHAR
STARTCHAR 3047
ENCODING 12359
SWIDTH 1000 0
DWIDTH 28 0
BBX 19 19 5 -1
BITMAP
060000
01F000
00F800
030000
000000
001800
11EC00
1F1800
183000
004000
008000
030000
06E000
0F3000
1C1000
381000
701800
E01F80
4007E0
ENDCHAR
STARTCHAR 3048
ENCODING 12360
SWIDTH 1000 0
DWIDTH 28 0
BBX 21 23 4 0
BITMAP
040000
030000
01FC00
007E00
008000
010000
000000
000600
10FF00
1F8E00
1C1C00
003000
006000
00C000
018000
037000
078800
0E0800
180C00
300C00
600600
C007F8
C003F8
ENDCHAR
STARTCHAR 3049
ENCODING 12361
SWIDTH 1000 0
DWIDTH 28 0
BBX 19 18 5 0
BITMAP
100000
0C0000
0C0600
040180
04C0C0
87C0E0
7E0060
040000
040000
047E00
078300
0C0180
340080
440080
8C0080
CC0180
7C0300
38FE00
ENDCHAR
STARTCHAR 304A
ENCODING 12362
SWIDTH 1000 0
DWIDTH 28 0
BBX 22 22 3 0
BITMAP
080000
070000
0301C0
030070
030018
02301C
C2F00C
3FC00C
020000
020000
020000
021F80
02E060
070030
0E0018
320018
420018
C20018
420030
660030
3E30E0
1C0F80
ENDCHAR
STARTCHAR 304B
ENCODING 12363
SWIDTH 1000 0
DWIDTH 28 0
BBX 23 22 3 0
BITMAP
020000
018000
018000
018000
018180
010040
83F030
FF1818
E2080C
020C0C
060C06
040C06
0C0C3E
0C0C4E
180C02
180800
301800
361800
61B000
E0F000
C0E000
80C000
ENDCHAR
STARTCHAR 304C
ENCODING 12364
SWIDTH 1000 0
DWIDTH 28 0
BBX 25 24 3 0
BITMAP
00000400
00000300
02003300
01801980
01800C00
01800C00
01818000
01004000
83F03000
FF181800
E2080C00
020C0C00
060C0600
040C0600
0C0C3E00
0C0C4E00
180C0200
18080000
30180000
36180000
61B00000
E0F00000
C0E00000
80C00000
ENDCHAR
STARTCHAR 304D
ENCODING 12365
SWIDTH 1000 0
DWIDTH 28 0
BBX 19 23 5 0
BITMAP
070000
018000
008000
00C600
005C00
40F000
3FE000
002060
0031C0
801780
607C00
1FC800
000C00
000400
000600
003A00
000700
200300
200000
100000
1C0000
0FF000
03FE00
ENDCHAR
STARTCHAR 304E
ENCODING 12366
SWIDTH 1000 0
DWIDTH 28 0
BBX 22 24 5 0
BITMAP
000030
07000C
0180CC
008064
00C660
005C30
40F000
3FE000
002060
0031C0
801780
607C00
1FC800
000C00
000400
000600
003A00
000700
200300
200000
100000
1C0000
0FF000
03FE00
ENDCHAR
STARTCHAR 304F
ENCODING 12367
SWIDTH 1000 0
DWIDTH 28 0
BBX 14 24 6 -1
BITMAP
0020
0018
0038
0070
00E0
0380
0700
0C00
1800
6000
4000
C000
6000
3000
1C00
0600
0380
01C0
00E0
0070
0038
001C
000C
000C
ENDCHAR
STARTCHAR 3050
ENCODING 12368
SWIDTH 1000 0
DWIDTH 28 0
BBX 18 24 6 -1
BITMAP
002000
001800
003800
007000
00E000
038000
070180
0C08C0
180640
600300
400300
C00000
600000
300000
1C0000
060000
038000
01C000
00E000
007000
003800
001C00
000C00
000C00
ENDCHAR
STARTCHAR 3051
ENCODING 12369
SWIDTH 1000 0
DWIDTH 28 0
BBX 21 25 4 -2
BITMAP
000700
400300
200180
300180
300180
300180
600198
6201F8
6183E0
40FF80
400180
400180
C00180
C00180
C80180
C80180
D00180
D00100
700300
600300
600600
200C00
201800
003000
004000
ENDCHAR
STARTCHAR 3052
ENCODING 12370
SWIDTH 1000 0
DWIDTH 28 0
BBX 24 26 4 -2
BITMAP
000008
000706
400367
2001B3
300198
300198
300180
600198
6201F8
6183E0
40FF80
400180
400180
C00180
C00180
C80180
C80180
D00180
D00100
700300
600300
600600
200C00
201800
003000
004000
ENDCHAR
STARTCHAR 3053
ENCODING 12371
SWIDTH 1000 0
DWIDTH 28 0
BBX 18 19 5 1
BITMAP
301C00
0FFE00
003800
00C000
018000
000000
000000
000000
000000
000000
000000
000000
800000
800000
800000
400000
700380
3FFFC0
07FF00
ENDCHAR
STARTCHAR 3054
ENCODING 12372
SWIDTH 1000 0
DWIDTH 28 0
BBX 22 23 5 1
BITMAP
000030
000018
00008C
00006C
301C60
0FFE20
003800
00C000
018000
000000
000000
000000
000000
000000
000000
000000
800000
800000
800000
400000
700380
3FFFC0
07FF00
ENDCHAR
STARTCHAR 3055
ENCODING 12373
SWIDTH 1000 0
DWIDTH 28 0
BBX 19 22 4 0
BITMAP
03C000
00C000
004000
0060E0
0023C0
003F00
803800
61F800
1F1800
000C00
000400
000600
000300
001B00
000780
100100
100000
100000
180000
0E0000
07FE00
00FF00
ENDCHAR
STARTCHAR 3056
ENCODING 12374
SWIDTH 1000 0
DWIDTH 28 0
BBX 24 24 4 0
BITMAP
000008
000006
03C063
00C033
004018
0060F8
0023C0
003F00
803800
61F800
1F1800
000C00
000400
000600
000300
001B00
000780
100100
100000
100000
180000
0E0000
07FE00
00FF00
ENDCHAR
STARTCHAR 3057
ENCODING 12375
SWIDTH 1000 0
DWIDTH 28 0
BBX 18 22 6 0
BITMAP
C00000
700000
300000
300000
600000
600000
600000
600000
600000
600000
600000
400000
400040
400040
400080
400180
600100
600300
300E00
383C00
1FF000
0FC000
ENDCHAR
STARTCHAR 3058
ENCODING 12376
SWIDTH 1000 0
DWIDTH 28 0
BBX 18 22 6 0
BITMAP
C00000
700000
300000
300C00
604600
603300
601B00
600800
600000
600000
600000
400000
400040
400040
400080
400180
600100
600300
300E00
383C00
1FF000
0FC000
ENDCHAR
STARTCHAR 3059
ENCODING 12377
SWIDTH 1000 0
DWIDTH 28 0
BBX 24 25 2 -2
BITMAP
001C00
000E00
000400
000400
000400
800FFE
FFFC03
7C0400
000400
000400
007C00
00C600
018600
018600
018700
018700
008B00
007A00
000600
000600
000400
000C00
000800
001000
006000
ENDCHAR
STARTCHAR 305A
ENCODING 12378
SWIDTH 1000 0
DWIDTH 28 0
BBX 25 26 2 -2
BITMAP
00000700
001C1180
000E0C80
00040C00
00040400
00040000
800FFE00
FFFC0300
7C040000
00040000
00040000
007C0000
00C60000
01860000
01860000
01870000
01870000
008B0000
007A0000
00060000
00060000
00040000
000C0000
00080000
00100000
00600000
ENDCHAR
STARTCHAR 305B
ENCODING 12379
SWIDTH 1000 0
DWIDTH 28 0
BBX 26 22 1 0
BITMAP
0000E000
00003000
07003000
01802000
01802000
01802000
01802F80
811FFFC0
FFF06000
79006000
01006000
01004000
01864000
0181C000
0180C000
01808000
01800000
01800000
00800000
00E01C00
007FFC00
001FF800
ENDCHAR
STARTCHAR 305C
ENCODING 12380
SWIDTH 1000 0
DWIDTH 28 0
BBX 27 24 1 0
BITMAP
00000100
000000C0
0000EC60
00003660
07003300
01802300
01802000
01802000
01802F80
811FFFC0
FFF06000
79006000
01006000
01004000
01864000
0181C000
0180C000
01808000
01800000
01800000
00800000
00E01C00
007FFC00
001FF800
ENDCHAR
STARTCHAR 305D
ENCODING 12381
SWIDTH 1000 0
DWIDTH 28 0
BBX 22 22 3 0
BITMAP
000300
0C3F80
07E380
070600
001C00
003000
006000
018000
0301F8
85FE1C
FF1000
702000
004000
00C000
008000
008000
008000
00C000
00C000
007000
003F80
000FC0
ENDCHAR
STARTCHAR 305E
ENCODING 12382
SWIDTH 1000 0
DWIDTH 28 0
BBX 24 24 3 0
BITMAP
00000C
000003
000333
0C3F99
07E38C
070600
001C00
003000
006000
018000
0301F8
85FE1C
FF1000
702000
004000
00C000
008000
008000
008000
00C000
00C000
007000
003F80
000FC0
ENDCHAR
STARTCHAR 305F
ENCODING 12383
SWIDTH 1000 0
DWIDTH 28 0
BBX 22 23 3 0
BITMAP
020000
01C000
00C000
00C000
008000
019800
41FC00
3FE000
030000
0201F0
020FF0
061180
040300
0C0000
080000
180000
180000
300000
304000
602000
E01800
C00FFC
C003F8
ENDCHAR
STARTCHAR 3060
ENCODING 12384
SWIDTH 1000 0
DWIDTH 28 0
BBX 22 23 3 0
BITMAP
020030
01C018
00C08C
00C06C
008060
019820
41FC00
3FE000
030000
0201F0
020FF0
061180
040300
0C0000
080000
180000
180000
300000
304000
602000
E01800
C00FFC
C003F8
ENDCHAR
STARTCHAR 3061
ENCODING 12385
SWIDTH 1000 0
DWIDTH 28 0
BBX 20 22 3 0
BITMAP
070000
018000
010000
030C00
833C00
43F000
3F0000
060000
060000
040000
040000
040FC0
047060
058030
0F0030
060030
040030
000030
000060
0000C0
000380
00FC00
ENDCHAR
STARTCHAR 3062
ENCODING 12386
SWIDTH 1000 0
DWIDTH 28 0
BBX 21 24 3 0
BITMAP
000040
000030
070118
0181D8
0100C0
030C40
833C00
43F000
3F0000
060000
060000
040000
040000
040FC0
047060
058030
0F0030
060030
040030
000030
000060
0000C0
000380
00FC00
ENDCHAR
STARTCHAR 3063
ENCODING 12387
SWIDTH 1000 0
DWIDTH 28 0
BBX 19 13 4 1
BITMAP
007F00
0FC1C0
FE0040
700060
000060
000060
000060
000060
0000C0
000180
000700
001C00
01E000
ENDCHAR
STARTCHAR 3064
ENCODING 12388
SWIDTH 1000 0
DWIDTH 28 0
BBX 23 16 2 2
BITMAP
000FE0
007030
03C018
8F000C
7C0006
300006
000006
000006
00000E
00000C
00001C
000038
000070
0001C0
000F00
00F000
ENDCHAR
STARTCHAR 3065
ENCODING 12389
SWIDTH 1000 0
DWIDTH 28 0
BBX 25 22 2 2
BITMAP
00000200
00000180
00001980
00000C80
00000600
00000600
000FE000
00703000
03C01800
8F000C00
7C000600
30000600
00000600
00000600
00000E00
00000C00
00001C00
00003800
00007000
0001C000
000F0000
00F00000
ENDCHAR
STARTCHAR 3066
ENCODING 12390
SWIDTH 1000 0
DWIDTH 28 0
BBX 22 20 2 0
BITMAP
00007C
801F8C
83E400
7E0800
701000
002000
002000
006000
004000
004000
00C000
00C000
00C000
00C000
004000
006000
007000
003860
001FF0
0007F0
ENDCHAR
STARTCHAR 3067
ENCODING 12391
SWIDTH 1000 0
DWIDTH 28 0
BBX 24 20 2 0
BITMAP
00007C
801F8C
83E400
7E0800
70100C
002006
002023
00601B
004018
004008
00C000
00C000
00C000
00C000
004000
006000
007000
003860
001FF0
0007F0
ENDCHAR
STARTCHAR 3068
ENCODING 12392
SWIDTH 1000 0
DWIDTH 28 0
BBX 17 22 6 0
BITMAP
380000
180000
180000
080000
080800
080600
0C0E00
0C1E00
0C7000
05C000
070000
0C0000
180000
200000
400000
800000
800000
800000
C00000
600700
3FFF80
0FFE00
ENDCHAR
STARTCHAR 3069
ENCODING 12393
SWIDTH 1000 0
DWIDTH 28 0
BBX 20 23 6 0
BITMAP
000060
380030
1803B0
1801D0
0800C0
080800
080600
0C0E00
0C1E00
0C7000
05C000
070000
0C0000
180000
200000
400000
800000
800000
800000
C00000
600700
3FFF80
0FFE00
ENDCHAR
STARTCHAR 306A
ENCODING 12394
SWIDTH 1000 0
DWIDTH 28 0
BBX 22 23 3 0
BITMAP
038000
01C000
018000
018000
413980
23F060
1F0038
0200F8
060118
040000
0C0200
080600
180600
300600
700600
600200
E0FA00
C30780
0203E0
020278
020218
01060C
00FC00
ENDCHAR
STARTCHAR 306B
ENCODING 12395
SWIDTH 1000 0
DWIDTH 28 0
BBX 21 21 4 0
BITMAP
600000
300000
30C1E0
303FE0
600600
600800
601000
400000
400000
C00000
C00000
800000
880000
900000
908000
F08000
E06000
603FF0
600FF8
600000
200000
ENDCHAR
STARTCHAR 306C
ENCODING 12396
SWIDTH 1000 0
DWIDTH 28 0
BBX 23 21 3 1
BITMAP
007000
103000
103000
183000
083F00
08F1C0
0B3060
0C2030
1C2010
1C6018
2C4018
644008
44C008
C4800C
C78008
8303D8
830C78
87881C
85883C
C88C66
7007C6
ENDCHAR
STARTCHAR 306D
ENCODING 12397
SWIDTH 1000 0
DWIDTH 28 0
BBX 25 23 2 0
BITMAP
04000000
03800000
01800000
01800000
01800000
01800000
01C1E000
7FC63000
39D81800
01A00C00
01400C00
03800C00
07000C00
05000400
0D000400
19000C00
3103EC00
79063C00
650C0C00
C5081E00
C30C1B00
03043180
0303C180
ENDCHAR
STARTCHAR 306E
ENCODING 12398
SWIDTH 1000 0
DWIDTH 28 0
BBX 22 20 3 0
BITMAP
00FE00
0361C0
0E2060
182030
306018
206018
60600C
40600C
C0400C
C0C00C
80C00C
80800C
81800C
810018
820018
C60030
4C0060
3001C0
000F00
003000
ENDCHAR
STARTCHAR 306F
ENCODING 12399
SWIDTH 1000 0
DWIDTH 28 0
BBX 22 22 4 0
BITMAP
400E00
E00300
600300
600300
600300
600330
4303F8
40FFC0
C00300
C00300
800300
800300
800300
900300
900300
A07F00
A18780
E303F0
C20338
C2030C
C18704
407C00
ENDCHAR
STARTCHAR 3070
ENCODING 12400
SWIDTH 1000 0
DWIDTH 28 0
BBX 23 24 4 0
BITMAP
000018
00000C
400E66
E00336
600330
600310
600300
600330
4303F8
40FFC0
C00300
C00300
800300
800300
800300
900300
900300
A07F00
A18780
E303F0
C20338
C2030C
C18704
407C00
ENDCHAR
STARTCHAR 3071
ENCODING 12401
SWIDTH 1000 0
DWIDTH 28 0
BBX 23 24 4 0
BITMAP
000018
000024
400E42
E00342
600326
60031C
600300
600330
4303F8
40FFC0
C00300
C00300
800300
800300
800300
900300
900300
A07F00
A18780
E303F0
C20338
C2030C
C18704
407C00
ENDCHAR
STARTCHAR 3072
ENCODING 12402
SWIDTH 1000 0
DWIDTH 28 0
BBX 23 22 3 0
BITMAP
000300
00C380
03C180
9D81C0
F10140
630120
0600B0
0C0098
08009C
18008E
100086
300080
200080
200080
200080
200180
200180
300300
300300
1C0E00
0FFC00
03F000
ENDCHAR
STARTCHAR 3073
ENCODING 12403
SWIDTH 1000 0
DWIDTH 28 0
BBX 25 24 3 0
BITMAP
00000400
00000300
00032380
00C39980
03C18C00
9D81CC00
F1014000
63012000
0600B000
0C009800
08009C00
18008E00
10008600
30008000
20008000
20008000
20008000
20018000
20018000
30030000
30030000
1C0E0000
0FFC0000
03F00000
ENDCHAR
STARTCHAR 3074
ENCODING 12404
SWIDTH 1000 0
DWIDTH 28 0
BBX 24 23 3 0
BITMAP
00000E
000311
00C391
03C191
9D81CE
F10140
630120
0600B0
0C0098
08009C
18008E
100086
300080
200080
200080
200080
200180
200180
300300
300300
1C0E00
0FFC00
03F000
ENDCHAR
STARTCHAR 3075
ENCODING 12405
SWIDTH 1000 0
DWIDTH 28 0
BBX 25 22 2 0
BITMAP
00C00000
00380000
001F0000
000F8000
00100000
00200000
00000000
00000000
00200000
00200000
00106000
00103000
00180C00
010C0600
02060700
0C060300
98030380
F0030100
60030000
03070000
01FE0000
007C0000
ENDCHAR
STARTCHAR 3076
ENCODING 12406
SWIDTH 1000 0
DWIDTH 28 0
BBX 25 22 2 0
BITMAP
00C00000
00380600
001F0300
000FB300
00101D00
00200C00
00000000
00000000
00200000
00200000
00106000
00103000
00180C00
010C0600
02060700
0C060300
98030380
F0030100
60030000
03070000
01FE0000
007C0000
ENDCHAR
STARTCHAR 3077
ENCODING 12407
SWIDTH 1000 0
DWIDTH 28 0
BBX 25 22 2 0
BITMAP
00C00000
00381E00
001F1100
000FA100
00101100
00200E00
00000000
00000000
00200000
00200000
00106000
00103000
00180C00
010C0600
02060700
0C060300
98030380
F0030100
60030000
03070000
01FE0000
007C0000
ENDCHAR
STARTCHAR 3078
ENCODING 12408
SWIDTH 1000 0
DWIDTH 28 0
BBX 24 14 2 4
BITMAP
006000
00B000
011800
030C00
060600
060300
0C0180
1800C0
B80060
700070
60003C
00000E
000007
000003
ENDCHAR
STARTCHAR 3079
ENCODING 12409
SWIDTH 1000 0
DWIDTH 28 0
BBX 24 17 2 4
BITMAP
000020
000018
000198
0060C8
00B060
011860
030C00
060600
060300
0C0180
1800C0
B80060
700070
60003C
00000E
000007
000003
ENDCHAR
STARTCHAR 307A
ENCODING 12410
SWIDTH 1000 0
DWIDTH 28 0
BBX 24 17 2 4
BITMAP
000070
000088
000084
006088
00B078
011800
030C00
060600
060300
0C0180
1800C0
B80060
700070
60003C
00000E
000007
000003
ENDCHAR
STARTCHAR 307B
ENCODING 12411
SWIDTH 1000 0
DWIDTH 28 0
BBX 22 22 4 0
BITMAP
400000
610060
6081E0
707F00
600300
600300
400300
420318
C103F8
C0FFE0
800300
800300
800300
900300
900300
A07F00
A187C0
E203F8
C2031C
C30304
418700
407C00
ENDCHAR
STARTCHAR 307C
ENCODING 12412
SWIDTH 1000 0
DWIDTH 28 0
BBX 24 24 4 0
BITMAP
00000C
000046
400036
61009B
6083D8
707F00
600300
600300
400300
420318
C103F8
C0FFE0
800300
800300
800300
900300
900300
A07F00
A187C0
E203F8
C2031C
C30304
418700
407C00
ENDCHAR
STARTCHAR 307D
ENCODING 12413
SWIDTH 1000 0
DWIDTH 28 0
BBX 24 24 4 0
BITMAP
00001E
000032
400021
6100A3
6083DE
707F00
600300
600300
400300
420318
C103F8
C0FFE0
800300
800300
800300
900300
900300
A07F00
A187C0
E203F8
C2031C
C30304
418700
407C00
ENDCHAR
STARTCHAR 307E
ENCODING 12414
SWIDTH 1000 0
DWIDTH 28 0
BBX 19 23 5 0
BITMAP
010000
00E000
006000
006000
006000
8063C0
40FF00
3FE000
006000
006000
006380
607F80
1FF800
006000
006000
006000
006000
3FF000
407E00
C06780
C061C0
60E060
3F8000
ENDCHAR
STARTCHAR 307F
ENCODING 12415
SWIDTH 1000 0
DWIDTH 28 0
BBX 25 22 2 -1
BITMAP
040C0000
07FE0000
078E0000
000C0000
000C0000
00180000
00186000
00301800
00301800
00201800
0FFC1800
18479800
30C0F800
60803800
41003C00
C3003700
C2006300
4C006180
7800C000
00018000
00030000
000C0000
ENDCHAR
STARTCHAR 3080
ENCODING 12416
SWIDTH 1000 0
DWIDTH 28 0
BBX 22 23 3 0
BITMAP
070000
030000
030000
030000
033000
83F860
7FC030
020018
02000C
06000C
3E004C
66003C
C2000C
860004
860000
840080
8C0080
FC0080
0C0080
0C00C0
0C00E0
0C01E0
03FFC0
ENDCHAR
STARTCHAR 3081
ENCODING 12417
SWIDTH 1000 0
DWIDTH 28 0
BBX 22 24 3 -1
BITMAP
002000
001800
001800
081800
081800
083E00
0DD3C0
0F1060
0C3030
1C3018
3C200C
24600C
64400C
444004
C6C00C
C2800C
83000C
83800C
838018
84C038
C8C070
7000E0
000780
003800
ENDCHAR
STARTCHAR 3082
ENCODING 12418
SWIDTH 1000 0
DWIDTH 28 0
BBX 19 24 4 -1
BITMAP
040000
030000
018000
030000
030000
030000
833C00
C7F800
3E0000
060000
060000
040000
841800
77F840
1F8040
0C0040
0C0060
0C0060
0C0040
0C00C0
0600C0
070380
03FF00
00FC00
ENDCHAR
STARTCHAR 3083
ENCODING 12419
SWIDTH 1000 0
DWIDTH 28 0
BBX 20 21 4 -2
BITMAP
010000
00E000
003000
381000
0C0000
0C0FC0
047060
07C030
070030
9E0030
F30030
611060
018FC0
008000
008000
00C000
004000
006000
006000
003000
002000
ENDCHAR
STARTCHAR 3084
ENCODING 12420
SWIDTH 1000 0
DWIDTH 28 0
BBX 24 23 2 -1
BITMAP
007800
001C00
1C0E00
2E0400
060000
0201F8
031E0C
01F006
03C003
0F8003
FC8003
70C006
00440C
0063F8
006000
002000
003000
003000
001800
001800
001C00
000C00
000C00
ENDCHAR
STARTCHAR 3085
ENCODING 12421
SWIDTH 1000 0
DWIDTH 28 0
BBX 19 21 5 -2
BITMAP
006000
003000
803000
C03000
603E00
40F380
4330C0
C630C0
C41040
881060
903060
903040
B030C0
A230C0
E13180
60EF00
607C00
204000
00C000
018000
020000
ENDCHAR
STARTCHAR 3086
ENCODING 12422
SWIDTH 1000 0
DWIDTH 28 0
BBX 22 24 3 -1
BITMAP
001800
000C00
000C00
E00400
600400
601FC0
602470
60C418
410408
42040C
42040C
44060C
4C040C
48040C
58040C
510418
708C38
706C70
703FE0
300F80
201000
003000
006000
00C000
ENDCHAR
STARTCHAR 3087
ENCODING 12423
SWIDTH 1000 0
DWIDTH 28 0
BBX 16 20 6 -1
BITMAP
0380
0180
0180
0180
0180
0186
01BE
01FC
0180
0180
0180
0180
0080
0080
3F80
C0F0
80BC
808E
4183
3F00
ENDCHAR
STARTCHAR 3088
ENCODING 12424
SWIDTH 1000 0
DWIDTH 28 0
BBX 18 22 5 0
BITMAP
03C000
00C000
00C000
00C000
00C000
00C000
00C380
00FF00
00C000
00C000
00C000
00C000
004000
004000
004000
3F4000
E1F000
807E00
804780
80C1C0
C0C0C0
3F8000
ENDCHAR
STARTCHAR 3089
ENCODING 12425
SWIDTH 1000 0
DWIDTH 28 0
BBX 17 24 6 -1
BITMAP
200000
1C0000
0FC000
07C000
180000
000000
200000
200000
600000
600000
600000
40FC00
C38700
CE0180
DC0180
F00180
E00180
400180
000180
000300
000600
001C00
01F000
060000
ENDCHAR
STARTCHAR 308A
ENCODING 12426
SWIDTH 1000 0
DWIDTH 28 0
BBX 14 23 7 -1
BITMAP
0070
4010
6018
6018
6018
6008
4008
C00C
D00C
900C
A00C
E00C
E018
C018
C018
4018
0010
0030
0060
0060
00C0
0300
1C00
ENDCHAR
STARTCHAR 308B
ENCODING 12427
SWIDTH 1000 0
DWIDTH 28 0
BBX 19 22 4 0
BITMAP
000C00
10FE00
1FCE00
0E1800
003000
006000
00C000
018000
030000
067E00
0F8380
1C00C0
3800E0
700060
E00060
C78060
88C060
0860C0
0830C0
0C3180
063F00
01F800
ENDCHAR
STARTCHAR 308C
ENCODING 12428
SWIDTH 1000 0
DWIDTH 28 0
BBX 26 23 2 0
BITMAP
04000000
03800000
01800000
01800000
01000000
0100E000
03833000
7FCC3000
31903000
01203000
01403000
03803000
07003000
0D003000
19003040
19003080
31003080
69003180
EB003100
C7003300
87003E00
03001C00
02000000
ENDCHAR
STARTCHAR 308D
ENCODING 12429
SWIDTH 1000 0
DWIDTH 28 0
BBX 19 22 4 0
BITMAP
000C00
10FE00
1FCE00
0E1800
003000
006000
00C000
018000
030000
060000
0C7E00
1B8180
3C00C0
700060
E00060
C00060
800060
000060
0000C0
000380
000F00
03F800
ENDCHAR
STARTCHAR 308E
ENCODING 12430
SWIDTH 1000 0
DWIDTH 28 0
BBX 20 19 4 -1
BITMAP
0E0000
030000
020000
020000
030F80
7F30C0
734060
028020
070030
060030
0A0030
1A0030
320030
620020
720060
CA00C0
860F80
061E00
060000
ENDCHAR
STARTCHAR 308F
ENCODING 12431
SWIDTH 1000 0
DWIDTH 28 0
BBX 24 23 2 0
BITMAP
040000
038000
018000
018000
018000
018000
0181F0
7FC618
39D80C
01A006
014006
038003
070003
050003
0D0003
190002
310006
690006
E5000C
C70038
0301E0
030600
030000
ENDCHAR
STARTCHAR 3090
ENCODING 12432
SWIDTH 1000 0
DWIDTH 28 0
BBX 22 22 3 0
BITMAP
001800
08F800
0F9C00
061800
003000
003000
003000
003F80
01E0E0
076030
0C4018
18C008
30800C
61800C
41000C
C3000C
823C0C
866318
844198
8840F0
F030E0
001F80
ENDCHAR
STARTCHAR 3091
ENCODING 12433
SWIDTH 1000 0
DWIDTH 28 0
BBX 24 22 2 0
BITMAP
020F00
03F380
018E00
001800
007000
00C000
019FC0
06E060
0F0030
1CF030
191830
010860
019DC0
007F00
006000
018000
0300F0
0F831C
14660E
783406
E01C07
C00802
ENDCHAR
STARTCHAR 3092
ENCODING 12434
SWIDTH 1000 0
DWIDTH 28 0
BBX 18 22 5 0
BITMAP
038000
018000
018000
031800
83FC00
7F8000
040000
080100
180080
3F01C0
798780
E0DE00
C07000
81E000
036000
0C6000
086000
106000
100000
1C0000
0FFF80
03FF80
ENDCHAR
STARTCHAR 3093
ENCODING 12435
SWIDTH 1000 0
DWIDTH 28 0
BBX 23 22 3 0
BITMAP
004000
006000
007000
006000
006000
00C000
018000
018000
030000
020000
060000
04E000
093002
0A1004
141804
381804
301808
701818
601830
E00C70
C00FE0
C00780
ENDCHAR
STARTCHAR 3094
ENCODING 12436
SWIDTH 1000 0
DWIDTH 28 0
BBX 20 25 6 -1
BITMAP
0000C0
100060
0C0730
07F1B0
03F180
060000
080000
000000
01F000
8F1C00
B80400
F00600
C00600
000200
000200
000600
000600
000600
000C00
000C00
001800
007000
00C000
030000
1C0000
ENDCHAR
STARTCHAR 3095
ENCODING 12437
SWIDTH 1000 0
DWIDTH 28 0
BBX 20 18 5 0
BITMAP
060000
030000
020000
020400
060300
8FC180
FC60C0
C42060
0C3020
083030
1833F0
103070
302010
306000
6C6000
E3C000
C18000
810000
ENDCHAR
STARTCHAR 3096
ENCODING 12438
SWIDTH 1000 0
DWIDTH 28 0
BBX 18 21 6 -2
BITMAP
001800
400C00
600400
600400
600400
6004C0
4607C0
41FE00
C00400
C00400
800400
800400
900400
900400
A00C00
A00C00
E00800
E01800
603000
606000
00C000
ENDCHAR
STARTCHAR 3099
ENCODING 12441
SWIDTH 1000 0
DWIDTH 28 0
BBX 6 6 20 17
BITMAP
10
0C
CC
64
30
30
ENDCHAR
STARTCHAR 309A
ENCODING 12442
SWIDTH 1000 0
DWIDTH 28 0
BBX 5 5 21 18
BITMAP
70
88
88
88
70
ENDCHAR
STARTCHAR 309B
ENCODING 12443
SWIDTH 1000 0
DWIDTH 28 0
BBX 7 6 1 17
BITMAP
18
0C
C6
36
30
10
ENDCHAR
STARTCHAR 309C
ENCODING 12444
SWIDTH 1000 0
DWIDTH 28 0
BBX 6 5 1 18
BITMAP
78
CC
84
4C
78
ENDCHAR
STARTCHAR 309D
ENCODING 12445
SWIDTH 1000 0
DWIDTH 28 0
BBX 9 16 9 3
BITMAP
8000
8000
4000
4000
6000
3000
1800
1C00
0E00
0700
0380
0380
0780
0C80
1000
2000
ENDCHAR
STARTCHAR 309E
ENCODING 12446
SWIDTH 1000 0
DWIDTH 28 0
BBX 13 17 9 3
BITMAP
0060
8038
8198
40C8
4060
6040
3000
1800
1C00
0E00
0700
0380
0380
0780
0C80
1000
2000
ENDCHAR
STARTCHAR 309F
ENCODING 12447
SWIDTH 1000 0
DWIDTH 28 0
BBX 17 24 5 -1
BITMAP
008000
00E000
004000
00C000
008180
01BF80
010000
030000
020000
040000
04F000
0B0C00
140C00
380400
300400
600400
E00C00
C00C00
000800
101800
103000
102000
08C000
078000
ENDCHAR
STARTCHAR 30A0
ENCODING 12448
SWIDTH 1000 0
DWIDTH 28 0
BBX 12 5 8 8
BITMAP
FFF0
0000
0000
0000
FFF0
ENDCHAR
STARTCHAR 30A1
ENCODING 12449
SWIDTH 1000 0
DWIDTH 28 0
BBX 18 19 5 -2
BITMAP
800380
7FFFC0
7C0380
000700
000C00
031800
00E000
00C000
00C000
00C000
00C000
008000
018000
018000
030000
020000
040000
080000
300000
ENDCHAR
STARTCHAR 30A2
ENCODING 12450
SWIDTH 1000 0
DWIDTH 28 0
BBX 20 22 4 -1
BITMAP
000060
800FF0
FFF870
7800C0
000180
000300
000600
01E800
007000
006000
006000
006000
006000
004000
00C000
00C000
008000
018000
030000
060000
0C0000
300000
ENDCHAR
STARTCHAR 30A3
ENCODING 12451
SWIDTH 1000 0
DWIDTH 28 0
BBX 17 20 4 -2
BITMAP
000300
000380
000700
000E00
001C00
003800
006000
01E000
072000
1C2000
602000
802000
002000
002000
002000
002000
002000
003000
003000
002000
ENDCHAR
STARTCHAR 30A4
ENCODING 12452
SWIDTH 1000 0
DWIDTH 28 0
BBX 20 23 2 -1
BITMAP
0000C0
000070
0000E0
0000C0
000180
000700
000E00
001800
007800
00C800
030800
0C0800
700800
800800
000800
000800
000C00
000C00
000C00
000C00
000C00
000C00
000800
ENDCHAR
STARTCHAR 30A5
ENCODING 12453
SWIDTH 1000 0
DWIDTH 28 0
BBX 16 20 6 -1
BITMAP
0300
0180
0180
0180
C186
7FFB
6003
6006
6006
6006
6004
600C
600C
0018
0030
0030
0060
0080
0300
0C00
ENDCHAR
STARTCHAR 30A6
ENCODING 12454
SWIDTH 1000 0
DWIDTH 28 0
BBX 18 23 5 -1
BITMAP
01C000
00C000
00C000
00C000
80C180
7FFFC0
6000C0
6001C0
600180
600180
600180
600300
600300
600300
000600
000600
000C00
001800
003000
006000
00C000
030000
040000
ENDCHAR
STARTCHAR 30A7
ENCODING 12455
SWIDTH 1000 0
DWIDTH 28 0
BBX 20 13 4 2
BITMAP
200380
1FFFC0
006000
006000
006000
006000
006000
006000
006000
006000
806060
FFFFF0
7C0030
ENDCHAR
STARTCHAR 30A8
ENCODING 12456
SWIDTH 1000 0
DWIDTH 28 0
BBX 24 15 2 3
BITMAP
1FFFF0
0FFFF8
001800
001800
001800
001800
001800
001800
001800
001800
001800
001800
80181E
7FFFFF
3C0000
ENDCHAR
STARTCHAR 30A9
ENCODING 12457
SWIDTH 1000 0
DWIDTH 28 0
BBX 20 20 4 -1
BITMAP
002000
001800
000C00
000C00
000C00
000CE0
603FF0
3FFC00
006C00
006C00
00CC00
008C00
018C00
030C00
060C00
0C0400
106400
601C00
800C00
000C00
ENDCHAR
STARTCHAR 30AA
ENCODING 12458
SWIDTH 1000 0
DWIDTH 28 0
BBX 24 23 2 0
BITMAP
000400
000300
000300
000100
000100
000100
00011E
3FFFFF
1FCD00
000D00
001900
003100
003100
006100
00C100
00C100
018180
030180
060180
181980
300780
400380
800100
ENDCHAR
STARTCHAR 30AB
ENCODING 12459
SWIDTH 1000 0
DWIDTH 28 0
BBX 21 23 3 -1
BITMAP
007000
003800
001800
001000
003000
003030
203FF8
3FF018
1E2018
006010
006030
004030
00C030
00C030
018020
018060
031060
060840
0C06C0
080380
100380
600300
800000
ENDCHAR
STARTCHAR 30AC
ENCODING 12460
SWIDTH 1000 0
DWIDTH 28 0
BBX 23 25 3 -1
BITMAP
000008
000006
007066
003832
001818
001018
003000
003030
203FF8
3FF018
1E2018
006010
006030
004030
00C030
00C030
018020
018060
031060
060840
0C06C0
080380
100380
600300
800000
ENDCHAR
STARTCHAR 30AD
ENCODING 12461
SWIDTH 1000 0
DWIDTH 28 0
BBX 22 23 3 -1
BITMAP
03C000
00C000
004000
006000
0060C0
0067E0
007C00
7FA000
3C2000
003000
001018
0010FC
001FC0
01F800
FF9800
380800
000800
000C00
000C00
000C00
000E00
000600
000400
ENDCHAR
STARTCHAR 30AE
ENCODING 12462
SWIDTH 1000 0
DWIDTH 28 0
BBX 23 24 3 -1
BITMAP
00000C
03C046
00C032
004018
006018
0060C0
0067E0
007C00
7FA000
3C2000
003000
001018
0010FC
001FC0
01F800
FF9800
380800
000800
000C00
000C00
000C00
000E00
000600
000400
ENDCHAR
STARTCHAR 30AF
ENCODING 12463
SWIDTH 1000 0
DWIDTH 28 0
BBX 19 22 4 0
BITMAP
010000
00C000
00E000
00C0C0
01FFE0
0180E0
0300C0
0600C0
060180
0C0180
100300
200300
C00600
000C00
001C00
001800
003000
00E000
018000
030000
0C0000
700000
ENDCHAR
STARTCHAR 30B0
ENCODING 12464
SWIDTH 1000 0
DWIDTH 28 0
BBX 24 24 4 0
BITMAP
00000C
000006
010076
00C01B
00E018
00C0C0
01FFE0
0180E0
0300C0
0600C0
060180
0C0180
100300
200300
C00600
000C00
001C00
001800
003000
00E000
018000
030000
0C0000
700000
ENDCHAR
STARTCHAR 30B1
ENCODING 12465
SWIDTH 1000 0
DWIDTH 28 0
BBX 22 23 3 -1
BITMAP
060000
030000
038000
030000
030000
060078
07FFFC
0C0600
080600
100C00
300C00
600C00
800C00
000C00
001800
001800
003000
003000
006000
00C000
018000
060000
080000
ENDCHAR
STARTCHAR 30B2
ENCODING 12466
SWIDTH 1000 0
DWIDTH 28 0
BBX 25 25 3 -1
BITMAP
00000600
00000300
06003180
03001D80
03800C00
03000C00
03000000
06007800
07FFFC00
0C060000
08060000
100C0000
300C0000
600C0000
800C0000
000C0000
00180000
00180000
00300000
00300000
00600000
00C00000
01800000
06000000
08000000
ENDCHAR
STARTCHAR 30B3
ENCODING 12467
SWIDTH 1000 0
DWIDTH 28 0
BBX 18 17 5 2
BITMAP
000180
7FFF80
3F81C0
000180
000180
000180
000100
000100
000100
000100
000300
000300
000300
000300
C00300
7FFF80
3C0000
ENDCHAR
STARTCHAR 30B4
ENCODING 12468
SWIDTH 1000 0
DWIDTH 28 0
BBX 22 22 5 2
BITMAP
000030
000018
00008C
00006C
000060
0001A0
7FFF80
3F81C0
000180
000180
000180
000100
000100
000100
000100
000300
000300
000300
000300
C00300
7FFF80
3C0000
ENDCHAR
STARTCHAR 30B5
ENCODING 12469
SWIDTH 1000 0
DWIDTH 28 0
BBX 24 23 2 -1
BITMAP
000380
070180
018180
010080
010080
010080
01008E
FFFFFF
7F0180
010180
010180
010180
010180
030180
010180
000300
000300
000600
000400
000C00
003000
006000
018000
ENDCHAR
STARTCHAR 30B6
ENCODING 12470
SWIDTH 1000 0
DWIDTH 28 0
BBX 25 25 2 -1
BITMAP
00000600
00000300
00039980
07018D80
01818C00
01008400
01008000
01008000
01008E00
FFFFFF00
7F018000
01018000
01018000
01018000
01018000
03018000
01018000
00030000
00030000
00060000
00040000
000C0000
00300000
00600000
01800000
ENDCHAR
STARTCHAR 30B7
ENCODING 12471
SWIDTH 1000 0
DWIDTH 28 0
BBX 22 21 3 0
BITMAP
0E0000
038000
00E000
00E004
006004
E00004
3C0008
0E0010
060010
060020
000040
000080
000180
000300
000600
000800
003000
206000
118000
1E0000
0C0000
ENDCHAR
STARTCHAR 30B8
ENCODING 12472
SWIDTH 1000 0
DWIDTH 28 0
BBX 23 24 3 0
BITMAP
000018
00008C
000066
0E0036
038030
00E000
00E004
006004
E00004
3C0008
0E0010
060010
060020
000040
000080
000180
000300
000600
000800
003000
206000
118000
1E0000
0C0000
ENDCHAR
STARTCHAR 30B9
ENCODING 12473
SWIDTH 1000 0
DWIDTH 28 0
BBX 22 19 3 1
BITMAP
000300
1FFF80
0F8380
000300
000300
000600
000600
000C00
001C00
001800
003C00
006700
00C1C0
01C0E0
030070
060038
0C001C
30000C
C00000
ENDCHAR
STARTCHAR 30BA
ENCODING 12474
SWIDTH 1000 0
DWIDTH 28 0
BBX 23 23 3 1
BITMAP
000008
000006
000066
000032
000318
1FFF98
0F8380
000300
000300
000600
000600
000C00
001C00
001800
003C00
006700
00C1C0
01C0E0
030070
060038
0C001C
30000C
C00000
ENDCHAR
STARTCHAR 30BB
ENCODING 12475
SWIDTH 1000 0
DWIDTH 28 0
BBX 22 22 2 0
BITMAP
040000
038000
018000
018000
018000
018018
0180FC
019F1C
83F030
FF8060
7180C0
018180
018300
018400
018000
018000
018000
018000
018000
00C070
007FF0
001FF0
ENDCHAR
STARTCHAR 30BC
ENCODING 12476
SWIDTH 1000 0
DWIDTH 28 0
BBX 25 24 2 0
BITMAP
00000400
00000300
04001180
03800D80
01800C00
01800600
01800000
01801800
0180FC00
019F1C00
83F03000
FF806000
7180C000
01818000
01830000
01840000
01800000
01800000
01800000
01800000
01800000
00C07000
007FF000
001FF000
ENDCHAR
STARTCHAR 30BD
ENCODING 12477
SWIDTH 1000 0
DWIDTH 28 0
BBX 19 21 4 0
BITMAP
0000C0
000060
C00060
600060
3800E0
1800C0
1C00C0
1C01C0
0C0180
000180
000300
000600
000600
000C00
001800
003000
006000
00C000
018000
060000
180000
ENDCHAR
STARTCHAR 30BE
ENCODING 12478
SWIDTH 1000 0
DWIDTH 28 0
BBX 24 24 4 0
BITMAP
00000E
000023
00007B
000098
0000C8
C00060
600060
380060
1800C0
1C00C0
1C01C0
0C0180
000180
000300
000600
000600
000C00
001800
003000
006000
00C000
018000
060000
180000
ENDCHAR
STARTCHAR 30BF
ENCODING 12479
SWIDTH 1000 0
DWIDTH 28 0
BBX 19 23 4 -1
BITMAP
01C000
00C000
00E000
00C0C0
01FFE0
0180E0
0300C0
060180
040180
0B0180
10C300
206600
403E00
801C00
001E00
001F00
003300
00E100
018000
030000
0C0000
300000
400000
ENDCHAR
STARTCHAR 30C0
ENCODING 12480
SWIDTH 1000 0
DWIDTH 28 0
BBX 24 25 4 -1
BITMAP
00000C
000046
01C033
00C018
00E018
00C0C0
01FFE0
0180E0
0300C0
060180
040180
0B0180
10C300
206600
403E00
801C00
001E00
001F00
003300
00E100
018000
030000
0C0000
300000
400000
ENDCHAR
STARTCHAR 30C1
ENCODING 12481
SWIDTH 1000 0
DWIDTH 28 0
BBX 22 23 3 -1
BITMAP
000180
0001C0
000780
007E00
07D800
381800
001800
001800
00181C
801FFC
FFF800
701000
001000
003000
003000
003000
006000
006000
00C000
018000
030000
0C0000
100000
ENDCHAR
STARTCHAR 30C2
ENCODING 12482
SWIDTH 1000 0
DWIDTH 28 0
BBX 24 25 3 -1
BITMAP
000006
000043
0001B9
0001DC
00078C
007E00
07D800
381800
001800
001800
00181C
801FFC
FFF800
701000
001000
003000
003000
003000
006000
006000
00C000
018000
030000
0C0000
100000
ENDCHAR
STARTCHAR 30C3
ENCODING 12483
SWIDTH 1000 0
DWIDTH 28 0
BBX 17 18 5 -1
BITMAP
040300
020180
810180
418180
618180
318300
318300
300600
000600
000C00
000800
001800
003000
006000
01C000
030000
040000
180000
ENDCHAR
STARTCHAR 30C4
ENCODING 12484
SWIDTH 1000 0
DWIDTH 28 0
BBX 21 21 3 0
BITMAP
000040
010030
808018
40C038
606030
306030
306030
386060
180060
1000C0
0000C0
000180
000300
000700
000600
000C00
001800
007000
00C000
038000
0C0000
ENDCHAR
STARTCHAR 30C5
ENCODING 12485
SWIDTH 1000 0
DWIDTH 28 0
BBX 25 24 3 0
BITMAP
00000700
00001180
00000D80
00000E00
01007600
80803000
40C03800
60603000
30603000
30603000
38606000
18006000
1000C000
0000C000
00018000
00030000
00070000
00060000
000C0000
00180000
00700000
00C00000
03800000
0C000000
ENDCHAR
STARTCHAR 30C6
ENCODING 12486
SWIDTH 1000 0
DWIDTH 28 0
BBX 22 22 3 -1
BITMAP
080380
07FE40
000000
000000
000000
000000
000000
8000FC
FFFFFC
7C1800
001800
001800
001000
003000
003000
003000
002000
006000
00C000
018000
030000
0C0000
ENDCHAR
STARTCHAR 30C7
ENCODING 12487
SWIDTH 1000 0
DWIDTH 28 0
BBX 25 25 3 -1
BITMAP
00000700
00002380
00001980
08038C00
07FE4C00
00000000
00000000
00000000
00000000
00000000
8000FC00
FFFFFC00
7C180000
00180000
00180000
00100000
00300000
00300000
00300000
00200000
00600000
00C00000
01800000
03000000
0C000000
ENDCHAR
STARTCHAR 30C8
ENCODING 12488
SWIDTH 1000 0
DWIDTH 28 0
BBX 13 23 9 -1
BITMAP
E000
7000
2000
2000
2000
2000
2000
2000
3800
2F00
23C0
20F0
2078
2038
2018
2000
2000
2000
3000
3000
3000
7000
2000
ENDCHAR
STARTCHAR 30C9
ENCODING 12489
SWIDTH 1000 0
DWIDTH 28 0
BBX 14 23 9 -1
BITMAP
E000
7000
2018
208C
2064
2030
2030
2000
3800
2F00
23C0
20F0
2078
2038
2018
2000
2000
2000
3000
3000
3000
7000
2000
ENDCHAR
STARTCHAR 30CA
ENCODING 12490
SWIDTH 1000 0
DWIDTH 28 0
BBX 23 24 3 -2
BITMAP
007000
001800
001800
001800
001800
001800
001800
80183C
FFFFFE
7E1800
001800
001800
001800
003000
003000
003000
006000
006000
00C000
018000
010000
060000
0C0000
100000
ENDCHAR
STARTCHAR 30CB
ENCODING 12491
SWIDTH 1000 0
DWIDTH 28 0
BBX 24 14 2 4
BITMAP
000060
0FFFF0
07C030
000000
000000
000000
000000
000000
000000
000000
000000
80003E
7FFFFF
3F0000
ENDCHAR
STARTCHAR 30CC
ENCODING 12492
SWIDTH 1000 0
DWIDTH 28 0
BBX 18 21 4 0
BITMAP
000180
200FC0
1FF9C0
1E0180
000300
000300
000700
080600
060C00
01CC00
007800
001C00
003E00
006380
00C1C0
0180C0
030040
0E0000
180000
600000
800000
ENDCHAR
STARTCHAR 30CD
ENCODING 12493
SWIDTH 1000 0
DWIDTH 28 0
BBX 22 25 2 -2
BITMAP
01E000
003C00
000E00
000400
000000
000180
0FFFC0
07E1C0
000380
000700
000E00
001C00
003A00
0079C0
00C870
01881C
06080C
0C080C
300800
C00800
000800
001800
001800
001800
001800
ENDCHAR
STARTCHAR 30CE
ENCODING 12494
SWIDTH 1000 0
DWIDTH 28 0
BBX 16 21 5 0
BITMAP
0008
0006
0003
0007
0006
0006
000C
000C
001C
0018
0030
0030
0060
00C0
0180
0300
0600
0C00
3000
6000
8000
ENDCHAR
ENDFONT
